<svg width="33" height="32" viewBox="0 0 33 32" fill="none" xmlns="http://www.w3.org/2000/svg">
<path d="M14.4869 2.97333L7.83354 5.46666C6.3002 6.03999 5.04688 7.85331 5.04688 9.49331V19.4C5.04688 20.9733 6.08689 23.04 7.35356 23.9866L13.0869 28.2667C14.9669 29.68 18.0602 29.68 19.9402 28.2667L25.6735 23.9866C26.9402 23.04 27.9802 20.9733 27.9802 19.4V9.49331C27.9802 7.85331 26.7269 6.03999 25.1935 5.46666L18.5402 2.97333C17.4069 2.56 15.5935 2.56 14.4869 2.97333Z" stroke="#24C4F9" stroke-width="2" stroke-linecap="round" stroke-linejoin="round"/>
<path d="M16.4999 14.5601C16.4466 14.5601 16.3799 14.5601 16.3266 14.5601C15.0732 14.5201 14.0732 13.48 14.0732 12.2134C14.0732 10.92 15.1266 9.8667 16.4199 9.8667C17.7133 9.8667 18.7666 10.92 18.7666 12.2134C18.7533 13.4934 17.7533 14.5201 16.4999 14.5601Z" stroke="#24C4F9" stroke-width="2" stroke-linecap="round" stroke-linejoin="round"/>
<path d="M13.8467 18.2935C12.5667 19.1468 12.5667 20.5468 13.8467 21.4001C15.3001 22.3735 17.6867 22.3735 19.1401 21.4001C20.4201 20.5468 20.4201 19.1468 19.1401 18.2935C17.7001 17.3201 15.3134 17.3201 13.8467 18.2935Z" stroke="#24C4F9" stroke-width="2" stroke-linecap="round" stroke-linejoin="round"/>
</svg>
