<svg width="224" height="210" viewBox="0 0 224 210" fill="none" xmlns="http://www.w3.org/2000/svg">
<path fill-rule="evenodd" clip-rule="evenodd" d="M16.0329 100.536C16.0329 100.536 6.5484 92.4339 19.8545 64.4597C33.1606 36.4854 60.1079 42.6169 77.3325 31.6136C102.783 15.3557 92.3511 2.6327 124.085 0.581877C164.041 -2.00027 166.304 39.7274 186.294 39.7274C187.609 39.7274 218.738 27.2195 223.294 61.4607C225.589 78.7048 186.294 105.001 186.294 105.001C186.294 105.001 169.94 119.825 169.042 127.145C165.276 157.844 173.13 193.004 85.1079 209.191C73.7239 211.284 54.821 203.712 44.3923 189.724C36.2222 178.765 3.4485 186.54 0.389167 150.512C-1.1528 132.353 16.0329 100.536 16.0329 100.536Z" fill="#24C4F9"/>
<path d="M74.7463 76.1961C75.0431 76.0209 75.4257 76.1196 75.6009 76.4164L76.3074 77.6083C79.1128 82.3151 80.2349 83.8435 81.4275 84.5345C82.4077 85.1024 83.4212 84.9261 85.2764 83.8381L85.5243 83.6893C86.6911 82.962 92.0303 79.2944 94.0947 77.9774C94.3853 77.7921 94.7711 77.8774 94.9565 78.1679C95.1418 78.4585 95.0566 78.8443 94.766 79.0297L94.4482 79.2342C92.1478 80.7255 86.98 84.2746 86.0652 84.8216C83.8191 86.1646 82.3628 86.4664 80.9036 85.6717L80.8018 85.6145C79.234 84.7061 78.0145 82.9635 74.5259 77.0507C74.3507 76.7538 74.4494 76.3712 74.7463 76.1961Z" fill="#EDF3F5"/>
<path d="M84.8531 83.4099C85.1947 83.3642 85.5087 83.604 85.5545 83.9456C85.767 85.5332 86.2761 87.1251 87.0844 88.723C87.24 89.0306 87.1167 89.406 86.8092 89.5616C86.5016 89.7172 86.1262 89.5939 85.9706 89.2864C85.1009 87.5668 84.549 85.8412 84.3174 84.1113C84.2716 83.7696 84.5115 83.4556 84.8531 83.4099Z" fill="#EDF3F5"/>
<path fill-rule="evenodd" clip-rule="evenodd" d="M157.559 121.528C157.458 121.783 157.237 122.135 156.981 122.469L157.202 122.698L157.458 122.971L157.515 123.026C157.54 123.047 157.559 123.061 157.573 123.065C157.656 123.077 157.714 123.153 157.703 123.236C157.691 123.318 157.615 123.377 157.532 123.365C157.457 123.363 157.185 123.257 156.86 122.993C156.801 122.945 156.743 122.89 156.683 122.83C156.496 123.039 156.307 123.218 156.143 123.329C155.903 123.495 155.695 123.509 155.595 123.442C155.497 123.376 155.404 123.156 155.563 122.712C155.588 122.632 155.673 122.589 155.753 122.614C155.832 122.64 155.876 122.724 155.851 122.805C155.827 122.887 155.823 122.962 155.823 123.022L155.915 122.96C155.948 122.936 155.981 122.91 156.012 122.879C156.124 122.769 156.248 122.636 156.373 122.491C156.175 122.261 155.973 121.991 155.81 121.679C155.73 121.527 155.667 121.366 155.606 121.196C155.565 121.101 155.608 120.99 155.703 120.948C155.798 120.906 155.909 120.949 155.951 121.044C156.133 121.425 156.365 121.753 156.594 122.034L156.671 122.126C156.88 121.853 157.059 121.576 157.141 121.365C157.186 121.251 157.316 121.193 157.431 121.238C157.547 121.283 157.604 121.413 157.559 121.528Z" fill="#EDF3F5"/>
<path fill-rule="evenodd" clip-rule="evenodd" d="M64.6985 42.7967L64.3181 42.7278C62.1939 42.3329 60.5652 41.8481 57.5227 40.7932C57.1738 40.6723 56.989 40.2914 57.11 39.9424C57.231 39.5935 57.6119 39.4087 57.9608 39.5297L58.719 39.7907C61.388 40.7015 62.8855 41.1191 64.9307 41.4797C71.8126 42.6932 76.9653 39.16 77.3869 32.4217C77.41 32.0531 77.7274 31.773 78.096 31.7961C78.4646 31.8191 78.7447 32.1366 78.7216 32.5052C78.2475 40.0834 72.3284 44.1421 64.6985 42.7967Z" fill="#00160A"/>
<path fill-rule="evenodd" clip-rule="evenodd" d="M81.8942 50.0125L82.2782 50.8658L83.1535 51.1171C83.2008 51.1306 83.2282 51.18 83.2146 51.2273C83.2104 51.2419 83.2026 51.2552 83.1918 51.2659L82.5268 51.928L82.564 52.8808C82.5659 52.93 82.5276 52.9714 82.4784 52.9733C82.4618 52.974 82.4453 52.97 82.4308 52.9617L81.6779 52.5329C81.6544 52.5195 81.6261 52.5176 81.6009 52.5276L80.7957 52.8474C80.7499 52.8656 80.6981 52.8432 80.6799 52.7974C80.6737 52.782 80.6721 52.7651 80.675 52.7487L80.8445 51.8104L80.2781 51.0622C80.2484 51.0229 80.2561 50.967 80.2954 50.9373C80.3075 50.9281 80.3217 50.9222 80.3367 50.9201L81.2385 50.7931L81.7375 50.0016C81.7637 49.9599 81.8188 49.9474 81.8605 49.9737C81.8753 49.9831 81.887 49.9966 81.8942 50.0125Z" fill="#00160A"/>
<path d="M169.851 28.5663C170.195 28.5417 170.494 28.8005 170.518 29.1443C170.543 29.4881 170.284 29.7867 169.94 29.8113C167.478 29.987 165.544 30.9413 164.684 33.302C164.633 33.4441 164.59 33.5812 164.555 33.7116L164.532 33.8011L164.57 33.7225C165.651 31.5136 167.738 29.9788 170.156 29.5893L170.314 29.5655C170.655 29.5179 170.971 29.756 171.018 30.0973C171.066 30.4387 170.828 30.754 170.486 30.8017C168.24 31.1152 166.319 32.6081 165.48 34.7493L165.426 34.893C165.028 35.9874 164.072 36.5122 163.456 35.5756C163.081 35.0044 163.106 33.9898 163.511 32.8751C164.541 30.0475 166.902 28.7767 169.851 28.5663Z" fill="#EDF3F5"/>
<path d="M167.009 23.9167C167.352 23.8922 167.651 24.151 167.676 24.4948C167.7 24.8386 167.441 25.1372 167.098 25.1617C163.18 25.4412 159.745 27.9853 158.378 31.7405C157.973 32.8537 157.898 33.8054 158.043 34.2874L158.06 34.3412L158.088 34.3014C158.158 34.1957 158.236 34.0439 158.313 33.847L158.346 33.7599C159.79 29.7934 163.29 27.0155 167.396 26.4425C167.737 26.3948 168.052 26.6329 168.1 26.9743C168.148 27.3156 167.91 27.631 167.568 27.6786C163.977 28.18 160.907 30.5769 159.585 34.0113L159.519 34.1868C158.984 35.6577 157.826 36.2931 157.086 35.1668C156.579 34.395 156.614 32.938 157.205 31.3136C158.742 27.0915 162.605 24.2309 167.009 23.9167Z" fill="#EDF3F5"/>
<path d="M163.178 17.7178C163.522 17.6933 163.82 17.9521 163.845 18.2959C163.869 18.6397 163.611 18.9383 163.267 18.9628C157.68 19.3614 152.78 22.99 150.831 28.346C150.167 30.1688 150.112 31.7137 150.474 32.3559L150.507 32.4102C150.561 32.4919 150.543 32.4942 150.557 32.483L150.565 32.4775C150.749 32.3768 150.991 32.0335 151.212 31.4641L151.256 31.3473C153.247 25.8768 158.075 22.0458 163.737 21.2554C164.078 21.2078 164.394 21.4459 164.441 21.7873C164.489 22.1286 164.251 22.444 163.91 22.4916C158.768 23.2093 154.376 26.651 152.502 31.5789L152.429 31.7741C151.737 33.6773 150.347 34.4397 149.464 33.0956C148.806 32.0936 148.854 30.1287 149.658 27.9191C151.777 22.0963 157.104 18.1512 163.178 17.7178Z" fill="#EDF3F5"/>
<path d="M156.339 11.8914C156.677 11.8252 157.005 12.0457 157.072 12.3839C157.138 12.7221 156.917 13.05 156.579 13.1163C151.521 14.1069 147.453 17.9703 146.273 23.0805C145.874 24.81 145.995 26.2163 146.387 26.7528L146.439 26.82L146.443 26.8294L146.45 26.8238C146.59 26.6971 146.754 26.3737 146.882 25.8722L146.908 25.7621C148.122 20.5063 152.129 16.438 157.247 15.0718C157.58 14.9829 157.922 15.1808 158.01 15.5138C158.099 15.8468 157.901 16.1889 157.568 16.2777C152.957 17.5086 149.335 21.1389 148.172 25.8434L148.124 26.0428C147.696 27.8965 146.468 28.7813 145.472 27.608C144.744 26.7497 144.566 24.9287 145.057 22.7997C146.349 17.2055 150.802 12.9758 156.339 11.8914Z" fill="#EDF3F5"/>
<path d="M87.1585 88.8606L87.5188 88.7295C90.9237 87.5076 93.7967 86.9684 94.5265 87.711C95.1664 88.3621 95.7368 89.5414 96.2775 91.271C96.3803 91.5999 96.197 91.95 95.868 92.0528C95.539 92.1557 95.189 91.9723 95.0862 91.6434C94.6186 90.1475 94.1415 89.1408 93.6903 88.6431L93.6717 88.6237L93.6556 88.6245C93.5702 88.6071 93.4421 88.5983 93.2789 88.6014C92.9193 88.6084 92.4277 88.6718 91.8406 88.7881C90.6329 89.0274 89.1063 89.4725 87.5904 90.0317C85.0557 90.9667 82.9442 92.0652 81.7778 93.0576C81.3495 93.4219 80.5676 92.4071 81.32 91.8257C82.6738 90.7796 84.7271 89.7575 87.1585 88.8606Z" fill="#EDF3F5"/>
<path d="M85.4449 77.0709C85.4449 79.1525 87.6464 81.4064 88.1148 81.5346C88.4472 81.6257 82.7197 85.3575 82.7197 85.3575C80.6501 85.6298 79.4348 83.8805 79.4348 81.2746C79.4348 80.9299 85.4449 76.7262 85.4449 77.0709Z" fill="#EDF3F5"/>
<path fill-rule="evenodd" clip-rule="evenodd" d="M78.6914 78.1648C79.4164 78.0239 79.9089 77.4198 79.7915 76.8157C79.674 76.2115 78.9911 75.836 78.2661 75.9769C77.5411 76.1178 77.0486 76.7218 77.166 77.326C77.2834 77.9302 77.9664 78.3057 78.6914 78.1648Z" fill="#FFEDC2"/>
<path d="M152.564 8.43075C152.904 8.3716 153.227 8.59892 153.286 8.93848C153.345 9.27804 153.118 9.60125 152.778 9.66039C151.163 9.9417 149.535 10.9192 147.856 12.474C145.675 14.4929 144.235 17.2827 143.441 21.0022C142.801 23.9989 143.392 27.7435 145.064 31.0353C146.967 34.7804 150.332 35.706 154.256 36.4227C158.285 37.1585 159.398 36.7041 163.204 35.3508L163.555 35.2236C164.075 35.0265 166.508 34.0748 167.092 33.8979C168.323 33.5258 169.162 33.5569 169.771 34.2056C170.007 34.4569 169.995 34.8519 169.743 35.0877C169.508 35.3088 169.146 35.3116 168.907 35.104L168.861 35.0597C168.681 34.8683 168.31 34.8462 167.563 35.0604L167.454 35.0927C166.891 35.2628 164.253 36.298 163.912 36.4227C159.8 37.9235 158.406 38.4495 154.032 37.6506C149.698 36.8589 146.02 35.6737 143.951 31.6006C142.153 28.0606 141.519 24.026 142.221 20.7416C143.068 16.7718 144.637 13.7529 147.008 11.5582C148.863 9.8402 150.711 8.75345 152.564 8.43075Z" fill="#EDF3F5"/>
<path d="M181.923 58.0891C178.365 57.9072 175.564 60.655 175.534 64.3435C175.509 67.4512 177.26 70.0103 179.665 70.5061C180.637 70.7066 182.504 70.4654 183.889 69.6889C185.991 68.5612 187.599 66.2428 187.801 64.2676C188.132 61.0494 185.526 58.2733 181.923 58.0891Z" fill="#EDF3F5"/>
<path d="M117.454 57.4392C118.59 59.7344 120.355 65.0358 119.592 65.0103C117.472 64.9395 114.635 61.6811 112.651 57.2756L112.495 56.9212C110.762 52.9213 109.725 50.4083 110.93 49.9269C112.176 49.429 115.109 52.7021 117.454 57.4392Z" fill="#EDF3F5"/>
<path fill-rule="evenodd" clip-rule="evenodd" d="M110.93 49.8772C112.176 49.3793 115.152 52.5028 117.497 57.2399C118.634 59.5351 119.404 61.7369 119.606 63.3158C119.606 63.3158 115.768 55.2292 113.427 52.2673C112.528 51.1295 110.93 49.8772 110.93 49.8772Z" fill="#EDF3F5"/>
<path d="M110.276 70.2424C110.367 69.9101 110.711 69.7148 111.043 69.8062C111.376 69.8976 111.571 70.2411 111.48 70.5734C111.362 71.0009 109.709 72.1222 106.102 74.3456L103.825 75.7389C99.3308 78.475 96.3318 80.2258 95.9568 80.2258C93.4753 80.2258 91.2392 77.8848 89.6066 74.191C88.1812 70.9659 87.4411 67.1268 87.7753 64.611C87.8796 63.8258 90.4957 61.7931 94.5351 59.0698L95.1137 58.682C98.6873 56.3013 101.742 54.5357 102.847 54.3127C103.185 54.2446 103.514 54.4632 103.582 54.8011C103.625 55.0124 93.7745 63.3154 92.8123 68.8263C92.1608 72.5576 94.6238 78.9175 95.8464 78.975L95.9568 78.9776C95.8575 78.9776 95.8893 78.9544 95.901 78.9479L96.0135 78.8899C96.0964 78.8464 96.1948 78.7933 96.3081 78.7311L96.8275 78.4406C97.026 78.328 97.2475 78.2012 97.4896 78.0614L98.109 77.7016C99.2916 77.0112 100.767 76.1322 102.272 75.2217L103.703 74.3514C105.444 73.288 107.016 72.3075 108.198 71.546L108.807 71.1505C109.184 70.9031 109.503 70.689 109.757 70.5116L109.85 70.4468C109.99 70.3478 110.107 70.2626 110.198 70.1927C110.198 70.1927 110.301 70.1519 110.276 70.2424Z" fill="#EDF3F5"/>
<path fill-rule="evenodd" clip-rule="evenodd" d="M111.513 57.7881C110.005 54.4397 109.339 51.3711 109.844 49.5131C108.931 49.803 107.791 50.3242 106.658 50.9738C105.153 51.8373 103.959 52.8025 103.931 53.012C103.64 55.2023 104.756 59.4632 106.612 63.2619C108.597 67.3252 110.958 69.9351 112.786 69.9351C112.961 69.9351 113.462 69.8319 113.964 69.6565C114.678 69.407 115.347 69.0435 115.895 68.5674C116.168 68.3307 116.45 68.0631 116.744 67.7644L117.099 67.3976C117.309 67.1762 117.525 66.9378 117.862 66.5601L118.332 66.0356L118.352 66.0135C116 65.1542 113.541 62.1252 111.701 58.1974L111.513 57.7881ZM102.693 52.8477C102.888 51.3866 108.358 48.2283 110.854 48.0242C110.959 47.9587 111.07 47.902 111.189 47.8544C113.351 46.9905 116.646 50.691 119.288 55.8977L119.469 56.2592C120.662 58.6681 121.476 60.9924 121.697 62.731C121.962 64.8087 121.361 66.1861 119.783 66.2567C119.741 66.4204 119.634 66.5572 119.492 66.6397L119.468 66.6522L119.407 66.7137C119.345 66.7772 119.272 66.8561 119.159 66.9811L118.384 67.8466C118.103 68.1568 117.903 68.3671 117.633 68.641C117.317 68.9611 117.012 69.2503 116.714 69.5097C115.506 70.5592 113.72 71.1833 112.786 71.1833C112.291 71.1833 111.791 71.0681 111.289 70.8484C110.754 71.4073 109.105 72.4945 106.102 74.3458L103.825 75.7391C99.3308 78.4752 96.3318 80.2259 95.9568 80.2259C95.1069 80.2259 94.2859 79.9514 93.508 79.4419C93.5008 79.4469 93.4934 79.4518 93.486 79.4566L93.1682 79.6611C92.063 80.3775 90.2959 81.569 88.6566 82.6744L88.6551 82.6754L88.6545 82.6758L88.654 82.6761L88.552 82.7449C88.7643 84.2605 89.2469 85.78 90.0019 87.3051C92.6823 86.4762 94.8055 86.1962 95.4181 86.8196C96.0581 87.4707 96.6285 88.6499 97.1692 90.3796C97.272 90.7085 97.0887 91.0586 96.7597 91.1614C96.4307 91.2642 96.0807 91.0809 95.9779 90.7519C95.5103 89.2561 95.0332 88.2494 94.582 87.7517L94.5634 87.7323L94.5473 87.7331C94.4618 87.7156 94.3338 87.7069 94.1706 87.71C93.8109 87.7169 93.3194 87.7804 92.7323 87.8967C91.5246 88.136 89.998 88.5811 88.4821 89.1402C85.0168 90.4185 82.3424 92.0025 81.7927 93.2029C81.6319 93.5541 81.6524 94.0683 81.8448 94.8556L81.8805 94.9974C81.9094 95.1089 81.9395 95.2195 81.979 95.3594L82.2044 96.1569L82.2199 96.2156L82.2347 96.2725C82.3213 96.6061 82.121 96.9467 81.7874 97.0333C81.4538 97.1199 81.1131 96.9197 81.0265 96.5861L80.9157 96.1825L80.7311 95.5311C80.71 95.4541 80.691 95.3829 80.6723 95.3107C80.3799 94.1831 80.3329 93.393 80.6579 92.6832C81.2089 91.4798 82.9327 90.2333 85.3329 89.0999L84.8109 87.7513L84.6819 87.4103C84.4843 86.8785 84.2542 86.1576 84.1131 85.6315C82.238 86.6422 80.932 86.8111 79.6236 86.0985L79.5218 86.0413C79.263 85.8914 79.0138 85.7188 78.7622 85.5084L71.4479 89.9509C71.5158 90.0975 71.5845 90.2452 71.6539 90.3941C71.982 91.0979 71.4032 91.5962 70.5154 91.984L70.4197 92.0247C69.6566 92.3408 68.968 92.4133 68.558 91.9633C66.8571 90.0964 65.0566 85.6307 66.0252 84.6093C66.2112 84.4132 66.7022 84.1212 67.6309 83.6341L67.7048 83.5957C67.7238 83.5825 67.7436 83.5703 67.7644 83.559L74.6017 79.8547C74.6174 79.8462 74.6332 79.8385 74.6493 79.8314C74.227 79.1332 73.764 78.3557 73.2523 77.4883C73.1744 77.3624 73.1456 77.2153 73.1653 77.0739C73.1778 76.984 73.2099 76.8965 73.2614 76.8181C73.2897 76.7749 73.3237 76.7348 73.3629 76.6991C74.7686 75.366 76.684 73.976 79.0867 72.4793L79.378 72.2988C80.4179 71.6576 82.527 70.4547 84.3188 69.4327L84.3188 69.4327C85.7086 68.6401 86.9074 67.9563 87.2685 67.7279L87.3559 67.6699C87.4865 67.5744 87.6418 67.537 87.7909 67.553C87.6722 66.4705 87.6619 65.4647 87.7753 64.6111C87.8796 63.8259 90.4957 61.7932 94.5351 59.0699L95.1137 58.6822C98.4993 56.4267 101.419 54.7233 102.657 54.3607C102.623 53.8019 102.634 53.2928 102.693 52.8477ZM102.793 55.6263C101.581 56.0694 98.5453 57.8717 95.2329 60.1049L94.7024 60.4647C93.2116 61.4818 91.8345 62.4735 90.7943 63.2818L90.5053 63.5085C90.0411 63.8764 89.6654 64.1933 89.3931 64.4475C89.2565 64.575 89.1488 64.6841 89.0728 64.771L89.0197 64.8336C89.0081 64.8456 89.0051 64.841 89.0094 64.8017L89.0126 64.7755C89.0113 64.7855 89.0102 64.7942 89.0094 64.8017L88.9928 64.9356C88.3928 70.2024 92.2011 78.8037 95.8464 78.9752L95.9321 78.9772C95.9393 78.9776 95.9475 78.9778 95.9568 78.9778L95.9321 78.9772C95.8633 78.9736 95.8904 78.954 95.901 78.948L96.0135 78.89C96.0964 78.8465 96.1948 78.7935 96.3081 78.7312L96.8274 78.4408C97.026 78.3282 97.2475 78.2014 97.4896 78.0615L98.109 77.7018C99.2915 77.0114 100.767 76.1324 102.272 75.2218L103.703 74.3516C105.444 73.2881 107.016 72.3076 108.198 71.5462L108.807 71.1506C109.184 70.9032 109.503 70.6892 109.757 70.5118L109.85 70.4469C109.985 70.3519 110.098 70.2695 110.187 70.2012C108.58 69.0216 106.997 66.8429 105.592 64.015L105.491 63.8098C104.136 61.0374 103.157 58.0352 102.793 55.6263ZM87.9631 68.763C87.5127 69.0465 86.1844 69.805 84.7064 70.649L84.7062 70.649L84.7059 70.6492C82.9547 71.6492 80.9933 72.7692 80.033 73.3612C77.7648 74.7596 75.9356 76.0559 74.5776 77.2764L75.0274 78.0351C76.9956 81.3373 78.1352 83.075 79.052 84.0567C78.7474 83.3344 78.5896 82.4176 78.5896 81.2679C78.5896 81.2149 78.5962 81.1635 78.6087 81.1144C78.5481 80.8753 78.6333 80.6128 78.8443 80.4578L79.2694 80.1419C79.5238 79.9497 79.9418 79.6302 80.4173 79.2668L80.4206 79.2643L80.4208 79.2641L80.4209 79.2641L80.421 79.264C81.4648 78.4663 82.7835 77.4586 83.254 77.1215C84.7341 76.0614 85.8249 75.4665 86.8183 75.26C87.2927 75.1614 87.6613 75.4421 87.7682 75.8768L87.7856 75.9559C87.8105 76.0852 87.8152 76.2125 87.8145 76.4904L87.8142 76.5784C87.8091 77.617 87.912 78.2163 88.3518 78.9085C88.6528 79.3822 89.095 79.8145 89.7112 80.2016C89.7757 80.2421 89.8302 80.2925 89.874 80.3495C90.8681 79.6819 91.7992 79.0611 92.4861 78.6158C91.4037 77.568 90.4286 76.0511 89.6066 74.1912C88.841 72.4589 88.2731 70.5494 87.9631 68.763ZM120.459 62.8889C120.258 61.31 119.487 59.1082 118.351 56.813C116.005 52.0759 112.899 48.5155 111.653 49.0134C110.448 49.4948 110.762 52.9213 112.495 56.9212L112.651 57.2756C114.635 61.6811 117.472 64.9395 119.592 65.0103C120.355 65.0358 120.653 64.4125 120.459 62.8889ZM75.2941 80.8866C76.3768 82.6371 77.1678 83.7935 77.8569 84.5979L70.9228 88.8095C70.2126 87.2523 69.5772 85.8029 68.9606 84.3305L75.1963 80.9522C75.2315 80.9331 75.2642 80.9111 75.2941 80.8866ZM88.805 87.6987C88.1321 86.3071 87.6673 84.9116 87.4119 83.5131C86.5159 84.1161 85.7361 84.6381 85.2349 84.9638C85.3208 85.3943 85.6399 86.4164 85.9148 87.143L86.4269 88.4614L86.4757 88.5901C86.9791 88.3776 87.5051 88.1703 88.0502 87.9692L88.4105 87.8381C88.5428 87.7906 88.6744 87.7441 88.805 87.6987ZM88.7826 81.0839C88.1435 80.6407 87.6533 80.1366 87.2983 79.5778C86.7236 78.6733 86.5727 77.9009 86.5661 76.7339L86.5658 76.6294L86.4775 76.6625C85.8447 76.9081 85.0896 77.3524 84.1408 78.0225L83.9809 78.1362C83.5295 78.4596 82.2455 79.4407 81.209 80.2328L81.2087 80.233L81.2082 80.2334L81.2072 80.2342L81.2066 80.2347L81.2059 80.2352L81.2048 80.236C80.629 80.676 80.13 81.0573 79.8935 81.2344L79.8378 81.2755C79.8391 83.3518 80.3573 84.3045 81.3212 84.7667L81.3983 84.8022C81.6281 84.9038 81.792 84.955 82.2604 85.0832C82.2697 85.0858 82.2789 85.0885 82.288 85.0915C82.7741 84.9281 83.3311 84.6551 83.9964 84.265L84.2443 84.1162C84.7938 83.7737 86.2685 82.7791 87.8908 81.6851L88.7826 81.0839ZM67.8576 84.9275L67.9533 85.1552C68.6161 86.7268 69.3049 88.2832 70.0866 89.9806L70.3906 90.6392C70.291 90.7062 70.1599 90.7772 70.0158 90.8402C69.8089 90.9305 69.5989 90.994 69.441 91.0152L69.3906 91.0203L69.3147 90.9292C68.7239 90.2018 68.0382 88.966 67.5427 87.7371C67.2788 87.0826 67.0909 86.4822 67.0061 86.0209C66.9716 85.833 66.9556 85.6752 66.957 85.5554L66.9606 85.4765C66.9619 85.4573 66.9619 85.4473 66.9572 85.4459L66.9758 85.4333C67.0813 85.3605 67.3509 85.2028 67.7513 84.9852L67.8576 84.9275ZM76.4665 83.5525C76.2251 83.3065 75.83 83.3027 75.584 83.544C75.1512 83.9686 74.5446 84.3639 73.4853 84.9521L72.4073 85.5503C72.1225 85.7126 71.8893 85.8525 71.6781 85.9895C71.5016 86.104 71.3439 86.2145 71.2021 86.324C70.9294 86.5348 70.8792 86.9267 71.0899 87.1994C71.3006 87.4722 71.6926 87.5224 71.9653 87.3117C72.0779 87.2247 72.208 87.1335 72.3573 87.0366C72.4952 86.9472 72.6467 86.8545 72.8221 86.7519L73.1657 86.5553L74.2609 85.9486C75.313 85.358 75.9469 84.9364 76.458 84.4351C76.7041 84.1937 76.7079 83.7986 76.4665 83.5525Z" fill="#00160A"/>
<path d="M62.5068 146.929C65.6277 164.329 77.3246 177.409 92.2506 180.493C94.9904 181.059 99.7346 181.134 104.647 180.498C110.977 179.679 117.137 177.8 122.555 174.754C137.437 166.755 148.73 150.431 150.194 136.141C151.479 123.589 146.684 111.993 138.003 103.72C138.003 103.72 110.732 117.115 97.3454 124.728C85.6966 131.353 62.5068 146.929 62.5068 146.929Z" fill="#EDF3F5"/>
<path d="M126.016 95.0407C120.422 92.2809 113.414 90.1009 106.542 89.7495C81.3378 88.4608 61.515 108.596 61.3083 134.566C61.3083 134.566 89.439 116.648 104.053 108.003C111.324 103.702 126.016 95.0407 126.016 95.0407Z" fill="#EDF3F5"/>
<path fill-rule="evenodd" clip-rule="evenodd" d="M177.858 81.8051C177.773 86.1442 173.182 93.3661 165.801 101.539C160.455 107.459 154.233 113.181 149.017 117.037L148.692 117.275L148.907 118.233C150.176 123.793 151.832 129.836 151.206 135.931C149.688 150.724 138.117 167.413 122.827 175.613C117.25 178.742 110.911 180.671 104.409 181.511L103.789 181.587C98.9407 182.158 94.3012 182.064 91.4659 181.479C80.4609 179.21 71.1439 171.517 65.5109 160.384C65.492 160.346 65.4772 160.308 65.4663 160.269C64.7247 160.692 63.727 161.165 63.2713 161.319L62.0229 161.741C48.5691 166.266 35.2312 170.052 29.7824 167.689C27.7082 166.79 26.9992 165.06 27.8667 162.736C28.7097 160.477 31.0472 157.567 34.9689 153.945L35.1844 153.746C38.9005 150.34 47.153 144.115 59.9418 135.072L59.9451 134.906C60.5691 108.111 81.3828 87.6836 107.545 89.3511C115.547 89.8612 121.92 92.7049 125.103 94.451L126.503 93.6999C139.631 86.68 150.165 81.7455 158.203 78.792C171.42 73.9349 177.957 76.2058 177.858 81.8051ZM158.633 81.6703C143.853 87.1015 120.496 99.3163 87.9746 118.965L86.9863 119.563C61.663 134.892 44.8945 146.538 36.0278 154.666L35.5908 155.07L35.1765 155.458C28.5205 161.747 27.3407 165.27 30.279 166.544C35.309 168.726 48.8168 165.048 62.045 160.709L63.2713 160.305C64.451 159.914 65.2333 159.69 65.7176 159.586C65.7386 159.571 65.7617 159.557 65.786 159.545C65.9515 159.461 66.1366 159.458 66.2966 159.521C66.3313 159.528 66.3539 159.539 66.3657 159.554C66.4735 159.612 66.5651 159.703 66.6246 159.82C72.0929 170.629 81.1037 177.215 91.7179 179.403C94.4732 179.971 99.1217 180.055 103.959 179.456L104.249 179.42C110.602 178.599 116.789 177.569 122.226 174.519C137.168 166.506 148.489 150.177 149.965 135.804C150.595 129.661 149.791 123.631 147.651 118.019C147.475 118.143 147.3 118.264 147.126 118.382C146.797 118.606 146.92 118.244 147.494 117.294C147.524 117.17 147.592 117.057 147.691 116.973L147.867 116.693C147.929 116.595 147.994 116.494 148.062 116.388L148.802 115.764C155.774 109.868 161.131 104.847 164.875 100.702L165.302 100.226C172.229 92.4748 176.534 85.6279 176.606 81.782C176.683 77.5631 171.117 77.0827 158.633 81.6703ZM95.9648 160.595C97.6394 165.713 95.1062 169.005 90.6469 169.175C86.5267 169.332 82.7747 166.736 82.9659 163.046C83.1312 159.858 85.3145 156.449 88.0024 155.197C91.2532 153.683 94.3042 155.52 95.9648 160.595ZM88.661 156.612C86.5101 157.613 84.6601 160.502 84.524 163.127C84.3885 165.742 87.2789 167.742 90.5874 167.616C94.0465 167.484 95.8222 165.176 94.482 161.08C93.0866 156.816 90.965 155.539 88.661 156.612ZM130.01 150.166C132.147 154.204 131.587 158.17 128.302 159.948L128.21 159.996L128.162 160.044C123.757 164.406 118.253 164.936 114.664 161.773L114.541 161.663C110.407 157.876 111.392 151.369 117.97 146.269C122.204 142.986 127.375 145.187 130.01 150.166ZM118.79 147.325C112.817 151.956 111.978 157.501 115.444 160.677C117.93 162.954 121.604 163.08 125.035 160.87L125.102 160.825L125.077 160.82C124.839 160.757 124.648 160.566 124.594 160.316L124.584 160.252C124.54 159.886 124.802 159.553 125.169 159.51C126.008 159.41 126.736 159.208 127.353 158.918L127.437 158.877L127.54 158.771C127.942 158.347 128.335 157.886 128.716 157.387L128.843 157.22C128.986 157.028 129.212 156.935 129.433 156.953L129.451 156.955L129.46 156.938C130.261 155.355 130.071 153.21 128.898 150.926L128.828 150.792C126.537 146.462 122.254 144.639 118.79 147.325ZM158.559 99.3359C158.215 100.557 157.169 102.232 155.566 104.217C152.771 107.676 148.572 111.702 144.902 114.455L145.716 113.56V113.56C145.708 113.552 145.701 113.543 145.695 113.532L145.414 113.016C143.578 109.664 141.532 106.357 138.225 103.661C129.666 107.19 119.851 112.014 110.91 117.058L107.979 118.715C86.3958 130.941 75.0405 138.261 62.8976 147.259C63.356 149.323 63.9335 151.337 64.6251 153.288C64.7337 153.595 63.3156 154.741 63.056 154.599C60.6336 156.222 56.8404 157.401 54.6808 157.463C52.5761 157.522 51.3602 156.67 51.9866 154.972C52.5106 153.55 54.4846 151.524 58.037 148.807L58.442 148.5L59.2608 147.885C72.6304 137.875 85.8659 129.753 110.296 115.971L111.319 115.397C128.075 106.044 147.479 97.6179 156.366 96.8403C158.193 96.6805 159.022 97.6915 158.559 99.3359ZM61.2718 148.47L58.4706 150.583C55.9718 152.478 54.1702 153.88 53.197 154.779L53.1256 154.845C51.9378 155.959 53.2823 156.254 54.6454 156.215C56.7102 156.156 59.8734 154.591 62.5508 153.166C62.0559 151.633 61.629 150.065 61.2718 148.47ZM105.088 141.693C105.422 141.778 105.624 142.118 105.539 142.452C105.454 142.786 105.115 142.988 104.781 142.903C103.102 142.477 102.111 142.641 101.789 143.092C101.576 143.392 101.694 143.904 102.093 144.23C102.405 144.485 102.82 144.607 103.106 144.545C103.354 144.491 103.493 144.299 103.493 143.82C103.493 143.475 103.773 143.196 104.117 143.196C104.462 143.196 104.742 143.475 104.742 143.82C104.742 144.862 104.22 145.58 103.371 145.764C102.689 145.913 101.894 145.679 101.303 145.196C100.43 144.482 100.145 143.25 100.772 142.369C101.46 141.403 102.966 141.155 105.088 141.693ZM77.6736 139.402C78.6361 139.69 79.0506 140.43 79.1814 141.538L79.1944 141.659L79.2102 141.841C79.2124 141.871 79.2146 141.903 79.2167 141.936L79.2494 142.569L79.2593 142.712C79.2644 142.775 79.2699 142.826 79.2764 142.872L79.293 142.967L79.3031 143.009L79.3205 143.025C79.5132 143.213 79.5643 143.509 79.4398 143.753L79.4079 143.808C79.221 144.098 78.8348 144.181 78.5451 143.995C78.1466 143.738 78.056 143.473 78.0077 142.714L77.9681 141.971C77.9635 141.904 77.9585 141.846 77.9521 141.78C77.8811 141.053 77.7039 140.714 77.3155 140.598C76.2254 140.271 75.5997 140.605 75.4016 141.333C75.2251 141.983 75.4805 142.665 75.9278 142.855L76.0411 142.897C76.3334 143.022 76.4882 143.351 76.3897 143.66C76.285 143.988 75.9339 144.169 75.6055 144.065C74.4171 143.686 73.8524 142.274 74.1972 141.006C74.582 139.59 75.9205 138.877 77.6736 139.402ZM122.699 129.846C124.427 132.276 124.106 135.367 121.333 136.766C121.026 136.921 120.65 136.798 120.495 136.49C120.34 136.182 120.463 135.807 120.771 135.652C122.779 134.639 123.008 132.433 121.682 130.569C120.394 128.759 118.601 128.56 117.369 130.516C116.063 132.59 116.158 133.808 117.098 134.356C117.845 134.792 119.047 134.7 119.378 134.344L119.41 134.305C119.609 134.024 119.999 133.959 120.28 134.159C120.561 134.359 120.626 134.748 120.426 135.029C119.733 136.004 117.753 136.183 116.47 135.434C114.827 134.477 114.67 132.46 116.313 129.851C118.072 127.057 120.942 127.376 122.699 129.846ZM96.8244 126.268C97.1488 126.268 97.4154 126.515 97.4456 126.831L97.4485 126.892C97.4485 127.001 97.5506 127.124 97.9169 127.393L98.2634 127.641C98.6412 127.917 98.8234 128.088 98.9955 128.36C99.3889 128.982 99.612 129.616 99.612 130.361C99.612 132.268 96.7467 134.862 93.6191 136.016C89.8698 137.4 86.7981 136.374 85.9622 132.527C85.889 132.19 86.1027 131.858 86.4395 131.784C86.7764 131.711 87.1087 131.925 87.1819 132.262C87.8306 135.248 90.0703 135.996 93.1869 134.846C95.8782 133.852 98.3639 131.602 98.3639 130.361C98.3639 129.88 98.2177 129.465 97.9405 129.027L97.903 128.974C97.8394 128.894 97.7401 128.807 97.5612 128.675L97.1495 128.378C96.4653 127.874 96.2003 127.533 96.2003 126.892C96.2003 126.547 96.4798 126.268 96.8244 126.268ZM99.754 91.6767L99.3598 91.721C78.0639 94.2821 62.088 111.315 61.2166 134.172L63.5017 132.564C70.0602 127.961 77.6729 122.702 86.3399 116.788L88.0287 115.768C93.0705 112.726 97.8912 109.863 102.493 107.178C102.409 107.03 102.386 106.85 102.442 106.676C102.764 105.694 103.062 105.034 103.606 104.373C105.312 102.304 107.648 101.294 109.303 102.593C109.466 102.721 109.548 102.913 109.541 103.106L111.012 102.267C115.641 99.6314 120.022 97.1973 124.157 94.9613L122.542 94.5019C120.147 93.8277 117.167 93.0283 114.2 92.4128C114.227 94.3877 112.748 95.9648 110.292 97.0495C108.204 97.9716 105.484 98.4677 103.549 98.3524C99.9303 98.1366 97.8933 94.9624 99.754 91.6767ZM137.111 118.779C138.638 122.952 137.378 126.746 133.565 126.721C128.131 126.686 122.826 121.942 123.684 117.692C124.066 115.796 125.491 114.119 127.97 113.282C131.928 111.945 135.556 114.532 137.111 118.779ZM128.369 114.464C126.321 115.156 125.203 116.471 124.907 117.939C124.226 121.312 128.846 125.442 133.573 125.473C136.281 125.491 137.212 122.687 135.939 119.208C134.591 115.528 131.58 113.38 128.369 114.464ZM82.4792 99.6903L82.5237 99.7546L82.824 100.232C82.9712 100.475 83.1029 100.713 83.2284 100.969C84.6106 103.795 84.5749 107.5 82.2358 112.643C81.1761 114.972 78.4766 118.103 76.1192 119.972C73.1091 122.357 70.8617 122.899 68.1791 122.605L67.3832 122.511L67.2861 122.502C67.2329 122.498 67.1989 122.498 67.1615 122.499L67.1069 122.501C67.0654 122.503 67.051 122.501 67.0486 122.496L67.0484 122.492L67.0284 122.524C66.8475 122.784 66.4959 122.869 66.2135 122.712C65.9123 122.544 65.8039 122.164 65.9715 121.863C66.1958 121.46 66.5707 121.277 67.0478 121.255C67.1742 121.249 67.3079 121.253 67.467 121.266L67.6531 121.284L68.1679 121.347C70.6114 121.643 72.5554 121.203 75.344 118.993C77.5582 117.238 80.1318 114.253 81.0996 112.126C83.2886 107.313 83.3205 103.998 82.1071 101.518C82.0263 101.352 81.9421 101.195 81.8507 101.038L81.7201 100.819L81.4584 100.406C81.2753 100.114 81.3636 99.7286 81.6556 99.5455C81.9293 99.3738 82.2849 99.4406 82.4792 99.6903ZM156.475 98.0838C152.485 98.4328 146.231 100.404 139.021 103.335L139.231 103.522C141.238 105.322 145.287 109.591 146.554 112.636L147.816 111.236C150.931 107.772 153.19 105.171 154.595 103.432L154.88 103.076C156.222 101.372 157.09 99.9478 157.357 98.9978L157.395 98.8536C157.562 98.1678 157.369 98.0055 156.475 98.0838ZM96.7176 100.111C98.2708 100.862 98.9012 102.534 97.8793 104.05C97.6867 104.335 97.2988 104.411 97.013 104.218C96.7272 104.026 96.6517 103.638 96.8444 103.352C97.4065 102.518 97.0894 101.677 96.1742 101.235C95.2106 100.769 94.1547 101.037 93.6097 102.054C93.1076 102.991 93.0731 104.26 93.474 105.091C93.826 105.821 94.3382 105.96 95.1199 105.372C95.3952 105.165 95.7865 105.22 95.9938 105.495C96.2011 105.771 96.1459 106.162 95.8705 106.369C94.4463 107.441 93.0364 107.057 92.3498 105.633C91.7743 104.44 91.8202 102.751 92.5095 101.464C93.3888 99.8233 95.1814 99.3684 96.7176 100.111ZM104.57 105.167C104.279 105.52 104.071 105.892 103.878 106.37C105.486 105.436 107.067 104.523 108.621 103.632L108.576 103.606V103.606L108.532 103.575C107.579 102.827 105.899 103.553 104.57 105.167ZM101.908 91.4858L101.362 91.5241L101.326 91.5702C99.1684 94.2966 99.9993 96.5096 102.946 96.8238C105.062 97.0495 110.679 95.4796 111.338 94.9287C111.979 94.392 112.791 93.1578 112.916 92.1581C111.01 91.7996 109.145 91.536 107.481 91.451C105.781 91.3641 104.105 91.3662 102.457 91.4535L101.908 91.4858Z" fill="#00160A"/>
<path d="M158.255 81.825C171.472 76.9679 171.169 78.4089 158.685 82.9966C143.905 88.4277 88.1157 122.459 88.1157 122.459C62.7924 137.789 60.898 135.422 85.443 120.505L86.956 119.587C87.241 119.415 115.186 101.778 135.154 92.342C137.401 91.2802 156.75 82.378 158.255 81.825Z" fill="#EDF3F5"/>
<path fill-rule="evenodd" clip-rule="evenodd" d="M181.077 57.6445C176.981 57.4351 173.784 60.6179 173.751 64.7822C173.723 68.2713 175.725 71.2338 178.593 71.8251C179.349 71.9809 181.528 71.9809 183.419 70.9204L183.575 70.8341C185.959 69.4844 187.58 66.9167 187.797 64.8044C188.181 61.0595 185.173 57.8539 181.077 57.6445ZM174.643 64.7893C174.643 64.7624 174.643 64.7356 174.644 64.7088C174.669 64.7006 174.694 64.69 174.719 64.6768C177.93 62.947 179.912 61.6288 180.704 60.677C181.226 60.0485 181.481 59.3397 181.461 58.5695C182 58.6291 182.514 58.7474 182.996 58.9168C182.993 58.9399 182.992 58.9635 182.992 58.9875C183.032 60.0959 182.736 60.982 182.108 61.6718C181.386 62.4647 180.512 63.2192 179.517 63.9307C178.454 64.6913 177.313 65.363 176.171 65.9381C175.905 66.0722 175.652 66.1946 175.414 66.3048L175.069 66.4611C175.02 66.483 174.974 66.5031 174.932 66.5214L174.829 66.5645C174.703 66.0023 174.638 65.4066 174.643 64.7893ZM175.08 67.4263C175.362 68.2092 175.771 68.903 176.277 69.468L176.544 69.3148C180.734 66.8887 183.336 64.9828 184.32 63.6384C185.316 62.2789 185.671 61.2352 185.448 60.5254C185.443 60.5087 185.438 60.4919 185.435 60.4752C184.997 60.0147 184.475 59.6189 183.886 59.3065C183.861 60.4847 183.489 61.4798 182.767 62.2721C182 63.1151 181.078 63.9098 180.036 64.6557C178.932 65.4455 177.752 66.1399 176.572 66.7343C176.228 66.9077 175.904 67.0622 175.606 67.1974L175.259 67.3513L175.08 67.4263ZM178.417 70.8622C177.891 70.7048 177.4 70.4465 176.959 70.1046C181.273 67.6095 183.957 65.6435 185.039 64.1651C185.711 63.248 186.141 62.4232 186.315 61.6873C186.532 62.0925 186.696 62.5245 186.802 62.9758C186.779 63.0218 186.764 63.0725 186.759 63.1264C186.65 64.1686 186.113 65.203 185.131 66.2332C184.188 67.2218 182.154 68.6484 179.045 70.4927L178.417 70.8622ZM179.924 71.0064C180.881 70.9456 182.052 70.665 182.997 70.1347C184.756 69.1914 186.168 67.4149 186.702 65.7031C186.444 66.0897 186.135 66.4715 185.776 66.8484C184.808 67.8636 182.862 69.2438 179.924 71.0064ZM174.902 63.5622L174.744 63.6485C175.249 60.7027 177.603 58.5889 180.567 58.5277C180.598 59.1065 180.418 59.6259 180.018 60.107C179.372 60.8846 177.656 62.0486 174.902 63.5622Z" fill="#00160A"/>
<path fill-rule="evenodd" clip-rule="evenodd" d="M213.259 49.1025C213.342 49.1121 213.4 49.1873 213.391 49.2699C213.39 49.3916 213.312 49.4573 213.207 49.5001C213.112 49.5381 212.96 49.5235 212.872 49.5355C211.907 49.61 211.148 48.8996 210.814 47.9841C210.494 47.1045 210.579 46.0529 211.161 45.4042C211.228 45.3278 211.344 45.3201 211.421 45.3871C211.497 45.4541 211.931 45.5706 211.864 45.647C211.384 46.2073 211.06 46.5473 211.512 47.8772C211.965 49.2071 213.197 49.0954 213.259 49.1025Z" fill="#EDF3F5"/>
<path fill-rule="evenodd" clip-rule="evenodd" d="M59.5498 58.6243C59.2961 58.4501 58.9492 58.5145 58.775 58.7682C58.6008 59.0219 58.6653 59.3688 58.919 59.543C59.1977 59.7344 59.444 59.911 59.6614 60.0752C59.4272 60.2615 59.1934 60.4749 58.9504 60.7178L58.4576 61.2183C58.241 61.4369 58.2425 61.7897 58.4611 62.0063C58.6797 62.223 59.0325 62.2214 59.2491 62.0029L59.8403 61.4052C60.081 61.1709 60.3065 60.9749 60.5333 60.8121C61.0371 61.3115 61.1905 61.6778 61.1988 62.0419L61.1988 62.1352L61.2017 62.1922C61.2302 62.4732 61.4675 62.6925 61.756 62.6925C62.0637 62.6925 62.3132 62.443 62.3132 62.1352L62.3131 62.0257C62.3028 61.4581 62.1024 60.9182 61.5631 60.3012C61.9194 60.1951 62.3207 60.1357 62.8075 60.1102C63.1148 60.0942 63.351 59.832 63.3349 59.5247C63.3189 59.2174 63.0567 58.9813 62.7494 58.9973C61.9043 59.0415 61.2475 59.1823 60.6624 59.45C60.4182 59.2503 60.1414 59.0407 59.8287 58.8189L59.5498 58.6243Z" fill="#00160A"/>
<path fill-rule="evenodd" clip-rule="evenodd" d="M143.043 180.723L143.429 180.725C145.59 180.745 147.278 180.94 150.458 181.45C150.822 181.509 151.07 181.852 151.012 182.216C150.953 182.581 150.61 182.829 150.246 182.771L149.204 182.607C146.573 182.203 145.057 182.06 143.043 182.06C136.055 182.06 131.594 186.435 132.349 193.144C132.39 193.511 132.126 193.842 131.759 193.883C131.392 193.924 131.061 193.66 131.02 193.293C130.171 185.748 135.295 180.723 143.043 180.723ZM148.455 183.423L148.39 183.366C148.327 183.312 148.23 183.319 148.177 183.383C148.122 183.446 148.13 183.541 148.193 183.595L148.26 183.652C148.323 183.707 148.418 183.699 148.473 183.636C148.526 183.573 148.52 183.477 148.455 183.423ZM136.338 184.821C136.098 184.629 135.747 184.667 135.555 184.907C134.776 185.875 134.209 186.819 133.855 187.74C133.511 188.636 133.393 190.142 133.483 192.295L133.504 192.749C133.52 193.057 133.783 193.293 134.09 193.277C134.397 193.26 134.633 192.998 134.617 192.691C134.499 190.442 134.6 188.91 134.895 188.14C135.205 187.334 135.713 186.488 136.423 185.605C136.616 185.365 136.578 185.014 136.338 184.821ZM142.419 182.978C142.692 182.836 143.029 182.943 143.17 183.216C143.312 183.49 143.205 183.826 142.932 183.967C141.8 184.554 140.936 185.536 140.333 186.938C139.687 188.442 139.158 189.784 138.746 190.963C138.645 191.253 138.327 191.407 138.037 191.305C137.746 191.204 137.593 190.886 137.694 190.596C138.115 189.39 138.653 188.024 139.309 186.498C140.01 184.869 141.048 183.688 142.419 182.978ZM145.659 182.949C145.456 182.717 145.104 182.694 144.872 182.897C143.942 183.712 143.228 184.453 142.728 185.125C142.231 185.792 141.649 186.79 140.976 188.125C140.838 188.4 140.948 188.735 141.223 188.874C141.498 189.012 141.833 188.902 141.972 188.627C142.618 187.344 143.17 186.397 143.622 185.79C144.069 185.189 144.731 184.502 145.607 183.735C145.838 183.532 145.861 183.18 145.659 182.949ZM143.624 189.241C143.393 189.444 143.041 189.421 142.838 189.189C142.635 188.958 142.658 188.606 142.89 188.403C143.765 187.636 144.427 186.949 144.875 186.348C145.326 185.741 145.878 184.794 146.525 183.511C146.663 183.236 146.999 183.126 147.273 183.264C147.548 183.403 147.659 183.738 147.52 184.013C146.847 185.348 146.266 186.346 145.769 187.013C145.269 187.685 144.554 188.426 143.624 189.241ZM139.405 183.432C139.152 183.257 138.805 183.321 138.63 183.574C137.385 185.378 136.589 186.726 136.237 187.642C135.884 188.561 135.64 189.799 135.499 191.365C135.471 191.671 135.697 191.942 136.004 191.97C136.31 191.998 136.581 191.772 136.609 191.465C136.742 189.994 136.967 188.85 137.278 188.041C137.567 187.288 138.242 186.125 139.297 184.573L139.547 184.207C139.722 183.954 139.659 183.607 139.405 183.432Z" fill="#00160A"/>
<path fill-rule="evenodd" clip-rule="evenodd" d="M128.828 180.146L129.212 180.999L130.087 181.25C130.134 181.264 130.162 181.313 130.148 181.361C130.144 181.375 130.136 181.389 130.125 181.399L129.46 182.061L129.497 183.014C129.499 183.063 129.461 183.105 129.412 183.107C129.395 183.107 129.379 183.103 129.364 183.095L128.611 182.666C128.588 182.653 128.559 182.651 128.534 182.661L127.729 182.981C127.683 182.999 127.631 182.976 127.613 182.931C127.607 182.915 127.605 182.898 127.608 182.882L127.778 181.944L127.211 181.195C127.182 181.156 127.189 181.1 127.229 181.071C127.241 181.061 127.255 181.056 127.27 181.053L128.172 180.926L128.671 180.135C128.697 180.093 128.752 180.081 128.794 180.107C128.809 180.116 128.82 180.13 128.828 180.146Z" fill="#00160A"/>
<path fill-rule="evenodd" clip-rule="evenodd" d="M159.834 60.6856C160.039 60.8675 160.295 61.1954 160.521 61.5504L160.811 61.4212L161.155 61.2739C161.224 61.2423 161.269 61.2176 161.283 61.1975C161.322 61.1237 161.414 61.0956 161.488 61.1348C161.561 61.1739 161.59 61.2654 161.551 61.3389C161.523 61.409 161.33 61.6285 160.972 61.8433C160.907 61.8822 160.835 61.9184 160.758 61.9537C160.89 62.2011 160.994 62.4402 161.043 62.6319C161.116 62.9145 161.058 63.1148 160.96 63.1852C160.865 63.2548 160.627 63.2678 160.264 62.9663C160.197 62.9154 160.186 62.8204 160.237 62.7543C160.288 62.6884 160.382 62.6763 160.449 62.7272C160.518 62.7781 160.588 62.807 160.644 62.8278L160.617 62.7196C160.606 62.681 160.593 62.6407 160.574 62.6013C160.509 62.459 160.427 62.2964 160.334 62.1295C160.05 62.2368 159.727 62.3341 159.378 62.3809C159.208 62.4038 159.034 62.4082 158.854 62.4067C158.751 62.4136 158.661 62.335 158.654 62.2312C158.647 62.1276 158.726 62.0378 158.829 62.031C159.249 61.9905 159.637 61.8845 159.98 61.7652L160.092 61.7248C159.907 61.435 159.708 61.1717 159.538 61.0232C159.446 60.9415 159.436 60.7996 159.517 60.7065C159.6 60.6131 159.741 60.6038 159.834 60.6856Z" fill="#00160A"/>
<path fill-rule="evenodd" clip-rule="evenodd" d="M37.1433 136.122C36.5605 136.16 35.6363 136.309 34.8809 136.608C34.2347 136.865 34.2347 143.841 36.4439 144.397C38.6405 145.13 41.0422 144.16 40.7555 140.427C40.7503 140.349 40.6871 140.136 40.6146 139.893C40.5085 139.536 40.3826 139.113 40.3902 138.948C40.42 138.362 40.266 137.868 39.8594 137.557C39.4215 136.629 38.5632 136.03 37.1433 136.122ZM36.827 142.699C35.7458 141.891 35.7837 138.12 37.0177 137.869C37.7857 138.459 38.4867 139.311 38.7232 140.954C38.4585 141.858 37.8999 142.381 37.4115 142.839C37.3592 142.888 37.3078 142.936 37.2576 142.984C37.1182 142.905 36.9745 142.808 36.827 142.699Z" fill="#EDF3F5"/>
<path fill-rule="evenodd" clip-rule="evenodd" d="M35.5141 140.501C35.416 139.914 35.4829 139.258 35.7778 138.557C35.9115 138.24 36.2631 137.981 36.7029 137.807C37.2171 137.604 37.8461 137.503 38.2427 137.477C39.209 137.415 39.793 137.82 40.0908 138.448C40.3673 138.657 40.472 138.991 40.4516 139.388C40.4428 139.576 40.6912 140.258 40.6997 140.388C40.8939 142.913 39.2591 143.569 37.7645 143.075C37.1966 143.363 36.6489 143.411 36.2367 143.105C35.867 142.831 35.5831 142.254 35.5181 141.236C35.5008 140.974 35.4994 140.729 35.5141 140.501ZM38.1651 138.838C37.3075 139.007 37.2717 141.482 38.0205 142.01C38.1227 142.081 38.2222 142.144 38.3188 142.196C38.6808 141.87 38.9508 141.606 39.1039 141.066C39.257 140.526 38.697 139.224 38.1651 138.838Z" fill="#FFEDC2"/>
<path fill-rule="evenodd" clip-rule="evenodd" d="M94.0364 202.329C93.7827 202.155 93.4358 202.219 93.2616 202.473C93.0874 202.727 93.1519 203.073 93.4056 203.248C93.6843 203.439 93.9306 203.616 94.1479 203.78C93.9138 203.966 93.68 204.179 93.437 204.422L92.9442 204.923C92.7275 205.141 92.7291 205.494 92.9477 205.711C93.1662 205.928 93.519 205.926 93.7357 205.707L94.3269 205.11C94.5675 204.876 94.793 204.68 95.0198 204.517C95.5237 205.016 95.6771 205.382 95.6853 205.746L95.6854 205.84L95.6882 205.897C95.7168 206.178 95.9541 206.397 96.2426 206.397C96.5503 206.397 96.7998 206.148 96.7998 205.84L96.7997 205.73C96.7893 205.163 96.589 204.623 96.0497 204.006C96.4059 203.9 96.8073 203.84 97.2941 203.815C97.6014 203.799 97.8375 203.537 97.8215 203.229C97.8054 202.922 97.5433 202.686 97.236 202.702C96.3908 202.746 95.7341 202.887 95.149 203.155C94.9048 202.955 94.628 202.745 94.3153 202.523L94.0364 202.329Z" fill="#00160A"/>
<path fill-rule="evenodd" clip-rule="evenodd" d="M94.0364 202.329C93.7827 202.155 93.4358 202.219 93.2616 202.473C93.0874 202.727 93.1519 203.073 93.4056 203.248C93.6843 203.439 93.9306 203.616 94.1479 203.78C93.9138 203.966 93.68 204.179 93.437 204.422L92.9442 204.923C92.7275 205.141 92.7291 205.494 92.9477 205.711C93.1662 205.928 93.519 205.926 93.7357 205.707L94.3269 205.11C94.5675 204.876 94.793 204.68 95.0198 204.517C95.5237 205.016 95.6771 205.382 95.6853 205.746L95.6854 205.84L95.6882 205.897C95.7168 206.178 95.9541 206.397 96.2426 206.397C96.5503 206.397 96.7998 206.148 96.7998 205.84L96.7997 205.73C96.7893 205.163 96.589 204.623 96.0497 204.006C96.4059 203.9 96.8073 203.84 97.2941 203.815C97.6014 203.799 97.8375 203.537 97.8215 203.229C97.8054 202.922 97.5433 202.686 97.236 202.702C96.3908 202.746 95.7341 202.887 95.149 203.155C94.9048 202.955 94.628 202.745 94.3153 202.523L94.0364 202.329Z" fill="#00160A"/>
<path fill-rule="evenodd" clip-rule="evenodd" d="M113.08 187.064L113.464 187.917L114.34 188.168C114.387 188.182 114.414 188.231 114.401 188.279C114.396 188.293 114.389 188.306 114.378 188.317L113.713 188.979L113.75 189.932C113.752 189.981 113.714 190.023 113.664 190.025C113.648 190.025 113.631 190.021 113.617 190.013L112.864 189.584C112.84 189.571 112.812 189.569 112.787 189.579L111.982 189.899C111.936 189.917 111.884 189.894 111.866 189.849C111.86 189.833 111.858 189.816 111.861 189.8L112.031 188.862L111.464 188.113C111.434 188.074 111.442 188.018 111.481 187.989C111.493 187.979 111.508 187.973 111.523 187.971L112.425 187.844L112.924 187.053C112.95 187.011 113.005 186.999 113.046 187.025C113.061 187.034 113.073 187.048 113.08 187.064Z" fill="#00160A"/>
<path fill-rule="evenodd" clip-rule="evenodd" d="M64.7729 181.2L65.4255 181.871L66.334 181.808C66.3831 181.804 66.4257 181.841 66.4291 181.89C66.4302 181.906 66.4273 181.921 66.4209 181.934L66.0224 182.784L66.3833 183.667C66.4019 183.712 66.3801 183.764 66.3345 183.783C66.3191 183.789 66.3022 183.791 66.2858 183.788L65.4317 183.643C65.405 183.638 65.3777 183.646 65.3574 183.664L64.7101 184.24C64.6734 184.273 64.617 184.269 64.5843 184.233C64.5732 184.22 64.5658 184.205 64.563 184.189L64.4014 183.249L63.6132 182.74C63.5719 182.713 63.56 182.658 63.5867 182.616C63.595 182.604 63.6063 182.593 63.6197 182.586L64.4237 182.158L64.6219 181.244C64.6323 181.196 64.6797 181.165 64.7279 181.175C64.745 181.179 64.7606 181.188 64.7729 181.2Z" fill="#00160A"/>
<path fill-rule="evenodd" clip-rule="evenodd" d="M54.5812 120.095L54.9652 120.948L55.8405 121.2C55.8878 121.213 55.9152 121.263 55.9016 121.31C55.8974 121.324 55.8896 121.338 55.8788 121.348L55.2138 122.011L55.251 122.963C55.253 123.012 55.2146 123.054 55.1654 123.056C55.1488 123.057 55.1323 123.052 55.1178 123.044L54.3649 122.615C54.3414 122.602 54.3131 122.6 54.2879 122.61L53.4827 122.93C53.4369 122.948 53.3851 122.926 53.3669 122.88C53.3608 122.864 53.3591 122.848 53.362 122.831L53.5315 121.893L52.9651 121.145C52.9354 121.105 52.9431 121.05 52.9824 121.02C52.9945 121.011 53.0087 121.005 53.0238 121.003L53.9255 120.876L54.4245 120.084C54.4508 120.042 54.5058 120.03 54.5475 120.056C54.5623 120.066 54.574 120.079 54.5812 120.095Z" fill="#00160A"/>
<path fill-rule="evenodd" clip-rule="evenodd" d="M54.492 120.945L54.6551 121.308L55.0269 121.414C55.047 121.42 55.0586 121.441 55.0529 121.461C55.0511 121.467 55.0477 121.473 55.0432 121.478L54.7607 121.759L54.7765 122.164C54.7773 122.184 54.7611 122.202 54.7402 122.203C54.7331 122.203 54.7261 122.201 54.7199 122.198L54.4001 122.016C54.3901 122.01 54.3781 122.009 54.3674 122.013L54.0254 122.149C54.0059 122.157 53.9839 122.148 53.9762 122.128C53.9736 122.122 53.9729 122.114 53.9741 122.107L54.0461 121.709L53.8055 121.391C53.7929 121.374 53.7962 121.351 53.8129 121.338C53.818 121.334 53.8241 121.332 53.8304 121.331L54.2135 121.277L54.4254 120.941C54.4366 120.923 54.46 120.918 54.4777 120.929C54.484 120.933 54.4889 120.938 54.492 120.945Z" fill="#EDF3F5"/>
<path fill-rule="evenodd" clip-rule="evenodd" d="M8.93425 157.533L9.31823 158.386L10.1935 158.637C10.2409 158.651 10.2682 158.7 10.2546 158.747C10.2505 158.762 10.2426 158.775 10.2318 158.786L9.56681 159.448L9.60407 160.401C9.60599 160.45 9.56767 160.491 9.51846 160.493C9.50182 160.494 9.48533 160.49 9.47086 160.482L8.71797 160.053C8.69444 160.04 8.6661 160.038 8.64094 160.048L7.8357 160.367C7.78994 160.386 7.73811 160.363 7.71993 160.317C7.71379 160.302 7.7121 160.285 7.71506 160.269L7.88455 159.33L7.31813 158.582C7.28841 158.543 7.29614 158.487 7.33539 158.457C7.3475 158.448 7.36174 158.442 7.37678 158.44L8.27854 158.313L8.77753 157.522C8.80379 157.48 8.85884 157.467 8.9005 157.494C8.91532 157.503 8.92706 157.517 8.93425 157.533Z" fill="#00160A"/>
<path fill-rule="evenodd" clip-rule="evenodd" d="M47.514 80.9128L47.7929 81.1074C48.1059 81.3295 49.2745 82.4308 49.5189 82.6306C50.1031 82.3625 50.7599 82.2216 51.6051 82.1774C51.9125 82.1614 52.1746 82.3975 52.1907 82.7048C52.2067 83.0121 51.9706 83.2743 51.6633 83.2903C51.1763 83.3158 50.7748 83.3752 50.4185 83.4814C50.9583 84.0986 51.1585 84.6384 51.1689 85.2058L51.169 85.3154C51.169 85.6231 50.9195 85.8726 50.6118 85.8726C50.3232 85.8726 50.086 85.6533 50.0574 85.3723L50.0545 85.3154L50.0545 85.222C50.0463 84.8579 49.8929 84.4916 49.3891 83.9923C49.1622 84.155 48.9367 84.351 48.6961 84.5854L48.1049 85.183C47.8882 85.4015 47.5354 85.4031 47.3168 85.1865C47.0983 84.9698 47.0967 84.617 47.3134 84.3984L47.8062 83.8979C48.0491 83.655 48.2829 83.4416 48.517 83.2553C48.1059 82.3168 46.5651 81.3105 46.7393 81.0568C46.9134 80.8031 47.2603 80.7387 47.514 80.9128Z" fill="#00160A"/>
<path fill-rule="evenodd" clip-rule="evenodd" d="M155.023 145.176L155.782 145.722L156.666 145.502C156.714 145.491 156.762 145.52 156.774 145.567C156.778 145.582 156.778 145.598 156.774 145.612L156.529 146.518L157.037 147.325C157.064 147.366 157.051 147.421 157.01 147.448C156.996 147.456 156.979 147.461 156.963 147.461L156.096 147.466C156.069 147.467 156.044 147.479 156.027 147.5L155.489 148.18C155.459 148.218 155.403 148.225 155.364 148.194C155.351 148.184 155.341 148.17 155.336 148.155L155.013 147.257L154.149 146.893C154.103 146.873 154.082 146.821 154.101 146.776C154.107 146.762 154.116 146.75 154.128 146.74L154.846 146.179L154.882 145.244C154.884 145.195 154.925 145.157 154.975 145.159C154.992 145.159 155.009 145.165 155.023 145.176Z" fill="#00160A"/>
<path fill-rule="evenodd" clip-rule="evenodd" d="M163.744 110.253L163.974 111.16L164.792 111.559C164.837 111.581 164.855 111.634 164.833 111.678C164.827 111.692 164.817 111.704 164.804 111.712L164.034 112.249L163.906 113.194C163.899 113.243 163.854 113.277 163.805 113.27C163.789 113.268 163.773 113.261 163.76 113.25L163.093 112.697C163.073 112.68 163.045 112.673 163.019 112.679L162.17 112.854C162.122 112.864 162.075 112.833 162.065 112.785C162.061 112.768 162.063 112.751 162.068 112.736L162.398 111.841L161.97 111.006C161.948 110.962 161.965 110.908 162.009 110.886C162.022 110.879 162.038 110.876 162.053 110.876L162.963 110.908L163.592 110.215C163.625 110.178 163.681 110.176 163.718 110.209C163.731 110.22 163.74 110.236 163.744 110.253Z" fill="#00160A"/>
<path fill-rule="evenodd" clip-rule="evenodd" d="M143.885 73.7499L144.115 74.6569L144.933 75.0563C144.977 75.0779 144.996 75.1312 144.974 75.1755C144.967 75.1891 144.957 75.2009 144.945 75.2095L144.175 75.746L144.046 76.6908C144.04 76.7396 143.995 76.7738 143.946 76.7671C143.929 76.7649 143.914 76.758 143.901 76.7474L143.234 76.1944C143.213 76.1771 143.186 76.1703 143.159 76.1757L142.311 76.3509C142.262 76.3608 142.215 76.3298 142.205 76.2816C142.202 76.2653 142.203 76.2483 142.209 76.2327L142.539 75.3381L142.111 74.5029C142.088 74.4591 142.106 74.4054 142.15 74.3829C142.163 74.376 142.178 74.3726 142.193 74.3732L143.103 74.4047L143.732 73.7119C143.765 73.6754 143.822 73.6727 143.858 73.7058C143.871 73.7175 143.88 73.7329 143.885 73.7499Z" fill="#00160A"/>
<path fill-rule="evenodd" clip-rule="evenodd" d="M202.554 82.6368L202.893 82.6066C203.275 82.5755 203.622 82.5582 203.938 82.5542C204.213 81.9732 204.626 81.4431 205.245 80.8659C205.47 80.6561 205.823 80.6685 206.032 80.8936C206.242 81.1187 206.23 81.4713 206.005 81.6811C205.648 82.0136 205.379 82.3172 205.174 82.6276C205.984 82.7535 206.485 83.0382 206.857 83.4662L206.928 83.5501C207.126 83.7858 207.095 84.1373 206.859 84.3351C206.638 84.5206 206.315 84.5051 206.113 84.3082L206.074 84.2664L206.014 84.1949C205.774 83.9213 205.421 83.7393 204.714 83.6806C204.645 83.9512 204.598 84.2463 204.564 84.5804L204.496 85.4183C204.47 85.725 204.201 85.9529 203.894 85.9275C203.587 85.902 203.359 85.6327 203.385 85.326L203.441 84.6259C203.471 84.2836 203.513 83.9698 203.572 83.6766C203.301 83.6905 202.998 83.7135 202.661 83.7461C202.355 83.7757 202.083 83.5514 202.053 83.2451C202.024 82.9388 202.248 82.6665 202.554 82.6368Z" fill="#00160A"/>
<path fill-rule="evenodd" clip-rule="evenodd" d="M157.559 121.101C157.458 121.356 157.237 121.709 156.981 122.043L157.202 122.272L157.458 122.545L157.515 122.599C157.54 122.621 157.559 122.635 157.573 122.638C157.656 122.65 157.714 122.727 157.703 122.81C157.691 122.892 157.615 122.95 157.532 122.938C157.457 122.937 157.185 122.83 156.86 122.567C156.801 122.519 156.743 122.464 156.683 122.403C156.496 122.612 156.307 122.792 156.143 122.903C155.903 123.069 155.695 123.082 155.595 123.015C155.497 122.95 155.404 122.73 155.563 122.286C155.588 122.205 155.673 122.163 155.753 122.188C155.832 122.213 155.876 122.298 155.851 122.378C155.827 122.461 155.823 122.536 155.823 122.596L155.915 122.533C155.948 122.51 155.981 122.484 156.012 122.453C156.124 122.343 156.248 122.21 156.373 122.065C156.175 121.835 155.973 121.565 155.81 121.253C155.73 121.101 155.667 120.939 155.606 120.769C155.565 120.675 155.608 120.563 155.703 120.521C155.798 120.479 155.909 120.523 155.951 120.618C156.133 120.999 156.365 121.327 156.594 121.608L156.671 121.7C156.88 121.427 157.059 121.15 157.141 120.939C157.186 120.825 157.316 120.767 157.431 120.811C157.547 120.857 157.604 120.987 157.559 121.101Z" fill="#EDF3F5"/>
<path fill-rule="evenodd" clip-rule="evenodd" d="M152.118 7.53914C152.458 7.48 152.781 7.70732 152.84 8.04688C152.899 8.38643 152.672 8.70965 152.333 8.76879C150.718 9.05009 148.774 10.0154 147.095 11.5702C144.914 13.5892 143.306 16.4387 142.512 20.1582C141.872 23.155 142.46 27.1005 144.132 30.3923C146.035 34.1375 149.093 36.6837 153.017 37.4005C157.045 38.1363 160.454 37.6793 164.26 36.3261L164.611 36.1988C164.722 36.1567 164.92 36.08 165.17 35.9839C166.086 35.6302 167.688 35.0122 168.148 34.8732C169.379 34.501 170.218 34.5321 170.827 35.1808C171.063 35.4321 171.05 35.8271 170.799 36.0629C170.563 36.284 170.201 36.2868 169.963 36.0792L169.917 36.0349C169.737 35.8435 169.366 35.8214 168.619 36.0357L168.509 36.0679C168.104 36.1905 166.62 36.7625 165.696 37.1191C165.337 37.2573 165.063 37.3631 164.967 37.3979C160.856 38.8987 157.167 39.4272 152.793 38.6283C148.458 37.8367 145.089 35.0308 143.019 30.9576C141.221 27.4177 140.59 23.1821 141.291 19.8976C142.139 15.9278 143.877 12.8491 146.247 10.6544C148.102 8.93644 150.266 7.86184 152.118 7.53914ZM156.339 10.5541C156.677 10.4879 157.005 10.7084 157.071 11.0466C157.138 11.3849 156.917 11.7128 156.579 11.779C151.521 12.7696 147.453 16.633 146.273 21.7432C145.874 23.4727 145.995 24.879 146.387 25.4155L146.439 25.4827L146.443 25.4921L146.45 25.4865C146.59 25.3598 146.754 25.0364 146.882 24.5349L146.908 24.4248C148.122 19.169 152.129 15.1008 157.247 13.7345C157.58 13.6456 157.922 13.8435 158.01 14.1765C158.099 14.5095 157.901 14.8516 157.568 14.9404C152.957 16.1713 149.335 19.8016 148.172 24.5061L148.124 24.7055C147.696 26.5592 146.468 27.444 145.472 26.2707C144.744 25.4124 144.566 23.5914 145.057 21.4624C146.349 15.8682 150.802 11.6385 156.339 10.5541ZM163.845 17.4041C163.82 17.0603 163.522 16.8015 163.178 16.826C157.104 17.2593 151.777 21.2045 149.658 27.0273C148.854 29.2368 148.806 31.2017 149.464 32.2038C150.347 33.5479 151.736 32.7855 152.429 30.8823L152.502 30.687C154.376 25.7592 158.768 22.3175 163.91 21.5998C164.251 21.5522 164.489 21.2368 164.441 20.8954C164.394 20.5541 164.078 20.316 163.737 20.3636C158.075 21.154 153.247 24.985 151.256 30.4554L151.212 30.5723C150.991 31.1417 150.748 31.4849 150.565 31.5857L150.557 31.5912L150.553 31.594C150.552 31.5954 150.551 31.5961 150.55 31.596C150.55 31.596 150.55 31.5958 150.55 31.5954C150.549 31.5946 150.548 31.5929 150.547 31.59C150.543 31.5808 150.534 31.5597 150.507 31.5184L150.474 31.4641C150.112 30.8219 150.167 29.277 150.831 27.4542C152.78 22.0982 157.679 18.4696 163.267 18.071C163.611 18.0465 163.869 17.7479 163.845 17.4041ZM166.563 23.471C166.907 23.4465 167.205 23.7053 167.23 24.0491C167.254 24.3929 166.996 24.6915 166.652 24.716C162.734 24.9955 159.299 27.5396 157.932 31.2948C157.527 32.408 157.452 33.3597 157.597 33.8417L157.615 33.8955L157.642 33.8557C157.712 33.75 157.79 33.5982 157.867 33.4013L157.9 33.3142C159.344 29.3477 162.844 26.5698 166.95 25.9968C167.291 25.9491 167.607 26.1872 167.654 26.5286C167.702 26.8699 167.464 27.1853 167.122 27.2329C163.531 27.7343 160.461 30.1312 159.139 33.5656L159.073 33.7411C158.538 35.212 157.38 35.8474 156.64 34.7211C156.133 33.9493 156.168 32.4923 156.76 30.8679C158.296 26.6458 162.159 23.7852 166.563 23.471ZM169.852 28.4993C169.828 28.1555 169.529 27.8967 169.185 27.9212C166.236 28.1316 163.649 30.0475 162.62 32.875C162.214 33.9897 162.189 35.0043 162.565 35.5755C163.18 36.5121 164.136 35.9873 164.535 34.8929L164.589 34.7492C165.427 32.608 167.348 31.1152 169.595 30.8016C169.936 30.754 170.174 30.4386 170.127 30.0973C170.079 29.7559 169.764 29.5178 169.422 29.5654L169.264 29.5892C166.846 29.9787 164.76 31.5135 163.678 33.7224L163.64 33.8011L163.663 33.7115C163.698 33.5812 163.741 33.444 163.793 33.3019C164.652 30.9412 166.811 29.3419 169.274 29.1662C169.618 29.1417 169.877 28.8431 169.852 28.4993Z" fill="#00160A"/>
<path fill-rule="evenodd" clip-rule="evenodd" d="M166.563 23.4709C166.907 23.4464 167.205 23.7052 167.23 24.049C167.254 24.3928 166.995 24.6914 166.652 24.7159C162.734 24.9954 159.299 27.5395 157.932 31.2947C157.527 32.4079 157.452 33.3596 157.597 33.8416L157.615 33.8954L157.642 33.8556C157.712 33.7499 157.79 33.5981 157.867 33.4012L157.9 33.3141C159.344 29.3476 162.844 26.5697 166.95 25.9967C167.291 25.949 167.607 26.1871 167.654 26.5285C167.702 26.8698 167.464 27.1852 167.122 27.2328C163.531 27.7342 160.461 30.1311 159.139 33.5655L159.073 33.741C158.538 35.2119 157.38 35.8473 156.64 34.721C156.133 33.9492 156.168 32.4922 156.76 30.8678C158.296 26.6457 162.159 23.7851 166.563 23.4709Z" fill="#00160A"/>
<path d="M127.696 104.725C140.78 98.6052 151.719 95.3726 158.529 94.7791C160.615 94.5973 161.561 95.7472 161.033 97.6174C160.64 99.0062 159.446 100.912 157.616 103.169C154.424 107.103 150.217 110.47 146.026 113.601C152.73 107.414 154.44 104.825 156.507 102.277L156.832 101.871C158.365 99.9329 159.356 98.3134 159.661 97.2329L159.704 97.0689C159.894 96.2889 159.674 96.1043 158.653 96.1933C151.997 96.7734 141.1 100.012 128.064 106.124C115.007 112.246 114.634 110.835 127.696 104.725Z" fill="#EDF3F5"/>
<path d="M67.8575 84.9277L67.9532 85.1554C68.616 86.7271 69.3048 88.2834 70.0865 89.9809L70.3905 90.6395C70.2908 90.7064 70.1598 90.7775 70.0157 90.8405C69.8088 90.9308 69.5988 90.9942 69.4408 91.0155L69.3905 91.0205L69.3146 90.9295C68.7237 90.2021 68.0381 88.9663 67.5426 87.7374C67.2787 87.0829 67.0907 86.4825 67.006 86.0212C66.9715 85.8333 66.9555 85.6754 66.9569 85.5557L66.9605 85.4767C66.9617 85.4576 66.9618 85.4476 66.957 85.4462L66.9757 85.4335C67.0812 85.3608 67.3508 85.2031 67.7511 84.9854L67.8575 84.9277Z" fill="#EDF3F5"/>
<path fill-rule="evenodd" clip-rule="evenodd" d="M84.3971 79.2344C84.8067 78.7331 85.3377 78.8078 86.0103 79.2158L86.1831 79.3248L86.6666 79.6452C86.8018 79.7319 86.8604 79.7619 86.9393 79.7933C87.1222 79.8661 87.2115 80.0735 87.1387 80.2565C87.0658 80.4395 86.8584 80.5288 86.6754 80.4559L86.6102 80.4291C86.4866 80.3761 86.3932 80.3211 86.1427 80.1549L85.7958 79.9238C85.7386 79.8865 85.6891 79.8552 85.6404 79.8256C85.2381 79.5816 85.0555 79.5559 84.9495 79.6856C84.8827 79.7674 84.8992 79.9417 85.0317 80.2989L85.1773 80.6737C85.4665 81.4415 85.4682 81.7848 84.953 82.0778C84.5094 82.3301 84.282 82.2122 83.6449 81.588L83.4904 81.435C83.0824 81.0275 82.8686 80.8858 82.7308 80.9149C82.6851 80.9246 82.6317 80.957 82.5665 81.0265C82.4901 81.1079 82.4685 81.3685 82.5153 81.8307L82.5872 82.4343C82.671 83.1722 82.6372 83.3633 82.3326 83.5672C81.9131 83.8479 81.355 83.5306 80.3205 82.6016C80.174 82.47 80.1618 82.2445 80.2934 82.098C80.425 81.9514 80.6505 81.9393 80.797 82.0709C81.2393 82.4681 81.5733 82.7268 81.8065 82.8594L81.8588 82.8878L81.9024 82.9096L81.9034 82.8649L81.9006 82.7581C81.896 82.6706 81.8851 82.5648 81.8633 82.385L81.8179 82.0146C81.7312 81.2634 81.7583 80.8456 82.0463 80.5385C82.2063 80.3679 82.3859 80.2588 82.5832 80.2171C83.0414 80.1202 83.3668 80.3159 83.9072 80.8441L84.18 81.1125C84.4741 81.3954 84.5832 81.4676 84.6004 81.4579C84.6672 81.4199 84.657 81.3017 84.4764 80.8378L84.3972 80.6369C84.1453 79.9893 84.0972 79.6015 84.3971 79.2344Z" fill="#00160A"/>
<path fill-rule="evenodd" clip-rule="evenodd" d="M123.33 21.1886L122.991 21.2189C122.685 21.2485 122.46 21.5208 122.49 21.8271C122.508 22.0123 122.614 22.1675 122.764 22.2548L122.705 22.2966C122.454 22.4742 122.394 22.822 122.571 23.0733C122.749 23.3246 123.097 23.3843 123.348 23.2067L123.921 22.8012C123.904 22.9323 123.89 23.0677 123.877 23.2079L123.822 23.9081C123.796 24.2148 124.024 24.484 124.331 24.5095C124.638 24.535 124.907 24.307 124.932 24.0003L125.001 23.1625C125.019 22.9831 125.041 22.8151 125.068 22.656C125.264 23.0272 125.303 23.3132 125.261 23.5836L125.245 23.6756L125.238 23.7322C125.217 24.0139 125.413 24.271 125.697 24.3211C126 24.3746 126.289 24.1722 126.343 23.8691L126.362 23.7612C126.421 23.3852 126.394 23.0066 126.242 22.5864C126.321 22.6436 126.39 22.7073 126.451 22.7769L126.511 22.8485L126.55 22.8903C126.752 23.0872 127.075 23.1026 127.296 22.9172C127.532 22.7193 127.562 22.3679 127.365 22.1321L127.294 22.0483C127.269 22.0195 127.243 21.9914 127.217 21.964C127.508 21.9809 127.766 21.769 127.802 21.4757C127.84 21.1702 127.623 20.8922 127.317 20.8546C126.792 20.79 126.332 20.7755 125.91 20.8134C126.061 20.635 126.237 20.4538 126.442 20.2631C126.667 20.0533 126.679 19.7007 126.469 19.4756C126.259 19.2505 125.907 19.2381 125.682 19.448C125.304 19.8 125.003 20.1345 124.764 20.4738C124.671 20.3756 124.574 20.275 124.472 20.1717L124.231 19.9316C124.011 19.716 123.659 19.7193 123.443 19.9389C123.227 20.1585 123.231 20.5113 123.45 20.7269C123.603 20.8766 123.743 21.0182 123.873 21.1525C123.7 21.1612 123.519 21.1732 123.33 21.1886Z" fill="#00160A"/>
<path fill-rule="evenodd" clip-rule="evenodd" d="M101.855 25.0496C101.722 24.9124 101.505 24.9163 101.372 25.0581C101.238 25.2 101.238 25.4262 101.372 25.5633C101.499 25.6934 101.612 25.8139 101.714 25.9261C101.499 26.0169 101.284 26.1346 101.054 26.2798L100.705 26.504C100.551 26.6017 100.518 26.7972 100.63 26.9407C100.742 27.0842 100.957 27.1212 101.111 27.0235L101.529 26.7562C101.748 26.6221 101.946 26.5207 102.144 26.4496C102.445 26.8684 102.508 27.1369 102.47 27.3859L102.459 27.4449L102.455 27.4812C102.441 27.6619 102.559 27.8258 102.734 27.8565C102.919 27.8893 103.098 27.7581 103.132 27.5635L103.144 27.4942C103.201 27.1332 103.14 26.7694 102.881 26.3201C103.057 26.3174 103.248 26.3304 103.465 26.3581C103.654 26.3823 103.824 26.2625 103.844 26.0906C103.864 25.9187 103.727 25.7598 103.538 25.7356C103.124 25.6827 102.777 25.6766 102.459 25.7196C102.328 25.5588 102.177 25.3871 102.002 25.2023L101.855 25.0496Z" fill="#EDF3F5"/>
<path fill-rule="evenodd" clip-rule="evenodd" d="M30.0468 117.944L30.4308 118.797L31.3061 119.048C31.3534 119.062 31.3808 119.111 31.3672 119.158C31.363 119.173 31.3552 119.186 31.3444 119.197L30.6794 119.859L30.7166 120.812C30.7185 120.861 30.6802 120.903 30.631 120.904C30.6144 120.905 30.5979 120.901 30.5834 120.893L29.8305 120.464C29.807 120.451 29.7787 120.449 29.7535 120.459L28.9483 120.779C28.9025 120.797 28.8507 120.774 28.8325 120.729C28.8263 120.713 28.8246 120.696 28.8276 120.68L28.9971 119.741L28.4307 118.993C28.401 118.954 28.4087 118.898 28.4479 118.868C28.46 118.859 28.4743 118.853 28.4893 118.851L29.3911 118.724L29.8901 117.933C29.9163 117.891 29.9714 117.879 30.013 117.905C30.0279 117.914 30.0396 117.928 30.0468 117.944Z" fill="#00160A"/>
<path fill-rule="evenodd" clip-rule="evenodd" d="M35.1669 70.5838L35.5509 71.4371L36.4262 71.6883C36.4735 71.7019 36.5009 71.7513 36.4873 71.7986C36.4831 71.8132 36.4753 71.8265 36.4645 71.8372L35.7995 72.4993L35.8367 73.452C35.8387 73.5012 35.8003 73.5427 35.7511 73.5446C35.7345 73.5453 35.718 73.5412 35.7035 73.533L34.9506 73.1042C34.9271 73.0908 34.8988 73.0888 34.8736 73.0988L34.0684 73.4187C34.0226 73.4368 33.9708 73.4145 33.9526 73.3687C33.9465 73.3532 33.9448 73.3363 33.9477 73.32L34.1172 72.3816L33.5508 71.6335C33.5211 71.5942 33.5288 71.5383 33.5681 71.5086C33.5802 71.4994 33.5944 71.4935 33.6094 71.4914L34.5112 71.3644L35.0102 70.5729C35.0365 70.5312 35.0915 70.5187 35.1332 70.545C35.148 70.5543 35.1597 70.5678 35.1669 70.5838Z" fill="#00160A"/>
<path d="M46.7646 145.986C47.0506 145.778 47.4509 145.842 47.6585 146.128C47.8662 146.414 38.8118 153.789 35.2993 157.168L34.8911 157.564C32.8848 159.527 31.4056 161.227 30.5719 162.571C29.6883 163.995 29.6317 164.768 30.2021 165.084C32.3662 166.284 35.4777 166.868 39.9341 166.13L40.392 166.052C42.0883 165.755 54.8484 162.972 54.6464 163.046L54.5679 163.069C54.1656 163.176 48.9699 164.973 47.1766 165.429L46.9599 165.484C44.2184 166.174 42.0731 166.646 40.1432 166.966C35.4274 167.747 32.0582 167.577 29.5816 166.204C28.1525 165.412 28.2663 163.859 29.4842 161.896C30.4421 160.352 32.127 158.445 34.4118 156.246C37.9712 152.821 42.9777 148.736 46.7646 145.986Z" fill="#EDF3F5"/>
</svg>
