<svg width="300" height="300" viewBox="0 0 300 300" fill="none" xmlns="http://www.w3.org/2000/svg">
<path d="M27.7829 282.204C27.2455 282.122 26.7465 281.876 26.3532 281.5C25.96 281.125 25.6914 280.637 25.5839 280.104C25.0079 276.995 31.2569 263.471 31.2569 263.471C31.2569 263.471 27.9134 259.965 29.6654 253.379C30.3839 250.679 35.7929 239.196 39.5369 235.299C42.0479 232.685 46.5869 230.142 50.3369 231.032C50.4869 231.066 49.4159 232.046 56.9204 223.178C65.1704 213.428 85.3934 196.838 102.454 189.065C120.358 180.908 150.543 174.215 177.304 178.962C212.974 185.3 236.14 205.908 251.017 221.733C256.969 221.651 262.095 226.347 266.017 230.822C272.206 237.872 277.858 246.185 278.248 255.558C278.526 258.259 277.835 260.97 276.298 263.208C278.076 267.489 279.591 271.873 280.836 276.338C280.951 276.784 280.976 277.249 280.907 277.705C280.839 278.16 280.68 278.598 280.438 278.991C280.197 279.383 279.88 279.723 279.504 279.991C279.128 280.258 278.703 280.446 278.253 280.545C259.078 284.795 159.801 304.178 27.7829 282.204Z" fill="#E4EEF2"/>
<path d="M266.047 240.069C265.312 240.649 275.64 254.658 269.821 255.255C269.736 253.295 269.224 251.377 268.321 249.636C266.655 246.169 259.471 236.874 257.755 234.975C256.239 233.128 254.178 231.808 251.866 231.204C252.865 225.564 260.716 233.872 261.336 233.004C261.6 232.609 256.137 226.219 252.438 227.575C250.338 228.303 248.988 231.129 250.147 234.388C252 239.622 263.935 254.092 264.697 254.847C266.665 256.693 268.761 257.964 271.281 257.059C278.566 253.327 266.628 239.602 266.047 240.069ZM261.097 247.027C258.847 244.152 252.147 235.987 251.811 232.342C255.621 233.599 258.03 237.94 261.94 243.084C264.64 246.745 268.006 250.638 268.582 255.057C265.911 254.064 263.2 249.6 261.105 247.027H261.097Z" fill="black"/>
<path d="M231.018 265.487C230.228 251.237 207.135 243.675 206.847 245.856C206.666 246.617 215.112 248.349 222.72 255.956C229.977 263.315 228.351 269.883 224.97 271.025C225.749 266.762 223.041 262.775 219.684 260.063C214.992 256.254 208.667 254.751 202.778 253.313C194.601 251.388 182.249 249.216 177.189 256.106C173.978 242.741 199.88 246.476 200.096 245.546C200.622 243.809 175.259 239.661 173.777 252.809C173.535 254.98 173.94 257.175 174.942 259.117C175.943 261.059 177.496 262.662 179.406 263.724C184.286 266.724 190.145 266.01 195.53 266.7C209.373 268.34 214.22 274.037 222.165 274.529C228.107 274.815 231.227 271.122 231.018 265.487ZM203.928 265.079C191.105 261.581 182.792 264.972 178.218 258.36C181.334 251.57 195.299 254.274 202.16 255.906C209.405 257.645 219.629 260.018 222.587 267.261C223.149 268.541 223.298 269.965 223.013 271.334C217.608 271.43 212.838 267.507 203.928 265.079Z" fill="black"/>
<path d="M168.85 211.847C165.421 205.67 154.977 206.534 155.179 207.569C155.215 207.974 157.216 207.918 160.11 208.8C163.44 209.85 167.73 212.201 166.83 215.595C166.189 218.208 166.515 216.074 160.896 213.77C153.058 210.51 140.784 211.727 137.131 217.247C135.424 213.995 137.974 211.247 141.238 209.628C143.908 208.401 148.138 206.999 144.4 207.174C131.127 207.953 131.451 220.985 140.452 222.704C143.835 223.35 147.394 222.333 152.853 222.335C156.846 222.266 162.603 223.806 166.528 220.55C169.68 218.021 170.322 214.41 168.85 211.847ZM152.85 219.663C145.381 219.663 141.15 221.508 138.07 218.498C141.063 214.182 154.72 211.305 165.307 218.072C162.187 221.051 157.636 219.632 152.85 219.663Z" fill="black"/>
<path d="M40.9572 247.819C37.8507 253.571 35.6892 258.458 35.0367 258.251C34.4367 258.058 35.6367 252.652 38.8542 246.682C42.0717 240.712 45.9642 236.756 46.4577 237.161C46.9842 237.601 44.0652 242.066 40.9572 247.819Z" fill="black"/>
<path d="M116.4 251.101C109.078 241.741 91.8147 250.722 92.6082 251.967C93.0102 252.682 103.819 247.969 110.691 250.546C114.609 252.36 114.706 254.353 113.041 256.546C112.572 257.166 110.913 255.412 104.791 255.483C94.0707 255.57 82.5912 261.691 77.1237 270.318C74.3082 269.04 73.8627 266.992 75.1437 264.168C77.7207 258.486 85.0152 254.58 84.6582 253.861C84.1272 252.61 70.1397 259.525 71.4582 268.192C72.5277 273.204 78.0117 274.747 83.5827 273.946C89.4252 273.051 123.313 261.963 116.4 251.101ZM79.0407 270.855C86.3577 261.975 99.9957 256.122 111.339 258.289C105.75 263.157 86.0337 271.861 79.0407 270.855Z" fill="black"/>
<path d="M205.992 230.524C203.647 228.094 204.178 225.681 206.223 225.235C209.189 225.089 212.123 225.913 214.578 227.584C217.128 229.234 222.325 233.013 213.852 228.888C209.037 226.543 206.044 227.311 206.524 227.292C206.524 227.292 206.514 227.271 206.535 227.389C206.442 230.062 221.121 237.52 219.04 232.503C218.077 230.485 218.989 231.198 219.732 232.062C221.392 233.991 219.609 238.992 209.151 232.744C207.995 232.164 206.93 231.416 205.992 230.524Z" fill="black"/>
<path d="M94.2796 224.758C90.4846 225.047 83.9731 227.521 86.0521 230.678C87.8641 233.345 92.9761 232.454 96.1666 231.742C105.131 229.595 104.828 224.11 94.2796 224.758ZM100.631 228.257C97.3876 230.53 83.2966 231.544 89.5501 228.025C95.7091 224.558 104.25 225.718 100.631 228.257Z" fill="black"/>
<path d="M135.664 240.7C129.846 245.963 125.199 243.25 125.988 239.99C126.288 238.736 128.107 236.797 127.219 239.09C127.062 239.366 126.972 239.676 126.957 239.994C126.943 240.312 127.004 240.628 127.136 240.918C127.267 241.207 127.466 241.461 127.716 241.659C127.965 241.856 128.258 241.992 128.569 242.054C130.563 242.524 134.925 239.549 135.199 238.147C135.381 236.723 135.391 235.43 131.212 236.786C123.705 239.221 130.312 235.526 132.712 234.851C134.899 234.401 136.707 234.685 137.028 236.902C137.151 237.599 137.09 238.316 136.851 238.982C136.611 239.648 136.203 240.24 135.664 240.7Z" fill="black"/>
<path d="M53.4901 270.57C51.0061 268.584 54.1081 264.89 57.4171 263.52C60.0331 262.44 60.9526 263.586 60.7591 263.703C59.7673 263.773 58.8128 264.11 57.9961 264.677C54.3076 266.975 53.3461 269.999 55.8841 269.132C57.4506 268.48 58.8516 267.486 59.9851 266.223C60.3391 265.919 60.5996 265.521 60.7366 265.075C60.8736 264.629 60.8814 264.154 60.7591 263.703C60.9091 263.298 62.5456 264.603 61.0201 267.003C59.4946 269.403 55.6756 272.319 53.4901 270.57Z" fill="black"/>
<path d="M251.66 271.846C251.359 272.351 250.883 272.728 250.322 272.904C249.762 273.08 249.156 273.043 248.621 272.8C245.073 271.462 243.057 266.401 244.043 265.267C244.41 264.763 244.367 265.489 244.514 265.93C245.207 267.609 246.313 269.085 247.73 270.222C249.98 272.088 251.208 271.147 249.005 268.014C248.262 266.964 246.383 264.802 245.034 264.891C244.623 264.916 244.401 265.173 244.284 265.105C244.19 265.092 244.134 264.583 244.808 264.216C247.235 262.903 253.262 268.548 251.66 271.846Z" fill="black"/>
<path d="M165.922 260.7C164.457 256.677 164.784 253.977 164.988 253.991C165.558 253.923 166.638 266.166 177.931 270.641C182.872 272.601 188.154 272.606 193.443 273.605C197.569 274.385 199.9 275.667 199.791 275.886C199.675 276.168 197.278 275.4 193.239 274.996C185.308 274.207 171.184 275.133 165.922 260.7Z" fill="black"/>
<path d="M141.924 228.372C133.509 227.433 129.055 221.982 129.604 221.557C130.105 221.107 133.399 225.57 142.134 226.555C148.783 227.305 155.934 225.967 156.033 226.705C156.111 227.304 147.973 229.05 141.924 228.372Z" fill="black"/>
<path d="M121.083 263.336C115.359 270.029 103.671 275.263 103.26 274.295C102.99 273.658 113.578 268.561 119.31 261.835C122.98 257.527 123.351 253.661 121.443 249.433C120.243 246.761 118.368 244.361 118.672 244.103C119.073 243.761 130.09 252.805 121.083 263.336Z" fill="black"/>
<path d="M208.855 238.149C204.022 235.736 201.114 231.771 201.538 231.399C201.963 231.027 204.988 234.161 209.673 236.513C214.357 238.865 218.685 239.315 218.661 239.856C218.634 240.488 213.699 240.569 208.855 238.149Z" fill="black"/>
<path d="M280.467 270C277.524 261.323 277.665 264.161 278.769 261.767C283.941 249.981 267.555 222.123 251.019 220.005C197.844 156.504 100.726 162.555 50.3804 229.445C40.0109 226.8 27.9599 247.445 27.5984 256.826C27.5708 259.276 28.2994 261.675 29.6849 263.696C28.6409 266.096 27.6534 268.52 26.7224 270.969C24.9554 275.619 24.5069 279.705 25.3589 279.945C26.8379 280.367 30.0224 271.031 32.2889 265.752C38.8364 268.541 47.2664 257.778 46.0094 256.938C45.3989 256.53 37.3319 264.942 33.6449 262.914C26.1449 259.301 36.0944 241.064 41.1884 236.235C44.0384 233.468 49.4894 230.976 51.0884 233.423C53.6114 236.24 50.9879 247.463 51.7484 247.758C52.5704 248.102 54.8789 242.3 55.0079 237.435C91.8134 188.609 154.978 172.559 208.183 197.133C218.757 201.993 221.271 204.033 221.416 203.793C221.493 203.675 216.541 200.618 216.42 200.547C164.466 170.13 95.4599 182.295 54.7739 234.279C54.5257 232.811 53.76 231.481 52.6154 230.529C102.154 168.98 193.051 159.774 247.722 219.987C246.587 220.102 245.487 220.443 244.487 220.991C243.487 221.538 242.607 222.281 241.899 223.175C236.106 230.766 247.978 245.982 248.842 245.363C249.709 244.779 240.046 230.382 244.386 225.092C246.001 223.032 248.947 222.842 251.509 223.331C254.813 224.099 257.891 225.627 260.499 227.795C268.192 233.916 275.397 244.568 276.507 255.902C277.042 261.356 273.792 264.089 269.698 263.804C265.285 263.474 261.681 259.574 258.51 256.569C253.288 251.538 247.35 246.69 256.849 258.113C260.352 262.208 264.024 266.394 269.404 266.931C271.515 267.17 273.645 266.694 275.454 265.581C276.146 267.381 276.802 269.195 277.423 271.023C281.55 283.107 283.26 278.18 280.467 270Z" fill="black"/>
<path d="M83.6996 188.101C86.3306 185.524 90.7301 179.778 90.1196 176.172C89.4446 172.192 77.2661 160.282 64.7861 158.382C59.0636 151.008 44.5931 141.952 39.8396 140.05C35.5916 138.352 29.7641 137.695 26.3831 139.924C20.0216 144.124 22.4081 158.533 22.4831 161.782C22.6691 170.752 29.7536 182.767 29.5016 185.325C29.3096 187.285 26.8601 187.173 28.4156 194.419C29.3924 199.194 30.6444 203.909 32.1656 208.54C33.0026 211.008 34.1696 213.67 36.5471 214.735C40.0121 216.283 46.9121 214.363 50.4581 212.431C51.6791 211.767 52.2911 211.672 53.3081 212.905C55.3076 215.344 57.7106 220.162 61.9196 219.832C63.1196 219.738 63.4196 219.093 63.3611 217.909C63.2513 215.366 62.5759 212.879 61.3841 210.63C62.8271 210.055 64.1306 209.179 65.2076 208.06C66.7661 209.626 71.8586 214.36 74.1041 214.521C76.3496 214.681 77.8946 212.058 77.6666 209.833C77.1839 207.643 76.2779 205.568 74.9996 203.725C74.0996 202.06 74.4626 202.149 78.0626 197.323C80.7116 200.884 81.8231 202.665 83.4626 203.545C84.0787 203.918 84.7979 204.083 85.5148 204.017C86.2317 203.951 86.9087 203.658 87.4466 203.179C89.4611 200.997 86.8466 196.755 83.2196 190.827C82.5326 189.709 82.5521 189.214 83.6996 188.101Z" fill="#FFEDC2"/>
<path d="M39.0298 174.063C38.7526 176.515 39.312 178.989 40.6172 181.084C41.9225 183.179 43.8971 184.771 46.2207 185.602C47.7972 186.175 49.4989 186.312 51.1466 185.999C52.7943 185.686 54.3272 184.934 55.5839 183.824C56.8406 182.713 57.7747 181.284 58.2878 179.687C58.8009 178.09 58.8741 176.385 58.4997 174.75C56.4087 164.892 41.0623 163.212 39.0298 174.063Z" fill="#24C4F9"/>
<path d="M55.6829 181.651C54.239 183.424 52.1558 184.559 49.8828 184.81C47.6097 185.061 45.3291 184.409 43.5329 182.993C39.5279 180.1 39.7094 175.943 39.0959 175.978C38.6744 175.997 38.3459 180.988 42.3464 184.462C43.8536 185.825 45.7208 186.727 47.7257 187.059C49.7307 187.392 51.7889 187.141 53.6555 186.337C55.522 185.533 57.1183 184.21 58.2542 182.525C59.3902 180.839 60.0179 178.863 60.0629 176.831C60.1274 170.215 54.1679 164.444 47.5034 165.508C42.6839 166.21 39.2534 169.69 38.8799 172.805C38.6384 174.437 38.9189 175.307 39.0779 175.304C39.2834 175.312 39.3779 174.437 39.8834 173.074C41.3114 168.967 47.5484 166.238 52.1684 168.476C56.9789 170.747 59.1614 177.301 55.6829 181.651Z" fill="black"/>
<path d="M51.3956 192.101C64.4456 190.937 70.2596 175.721 61.2371 165.571C58.594 162.565 54.9209 160.658 50.9417 160.226C46.9624 159.794 42.9657 160.868 39.7391 163.237C38.7492 163.834 37.9145 164.656 37.3031 165.637C37.4051 165.743 38.2496 164.864 40.0886 163.774C53.9081 155.549 67.4996 169.199 63.1301 181.408C59.9066 190.699 47.4386 194.059 39.2621 186.424C34.0946 181.66 34.3346 175.553 33.8891 175.589C33.5891 175.589 33.5066 182.329 38.4536 187.262C40.1351 188.953 42.1621 190.261 44.3958 191.096C46.6294 191.932 49.0172 192.274 51.3956 192.101Z" fill="black"/>
<path d="M87.8158 170.132C81.6505 163.776 73.896 159.187 65.3578 156.842C58.0227 149.158 49.3149 142.915 39.6838 138.434C15.3838 128.745 16.2283 160.749 27.5098 184.056C26.2262 193.655 27.7626 203.419 31.9318 212.16C32.3125 213.314 32.9987 214.342 33.9172 215.137C34.8358 215.932 35.9526 216.463 37.1488 216.674C41.7673 217.665 48.1213 215.651 52.3678 213.204C53.2678 214.328 56.1403 217.755 57.1258 218.732C61.6483 223.217 65.6938 219.161 64.0513 214.532C62.2513 209.432 60.8143 212.522 65.8273 209.582C68.4358 212.439 71.5003 216.524 75.1168 215.393C76.0291 215.079 76.8286 214.503 77.4155 213.737C78.0025 212.972 78.3507 212.05 78.4168 211.088C78.6748 208.473 77.2483 205.688 75.7813 202.971C75.0778 201.663 75.4243 203.196 78.0898 198.921C81.1063 202.587 82.4743 204.374 84.6343 204.83C85.5495 204.986 86.4895 204.776 87.2511 204.245C88.0127 203.714 88.5346 202.905 88.7038 201.992C89.2933 199.556 87.7723 196.725 86.3038 194.192C82.8388 188.252 82.6933 192.576 88.3873 184.767C94.1653 176.501 91.6003 174.041 87.8158 170.132ZM23.6998 160.889C26.0066 160 28.2282 158.905 30.3373 157.616C32.4883 156.254 33.6373 155.154 33.4768 154.916C33.2383 154.544 31.3273 155.726 23.4133 158.748C22.4128 150.09 23.5228 139.415 32.2243 139.838C36.3523 140.007 41.2723 142.497 44.8243 144.605C35.0068 153.507 34.6603 153.716 34.8163 153.962C34.9723 154.208 36.7183 153.452 39.2338 151.731C41.8377 149.888 44.331 147.893 46.7008 145.757C66.0073 157.974 76.7443 174.987 78.4048 184.307C76.0048 186.119 70.2628 190.85 67.9648 192.93C62.5993 189.755 57.9358 194.417 58.4533 199.151C55.7323 200.42 49.6918 203.562 47.0533 205.089C37.4548 197.978 26.7598 181.092 23.6998 160.889ZM35.6068 212.306C34.0138 210.005 29.8603 199.835 29.5888 188.033C34.3168 196.433 42.7003 207.339 52.1608 210.585C47.9998 212.738 38.0293 215.804 35.6068 212.306ZM61.3093 212.666C61.9168 214.089 62.8708 216.072 62.2888 217.502C60.9178 220.869 57.4468 215.993 53.6713 212.402C55.8283 211.005 54.3058 211.43 57.4948 211.772C61.6198 212.186 60.4498 210.636 61.3093 212.666ZM57.7408 209.478C54.6081 209.049 51.5981 207.976 48.8998 206.328C52.4485 204.966 55.8223 203.186 58.9498 201.026C59.8753 203.255 61.9108 205.292 64.3768 207.99C62.3684 209.151 60.0528 209.671 57.7408 209.478ZM75.8473 210.783C75.6118 212.835 73.9783 213.825 71.6173 211.823C69.5584 209.916 67.6201 207.884 65.8138 205.737C63.0058 202.692 58.1143 198.705 62.1673 194.819C62.7453 194.267 63.4773 193.905 64.2661 193.78C65.0549 193.655 65.8631 193.773 66.5833 194.118C69.7303 195.882 76.2118 207.555 75.8473 210.783ZM69.4603 194.055C72.834 191.957 75.939 189.454 78.7063 186.603C78.9245 189.087 78.6493 191.59 77.8966 193.967C77.1439 196.345 75.9285 198.55 74.3203 200.456C72.9432 198.148 71.3131 196.001 69.4603 194.055ZM86.1283 198.311C87.5293 201.627 86.1763 203.039 84.9808 202.83C83.5408 202.611 82.3648 200.952 78.8503 197.58C79.5497 196.245 80.0981 194.836 80.4853 193.38C81.1438 192.78 81.8443 192.122 82.5703 191.411C83.9347 193.614 85.1243 195.921 86.1283 198.311ZM81.1498 189.473C81.9313 179.588 74.6818 167.969 68.5078 160.442C79.3288 165.438 88.6078 174.438 88.6438 176.73C88.2703 180.887 83.8918 186.251 81.1498 189.473Z" fill="black"/>
<path d="M194.125 102.061C198.516 97.0271 198.495 97.9091 202.254 99.4946C215.967 105.277 261.616 128.662 261.766 128.745C269.818 133.38 273.411 133.833 269.917 142.081C266.317 150.589 256.627 169.459 250.917 176.515C248.257 179.515 245.916 182.783 243.93 186.265C240.858 192.087 232.68 196.174 235.174 197.241C245.449 201.625 247.785 206.016 250.525 215.221C250.668 215.7 250.621 215.901 250.125 216.187C248.343 217.219 244.125 219.328 242.382 218.217C240.939 217.294 240.528 214.035 237.682 210.079C236.025 207.933 233.824 206.271 231.307 205.265C228.789 204.259 226.048 203.947 223.369 204.36C218.419 205.464 220.746 205.452 172.369 232.059C158.934 239.448 155.569 237.936 151.857 245.443C148.909 251.401 148.816 258.259 144.526 259.833C142.788 260.47 138.865 260.164 137.326 258.58C134.7 255.88 137.2 246.37 138.289 242.757C139.498 238.747 138.58 239.874 142.426 236.403C145.408 233.712 141.609 231.685 95.9367 199.555C95.2634 199.197 94.4956 199.057 93.7392 199.153C88.2882 211.09 95.8032 219.376 84.6732 218.293C82.5312 218.086 81.9462 217.644 81.2232 216.043C75.9822 204.366 81.2682 189.747 94.4232 182.743C101.023 179.23 85.9737 187.737 150.543 154.234C167.613 145.387 172.576 126.768 194.125 102.061Z" fill="#24C4F9"/>
<path d="M268.774 131.455C258.196 124.545 244.809 119.224 233.308 112.675C224.434 107.467 214.617 103.558 205.281 98.5979C195.972 93.6479 195.918 96.2594 170.377 131.898C156.862 150.817 153.862 150.085 129.727 162.814C94.6708 181.05 87.9222 182.986 85.4997 188.1C76.9782 197.779 76.2958 212.956 80.0998 218.332C81.5608 220.309 83.6607 220.675 86.1147 220.432C95.9412 219.264 90.3432 214.575 94.3977 200.844C105.291 208.437 91.8403 197.694 141.438 235.044C136.305 238.905 134.787 246.208 134.229 252.594C134.014 256.314 134.229 259.93 138.939 261.51C142.911 262.896 147.319 261.225 148.705 258C149.895 255.232 150.978 246.3 157.272 240.609C160.767 239.678 164.14 238.338 167.322 236.619C169.8 235.374 204.859 216.121 222.177 205.761C224.044 205.423 225.959 205.467 227.809 205.888C229.659 206.309 231.404 207.099 232.941 208.212C240.864 214.017 237.441 224.184 248.592 219.462C251.383 218.281 252.694 217.062 251.892 213.927C249.771 205.998 244.737 199.077 236.821 196.32C249.97 184.968 270.849 145.444 273.132 138.223C274.293 134.49 271.011 133.005 268.774 131.455ZM89.1987 212.715C88.9527 216.39 89.2873 216.475 85.7488 216.81C84.5878 216.918 83.7208 216.916 83.0488 216.079C80.9098 213.057 80.7988 201.663 85.7368 193.21C87.6228 195.51 89.8036 197.55 92.2227 199.279C90.4774 203.559 89.4555 208.1 89.1987 212.715ZM148.095 249.057C146.335 253.246 145.854 255.807 145.491 256.525C144.534 258.76 139.851 259.075 138.271 256.825C137.116 255.484 137.392 241.584 143.613 236.631C146.126 238.477 148.982 239.807 152.013 240.541C154.899 241.117 151.734 240.3 148.095 249.057ZM244.119 205.614C246.104 208.612 247.555 211.932 248.409 215.425C247.356 215.995 246.251 216.463 245.109 216.823C240.826 217.792 243.483 211.254 234.811 205.423C226.44 200.064 223.29 206.145 234.447 198.199C238.35 199.63 241.724 202.216 244.119 205.614ZM270.202 137.347C268.776 142.221 248.331 184.018 234.352 195.057C228.352 199.887 172.411 230.443 165.846 233.689C159.174 236.982 156.171 237.946 152.718 237.231C147.768 236.205 149.125 236.121 107.844 205.467C101.224 200.679 87.6718 193.059 88.7158 189.957C89.9683 186.357 100.438 182.187 103.84 180.48C166.366 147.93 157.893 156.396 183.04 120.03C185.527 116.449 197.061 99.6389 200.458 100.249C202.153 100.549 260.257 129.984 264.168 132.267C270.336 135.984 270.556 136.171 270.202 137.347Z" fill="black"/>
<path d="M254.347 119.861C254.441 113.373 253.207 106.934 250.72 100.941C248.233 94.9475 244.546 89.5265 239.886 85.0112C223.893 69.1307 198.711 79.3397 198.711 79.3397L196.327 82.1747C196.327 82.1747 194.853 79.3397 188.614 80.7017C182.376 82.0637 172.768 96.6407 171.627 101.126C170.038 107.364 174.549 113.256 174.549 113.256C174.549 113.256 174.046 113.067 171.576 117.596C169.105 122.124 173.172 135.251 173.172 135.251C173.172 135.251 165.972 124.082 165.862 115.845C165.831 113.391 165.648 105.195 163.741 103.664C163.311 102.924 160.926 101.309 162.043 96.0452C163.084 90.9452 167.844 90.7877 169.744 88.1282C170.415 87.0281 170.663 85.7218 170.442 84.4525C170.221 83.1832 169.547 82.0373 168.544 81.2282C161.494 75.8702 155.458 86.3282 155.14 85.8707C153.184 82.8889 150.796 80.2146 148.053 77.9357C141.543 73.0382 135.894 74.4032 134.506 76.9412C133.465 78.7922 134.92 80.6807 136.039 82.5062C129.802 81.7022 123.087 83.2772 125.515 88.0562C126.274 89.5562 128.407 89.7707 133.374 92.0672C128.919 93.0992 124.224 93.7907 124.768 97.1357C125.634 101.754 132.019 99.5642 137.808 103.073C138.892 103.586 139.781 104.437 140.342 105.497C140.903 106.557 141.106 107.771 140.92 108.956C140.295 113.096 138.882 115.079 142.591 119.711C145.546 123.308 147.593 127.562 148.561 132.116C149.179 136.439 155.511 147.093 155.511 147.093L145.782 154.248L135.732 151.614C135.732 151.614 137.925 139.935 134.841 134.084C131.757 128.232 129.24 124.895 121.122 123.699C113.004 122.504 109.291 123.069 109.354 129.174C109.417 135.279 110.487 157.745 110.613 162.024C110.739 166.304 117.031 167.751 119.548 167.874C130.482 168.422 116.482 165.99 116.167 176.079C115.938 183.44 115.042 197.915 115.042 197.915C110.729 198.036 106.561 199.497 103.116 202.094C97.3781 206.433 96.6431 213.863 99.5156 216.953C102.388 220.043 126.516 220.403 126.516 220.403C126.516 220.403 135.195 221.138 137.623 217.607C140.052 214.076 139.975 203.043 139.975 203.043C139.975 203.043 149.538 212.9 157.114 214.518C164.691 216.137 178.15 209.664 184.402 205.913C190.654 202.161 216.03 180.17 216.03 180.17C216.03 180.17 231.844 181.419 239.346 177.668C246.847 173.916 251.482 166.268 251.409 159.869C251.365 156.016 250.971 152.175 250.231 148.394C259.74 137.441 258.046 122.549 254.347 119.861Z" fill="#E4EEF2"/>
<path d="M188.675 90.2998C185.585 92.6927 182.666 95.2991 179.94 98.0998C177.338 101.217 175.719 105.037 175.288 109.075C174.857 113.112 175.633 117.187 177.518 120.784C178.284 122.187 178.629 123.99 179.534 125.308C185.046 133.338 191.802 140.923 201.434 142.408C208.814 143.544 217.652 141.22 222.354 135.42C223.814 133.62 224.754 131.865 226.278 130.117C232.08 123.454 233.346 113.236 224.565 100.662C221.808 97.1342 218.609 93.9767 215.045 91.2673C207.695 84.9958 195.593 84.5173 193.575 85.2853C191.1 86.2093 190.691 88.6018 188.675 90.2998Z" fill="#24C4F9"/>
<path d="M146.715 198.9C155.682 211.696 167.865 206.508 168.135 207.43C168.753 208.491 154.011 214.218 144.45 200.478C135.39 187.456 143.371 174.504 144.372 175.399C145.146 175.848 138.075 186.579 146.715 198.9Z" fill="black"/>
<path d="M255.886 120.994C257.874 117.101 254.01 102.007 251.208 97.0236C241.8 80.2971 227.1 73.7991 208.276 75.4491C201.118 76.6491 198.511 77.0841 195.547 80.1381C187.633 76.4241 180.433 83.1231 175.186 90.1566C169.581 97.6566 166.717 105.938 172.44 113.395C168.828 116.869 168.978 121.355 170.016 126.347C165.036 111.809 168.603 109.48 166.416 104.42C165.366 101.945 161.653 96.5751 166.162 93.2166C167.881 91.9176 170.938 90.8706 172.026 87.8646C174.519 80.6046 163.89 72.5241 155.757 84.0081C145.549 65.7081 129.357 71.5986 131.794 79.9461C123.106 78.8541 118.732 88.2216 125.886 91.7691C124.95 92.0629 124.111 92.6061 123.461 93.3406C122.81 94.075 122.372 94.9728 122.193 95.9376C121.647 104.501 133.069 103.303 136.443 105.331C141.027 107.996 135.789 111.433 137.833 116.102C139.426 119.92 142.405 119.383 145.71 128.137C147.948 134.096 148.666 138.613 153.829 146.456C150.636 147.773 147.698 149.641 145.15 151.973C142.276 151.04 139.349 150.276 136.386 149.684C139.129 139.97 136.608 125.984 125.452 122.609C121.378 121.445 111.78 119.851 108.904 123.059C106.954 125.237 107.269 125.609 107.514 141.083C107.683 151.741 108.147 156.373 108.598 162.233C109.371 166.996 112.842 168.859 117.648 169.433C109.162 177.82 113.467 197.573 111.981 197.618C101.244 198.014 94.9228 206.24 95.9848 214.055C96.8308 222.266 110.314 221.3 117.735 221.984C138.51 223.682 142.083 220.253 141.814 207.191C141.786 205.849 141.292 206.629 145.69 210.236C152.529 215.786 160.567 218.404 168.907 215.42C180.607 211.235 198.942 199.999 216.891 181.954C235.761 183.658 252.553 178.007 253.068 159.604C253.052 155.724 252.656 151.856 251.886 148.054C257.679 140.239 261.852 128.224 255.886 120.994ZM195 86.6481C199.05 84.8661 214.233 89.3736 224.299 103.873C228.199 109.52 230.611 114.823 228.225 121.22C224.977 130.231 217.489 139.82 207.996 141.157C196.845 142.957 180.346 131.608 176.682 113.279C177.432 110.815 176.803 103.988 186.147 94.7346C190.5 90.4686 192.516 89.6001 195 86.6481ZM172.716 103.799C173.575 97.0881 184.503 80.1816 193.654 82.3491C187.915 89.5836 175.837 95.2401 173.637 110.177C172.74 108.179 172.421 105.969 172.716 103.799ZM126.3 85.4826C127.168 83.9931 130.05 83.1141 131.782 83.3586C135.733 84.0381 134.491 84.3531 137.413 85.9806C140.43 87.6306 142.987 89.1306 145.107 90.5451C139.476 95.2266 143.794 95.3751 138.705 93.3216C137.167 92.7366 138.582 93.1311 129.352 89.2206C128.307 88.9279 127.344 88.3964 126.538 87.6681C126.096 86.8401 125.872 86.2491 126.3 85.4826ZM142.324 116.585C139.392 113.347 141.966 112.096 142.033 108.298C147.615 109.396 152.242 107.284 152.059 106.736C151.854 106.079 147.337 107.51 141.709 106.039C140.136 101.152 132.789 99.9636 128.08 99.1731C123.646 97.1766 125.839 94.0116 131.83 94.0596C140.05 97.1676 140.503 96.5601 140.259 97.2411C139.741 98.6871 139.696 99.6576 139.959 99.7551C140.541 99.9606 142.081 96.7416 144.975 93.6051C147.825 90.4266 150.88 88.5891 150.619 88.0281C150.499 87.7731 149.536 87.9081 148.146 88.5621C146.242 89.4486 149.134 89.3121 139.17 83.1021C131.22 77.8821 136.902 74.2011 142.938 76.2816C147.67 77.9061 151.399 82.3911 154.257 86.4816C152.122 90.7086 152.007 94.0926 152.457 94.0821C152.833 94.1106 153.253 90.6591 156.387 86.3346C162.013 78.6696 167.373 80.1846 169.029 83.5641C171.562 88.6026 164.794 88.9641 162.211 92.9451C161.486 94.0182 161.011 95.2407 160.822 96.522C160.633 97.8034 160.735 99.1108 161.119 100.348C160.728 101.244 160.121 102.03 159.352 102.635C156.906 104.483 152.221 106.013 152.416 106.615C152.589 107.159 159.664 105.812 162.07 102.791C163.398 105.598 164.152 105.176 163.999 109.981C159.75 115.694 148.521 118.876 142.324 116.585ZM153.817 119.059C157.704 118.158 161.243 116.138 163.995 113.249C164.096 116.554 164.667 119.827 165.691 122.971C160.409 125.498 154.849 127.395 149.124 128.624C144.657 114.176 141.312 122.371 153.817 119.059ZM149.467 129.749C155.328 129.046 160.983 127.15 166.083 124.178C166.503 125.437 167.034 126.878 167.569 128.176C162.19 130.763 156.525 132.709 150.691 133.975C150.289 132.637 149.901 131.222 149.463 129.749H149.467ZM137.862 212.456C136.962 221.026 124.887 218.339 109.962 217.99C106.555 217.873 100.17 217.366 99.2638 214.076C116.347 215.956 132.286 215.434 132.28 214.748C132.274 214.063 118.599 214.076 99.0883 211.838C99.1482 210.47 99.4241 209.121 99.9058 207.839C102.922 200.6 112.618 198.103 119.631 200.654C123.61 202.103 125.139 204.245 125.412 203.969C125.712 203.717 122.661 199.241 116.128 197.957C116.166 191.288 115.281 178.802 119.271 173.429C121.333 170.653 125.055 169.022 128.26 170.362C137.418 174.193 138.547 206.327 137.857 212.456H137.862ZM201.262 179.278C201.214 179.996 212.637 181.493 213.424 181.588C200.964 192.322 182.935 206.188 167.661 211.871C157.911 215.504 148.798 210.091 141.664 202.525C139.564 153.077 121.984 170.167 113.764 164.344C113.353 164.071 113.009 163.707 112.76 163.281C112.511 162.854 112.364 162.376 112.329 161.884C111.879 156.059 111.429 151.651 111.261 141.008C111.022 125.911 110.914 126.101 111.798 125.513C112.743 125.081 113.771 124.86 114.81 124.864C115.702 136.786 115.278 160.226 116.302 160.202C116.89 160.189 117.907 137.146 117.024 124.897C119.527 125.073 122.012 125.453 124.453 126.032C135.217 129.065 136.849 145.288 132.292 155.282C131.052 157.883 130.096 159.23 130.32 159.421C130.672 159.721 133.374 156.871 135.022 153.368C145.444 155.36 156.622 159.617 163.645 167.743C169.827 174.808 179.695 197.593 181.509 196.532C181.975 196.265 180.558 192.713 178.228 186.97C177.73 185.741 177.514 186.427 182.47 189.37C189.028 193.214 189.195 192.269 183.586 187.769C174.736 180.389 175.936 181.261 173.811 176.918C168.507 166.141 163.111 158.99 149.157 153.416C151.457 152.158 153.567 150.58 155.425 148.73C156.522 150.211 160.035 154.396 160.473 154C161.01 153.532 155.704 147.922 151.543 136.642C150.55 133.832 150.475 136.264 159.517 133.192C172.144 128.917 165.016 126.049 172.471 137.486C176.428 143.512 184.309 152.957 193.221 157.286C197.526 159.343 200.166 159.716 200.211 159.536C200.511 158.636 189.067 156.109 180.067 142.771C176.724 137.837 174.168 131.221 174.946 132.503C178.496 138.785 183.798 143.898 190.204 147.218C199.549 152.018 212.22 153.077 220.968 147.947C224.112 146.008 226.879 143.515 229.132 140.588C228.025 145.178 227.896 150.211 230.794 153.89C224.886 157.174 218.376 159.234 211.654 159.947C205.614 160.492 201.847 159.469 201.715 159.989C201.475 160.517 210.906 164.848 225.456 159.704C225.353 160.827 225.023 161.918 224.487 162.91C223.339 165.083 203.56 164.86 203.526 165.937C203.487 167.236 217.917 167.399 221.563 166.837C222.878 169.535 224.825 171.877 227.238 173.662C229.652 175.446 232.461 176.622 235.426 177.088C222.172 181.609 201.384 177.316 201.258 179.278H201.262ZM237.921 176.099C234.842 175.76 231.879 174.73 229.254 173.085C226.629 171.44 224.41 169.224 222.762 166.601C223.956 166.388 225.078 165.883 226.03 165.131C230.976 169.722 237.533 172.179 244.278 171.967C242.397 173.682 240.248 175.078 237.916 176.099H237.921ZM245.421 170.789C238.659 170.698 232.113 168.391 226.789 164.221C227.261 163.399 227.583 162.499 227.739 161.564C228.559 157.141 226.345 160.051 233.391 156.11C238.504 158.918 244.729 155.981 249.048 151.445C249.867 158.482 250.023 165.545 245.413 170.789H245.421ZM256.125 130.118C255.345 138.818 246.043 153.79 237.388 153.427C227.082 152.996 232.455 129.44 246.168 119.977C248.136 118.709 249.537 118.66 249.526 118.351C249.631 117.893 245.575 116.836 238.689 123.547C242.058 112.481 237.604 105.319 237.312 105.455C236.167 105.887 245.007 116.369 229.092 137.017C222.781 145.163 216.897 149.122 206.119 148.702C184.158 147.965 171.724 126.605 173.194 118.321C173.546 117.34 174.154 116.472 174.957 115.808C179.955 138.496 208.023 157.993 226.185 132.055C234.505 119.86 234.064 112.483 226.774 102.13C218.13 89.9901 204.903 83.7201 197.203 83.9061C197.998 82.8602 198.971 81.9633 200.079 81.2571C203.006 80.7474 206.017 81.0675 208.771 82.1811C226.551 88.5021 236.761 105.215 237.121 105.044C238.647 104.564 227.862 86.1531 209.649 79.6581C208.063 79.1061 208.095 79.2696 208.759 79.1571C229.735 77.3286 244.011 86.9991 250.05 103.766C251.26 107.387 252.97 115.775 252.693 118.595C252.693 118.703 251.128 118.169 251.05 118.526C250.893 119.032 257.014 120.806 256.117 130.118H256.125Z" fill="black"/>
<path d="M106.068 92.6777C104.104 102.258 104.107 102.089 104.139 102.24C104.439 103.74 109.036 98.0132 114.246 97.4402C112.041 100.193 110.331 103.308 109.191 106.646L116.241 105.275C118.243 104.885 120.091 105.47 119.449 106.218C116.065 108.772 112.857 111.553 109.849 114.542C97.3754 126.758 97.8494 128.927 95.8634 131.688C94.8492 132.86 93.9012 134.087 93.0239 135.365C91.7399 137.652 91.3634 141.243 88.3844 140.093C85.6424 139.034 80.1629 138.171 79.9664 134.451C79.6769 129.024 88.4039 106.8 106.068 92.6777Z" fill="#24C4F9"/>
<path d="M73.3831 135.372C71.5996 131.461 80.229 134.551 81 134.559C83.4 134.572 84.0075 131.671 87.9795 129.858C90.108 128.886 89.7465 136.837 90.54 137.977C90.816 138.313 91.1614 138.585 91.5525 138.775C93.287 139.784 94.9382 140.93 96.4905 142.201C97.437 142.977 97.1505 143.628 96.0885 144.189C91.7715 146.467 90.0225 146.692 89.664 147.1C89.466 147.327 89.562 147.151 87.576 154.737C87.0555 156.727 83.475 152.106 81.9975 150.429C81.7382 150.023 81.3557 149.712 80.9061 149.54C80.4566 149.368 79.9638 149.344 79.5 149.473C78.522 149.568 72.8806 150.123 72.2566 149.362C71.1766 148.048 76.0216 142.945 76.0996 141.541C76.1806 140.193 73.3831 136.651 73.3831 135.372Z" fill="#FAE475"/>
<path d="M119.979 105.689C120.268 104.862 113.884 103.632 109.558 106.16C109.663 106.01 115.777 96.5897 115.375 96.2597C115.045 95.4947 107.64 98.9327 104.481 102.344C104.695 101.712 107.181 92.4437 106.446 92.2127C106.239 91.9382 89.9458 101.672 80.9758 126.351C80.1199 128.547 79.516 130.833 79.1758 133.166C75.6793 132.378 73.6693 131.409 72.4258 133.353C71.4388 134.895 72.2263 135.693 75.0223 141.753C71.6278 147.47 70.6843 148.29 71.6308 149.958C72.7333 151.895 74.3878 151.184 80.6713 150.441L85.0213 155.391C85.3329 155.744 85.7368 156.003 86.1874 156.138C86.6381 156.274 87.1177 156.281 87.5722 156.159C88.0267 156.037 88.438 155.79 88.7598 155.446C89.0817 155.103 89.3013 154.677 89.3938 154.215L90.6778 147.75L96.7333 145.143C97.1658 144.957 97.5375 144.653 97.8065 144.266C98.0754 143.88 98.2308 143.426 98.2551 142.955C98.2795 142.485 98.1718 142.017 97.9442 141.605C97.7166 141.193 97.3783 140.852 96.9673 140.622L92.5498 138.15C105.117 116.145 120.717 106.56 119.979 105.689ZM95.8948 143.18C88.4413 146.388 88.8238 146.147 88.7683 146.432C87.2278 154.278 87.3748 154.112 86.9233 154.112C86.3998 154.112 81.8863 148.136 81.3403 148.208C74.8003 149.063 73.9903 149.096 73.8313 149.096C72.8623 149.096 73.7008 148.176 77.3368 142.046C77.4868 141.794 77.6068 142.233 74.2093 134.865C74.1785 134.8 74.1667 134.727 74.1753 134.655C74.1839 134.583 74.2125 134.515 74.2579 134.459C74.3033 134.403 74.3635 134.36 74.4319 134.337C74.5002 134.313 74.5739 134.309 74.6443 134.325C80.2633 135.575 81.9058 135.987 82.0588 135.987C82.2793 135.987 81.8968 136.274 87.8368 130.782C87.8899 130.733 87.9556 130.7 88.0266 130.686C88.0975 130.673 88.1708 130.679 88.2383 130.705C88.3057 130.731 88.3645 130.775 88.4081 130.833C88.4517 130.891 88.4783 130.959 88.4848 131.031C89.2483 139.131 89.1223 138.672 89.3758 138.813C95.0398 141.987 96.9598 142.722 95.8948 143.18ZM91.1743 136.899L90.6133 130.838C90.5566 130.211 90.2667 129.628 89.8009 129.204C89.3352 128.781 88.7274 128.547 88.0978 128.55C86.7193 128.55 86.4988 129.117 81.5458 133.698L80.9218 133.557C81.306 131.316 81.9358 129.125 82.7998 127.022C89.0098 110.757 95.2498 103.67 105.655 93.2057C103.663 97.1477 103.255 103.145 103.986 103.185C104.245 103.52 106.786 101.964 109.897 100.068C115.029 96.9092 113.272 97.4402 111.075 100.901C109.168 103.875 108.465 106.715 108.855 106.844C109.015 107.25 111.441 106.577 114.435 106.22C116.58 105.933 118.447 105.995 119.373 105.902C112.672 109.427 99.3088 121.631 91.1743 136.899Z" fill="black"/>
<path d="M254.445 31.9258C252.319 28.1758 249.945 27.6298 246.153 26.2753C240.1 24.1108 235.257 22.5103 229.885 23.7763C213.157 27.7183 204.634 52.4638 213.247 62.9053C216.514 66.8683 229.543 71.0188 234.142 71.0188C249.676 71.0188 262.152 45.8218 254.445 31.9258Z" fill="#FAE475"/>
<path d="M255.231 31.4869C252.873 27.1369 249.362 26.5504 246.458 25.4209C242.108 23.8669 236.634 21.9589 232.02 22.4719C211.38 25.4404 203.616 53.8624 212.85 63.7894C215.906 67.6609 231.207 72.8389 235.925 71.7394C252.074 69.5614 262.673 45.1249 255.231 31.4869ZM246.57 35.8504C247.77 36.0694 249.441 36.2554 250.77 36.6004C252.228 36.9739 253.958 37.7044 255.135 38.0704C255.623 41.1861 255.551 44.3638 254.924 47.4544C248.499 46.9084 249.983 46.5244 245.9 45.1714C246.635 42.1224 246.861 38.9731 246.57 35.8504ZM254.807 36.3754C249.341 35.8804 250.388 35.5429 246.276 34.0204C245.757 31.108 244.298 28.4455 242.124 26.4394C241.334 25.8034 239.724 25.1539 245.753 27.3649C249.246 28.7299 253.079 29.1604 254.807 36.3724V36.3754ZM210.909 55.3654C210.246 50.5373 210.819 45.6199 212.574 41.0735C214.329 36.5271 217.209 32.5004 220.944 29.3704C234.444 18.1204 251.718 26.0434 243.21 49.6339C233.645 74.8804 212.918 68.6449 210.909 55.3624V55.3654ZM224.927 67.8979C227.984 67.8338 230.972 66.9729 233.595 65.4004C235.845 66.3124 236.679 65.4694 241.196 67.7824C235.572 70.7524 231.581 70.0504 224.927 67.8949V67.8979ZM242.889 66.7759C239.187 65.7904 240.072 66.7234 235.133 64.2019C237.252 62.3376 239.099 60.1845 240.618 57.8059C243.662 58.5559 242.654 57.3184 249.644 59.9284C247.852 62.6218 245.559 64.9455 242.889 66.7729V66.7759ZM250.578 58.4794C249.378 58.2949 247.446 58.1794 245.954 57.8209C244.461 57.4624 242.693 56.6569 241.544 56.2669C243.244 53.3067 244.565 50.1444 245.475 46.8544C249.263 47.7544 246.551 46.3669 254.582 48.9784C253.714 52.3214 252.365 55.5207 250.578 58.4764V58.4794Z" fill="black"/>
<path d="M221.411 64.1126C228.776 66.7166 236.466 56.6291 239.442 50.1356C243.873 40.3271 243.371 26.9081 232.731 26.5856C222.761 26.2616 216.171 40.2101 216.698 40.4426C217.022 40.5926 219.261 34.1966 226.011 29.5796C227.51 28.526 229.258 27.8828 231.082 27.7139C232.906 27.5449 234.742 27.8562 236.409 28.6166C249.878 35.5601 230.318 72.9476 218.532 60.9956C210.537 53.2676 218.399 36.6416 216.111 41.5136C212.436 49.3211 213.266 61.3121 221.411 64.1126Z" fill="black"/>
<path d="M223.4 46.3105L220.7 48.6355L223.233 58.2475C223.523 58.0105 222.368 58.9975 230.508 51.9745C230.557 51.9438 230.593 51.8965 230.609 51.8414C230.626 51.7863 230.622 51.727 230.598 51.6745C230.31 50.6095 229.724 48.3895 229.698 48.31C229.188 48.7825 230.498 47.6455 225.183 52.243C224.795 52.576 225.207 52.486 223.4 46.3105Z" fill="black"/>
<path d="M223.781 38.5245L224.708 42.021C224.826 41.9205 227.895 39.2715 229.289 38.0625C229.496 37.8825 229.31 37.9245 230.993 44.0625L233.693 41.7375L231.168 32.1465L223.781 38.5245Z" fill="black"/>
<path d="M226.31 48.1177L229.016 45.7732L228.089 42.2422L225.378 44.5822L226.31 48.1177Z" fill="black"/>
<path d="M235.277 47.7982L234.369 44.3242L231.693 46.6372L232.613 50.1112L235.277 47.7982Z" fill="black"/>
<path d="M221.709 40.2862C218.968 42.6487 219.055 42.4807 219.117 42.7072C220.059 46.2277 219.948 46.1422 220.116 45.9952C221.214 45.0427 222.603 43.8532 222.711 43.7452C221.734 40.0402 221.859 40.1527 221.709 40.2862Z" fill="black"/>
<path d="M191.55 51.768C204.478 42.516 197.28 7.5 177.219 7.5C172.072 7.89361 166.987 8.87242 162.062 10.4175C149.196 15.336 149.696 50.1915 169.239 56.3175C174.45 57.9585 187.461 54.69 191.55 51.768Z" fill="#FAE475"/>
<path d="M180.332 6.88706C175.902 5.96456 169.997 7.41506 165.546 8.51756C161.723 9.54206 159.02 9.94556 156.353 14.1396C147.597 27.9096 153.882 53.0751 169.625 57.3726C174.293 58.7586 185.445 55.8996 190.577 53.4441C205.224 46.4361 199.977 10.3596 180.332 6.88706ZM166.05 10.5426C173.202 8.70806 171.3 9.23156 170.205 9.98006C167.809 11.8193 166.025 14.3409 165.089 17.2131C160.958 18.2631 161.832 18.7611 156.479 18.6471C159.047 12.0681 162.119 11.5941 166.05 10.5426ZM155.901 20.3076C161.009 19.2996 156.906 19.5756 164.522 19.0281C163.746 22.2034 163.467 25.4799 163.697 28.7406C159.737 29.5791 160.947 30.2226 154.595 30.0471C154.483 26.75 154.926 23.4576 155.906 20.3076H155.901ZM154.685 31.6236C155.874 31.3746 157.451 30.9396 158.783 30.7686C160.475 30.5526 162.654 30.6381 163.844 30.4971C164.208 33.9758 164.999 37.3966 166.199 40.6821C165.027 40.9431 163.169 41.5641 161.634 41.7696C160.149 41.9691 158.27 41.8716 157.064 41.9196C155.785 38.6185 154.985 35.1513 154.689 31.6236H154.685ZM157.73 43.4991C164.859 41.6766 163.763 42.7371 166.862 42.3561C167.923 44.9806 169.387 47.4238 171.2 49.5981C165.941 51.6246 167.075 50.7756 163.197 51.3711C160.863 49.1424 159.003 46.4648 157.73 43.4991ZM164.666 52.5996C165.626 52.1956 166.618 51.8695 167.631 51.6246C169.307 51.2826 172.593 51.1971 172.526 50.9541C174.799 52.9474 177.616 54.2157 180.615 54.5961C171.191 56.6181 168.227 55.2741 164.666 52.5921V52.5996ZM196.23 42.9396C195.119 46.5726 193.107 50.1711 189.671 51.7506C187.236 53.1544 184.444 53.8141 181.638 53.6481C163.625 51.9591 157.509 11.6121 176.522 8.59556C189.3 7.99556 201.326 25.1061 196.23 42.9321V42.9396Z" fill="black"/>
<path d="M193.287 28.4442C191.406 21.6612 197.145 40.2222 188.178 47.9442C178.529 56.5302 168.828 37.4922 169.469 24.3747C170.246 9.95367 183.869 6.39417 191.421 23.5872C192.426 25.9242 192.771 27.3057 192.884 27.2757C192.728 25.9452 192.397 24.641 191.901 23.3967C186.671 9.22917 175.685 8.50767 171.173 15.0492C165.126 23.5197 168.537 39.3207 176.34 48.0927C184.892 57.6792 197.717 44.5242 193.287 28.4442Z" fill="black"/>
<path d="M179.159 31.6968C179.917 32.0193 180.725 32.211 181.547 32.2638C183.605 32.2638 185.597 29.8068 186.423 28.1793C186.641 27.7548 186.687 28.1613 185.849 26.1273C184.23 22.2549 182.26 18.5393 179.961 15.0273C178.106 19.7709 176.677 24.6702 175.691 29.6673C175.97 30.4293 176.231 30.7848 179.159 31.6968ZM180.192 18.2778C182.088 21.2903 183.682 24.4816 184.953 27.8058C182.649 31.8018 181.053 30.7503 179.595 30.2913C178.783 30.0615 177.993 29.7604 177.234 29.3913C177.942 25.6182 178.93 21.9033 180.192 18.2778Z" fill="black"/>
<path d="M187.373 29.873C181.106 34.9235 185.639 35.777 175.488 31.988C175.909 33.7651 176.653 35.4496 177.683 36.9575C178.413 38.195 182.994 45.791 184.433 45.86C187.2 45.785 187.124 32.933 187.373 29.873ZM185.681 35.1395C185.286 39.659 185.271 42.095 184.305 44.039C182.32 41.5723 180.529 38.9549 178.949 36.2105C176.922 32.7605 178.538 35.885 182.457 35.7725C185.4 35.699 186.011 31.349 185.681 35.1395Z" fill="black"/>
<path d="M133.39 61.706C148.462 48.6845 134.301 7.625 109.579 7.625C102.33 7.625 88.5987 14.4485 87.7902 14.9315C81.9597 18.3995 80.1402 26.732 80.1252 33.4385C80.0577 56.2055 97.6662 74.0105 111.15 71.51C118.419 70.1435 129.399 65.15 133.39 61.706Z" fill="#FAE475"/>
<path d="M116.169 7.7996C108.163 4.8626 99.8354 8.5046 91.8899 11.9996C87.9809 13.8086 84.3074 14.7566 81.5489 21.0761C72.7589 41.7926 90.0329 78.0551 114.568 71.6096C120.327 70.0271 129.459 66.2426 134.34 62.0186C147.522 50.6126 138.052 13.9496 116.169 7.7996ZM87.5414 17.3081C89.1764 15.9011 97.4099 12.4631 99.2759 11.7341C95.9688 14.658 93.8157 18.6677 93.2054 23.0396C88.3124 25.2311 89.4359 25.7006 82.6934 26.7176C83.2115 23.1271 84.9184 19.8141 87.5414 17.3081ZM82.3289 28.9316C88.3949 26.6081 83.3909 27.8066 92.9039 25.4426C92.6256 29.6065 92.9868 33.7885 93.9749 37.8431C89.1749 39.7646 90.8249 40.3061 82.8089 41.4701C81.9471 37.3471 81.7848 33.1085 82.3289 28.9316ZM83.2634 43.4351C84.7064 42.8621 86.5949 41.9711 88.2344 41.4671C90.3149 40.8266 93.0779 40.4576 94.5344 40.0226C95.7516 44.3191 97.4916 48.45 99.7154 52.3226C98.2979 52.9046 96.0959 54.0911 94.2104 54.6836C92.3834 55.2596 89.9969 55.5476 88.4909 55.8671C86.1642 51.9937 84.4039 47.8073 83.2634 43.4351ZM89.6759 57.7046C91.2476 56.921 92.8622 56.2264 94.5119 55.6241C96.6869 54.9401 99.6119 54.6716 100.914 54.2741C102.822 57.3451 105.197 60.1006 107.952 62.4416C101.764 66.1421 103.017 64.8206 98.2694 66.4151C94.8467 64.121 91.9235 61.158 89.6759 57.7046ZM100.384 67.6496C101.505 66.9317 102.682 66.3057 103.903 65.7776C106.062 64.9331 110.053 64.1711 109.915 63.8666C113.207 65.8933 117.035 66.8759 120.895 66.6851C109.426 71.3066 105.417 70.2266 100.384 67.6496ZM131.658 61.1336C128.376 63.3836 125.908 64.9721 121.966 65.2706C113.566 65.9261 108.016 61.6871 103.254 54.8126C86.0624 29.8496 95.3204 -0.523901 120.426 12.1496C141.066 24.1931 142.335 53.8016 131.658 61.1261V61.1336Z" fill="black"/>
<path d="M131.133 31.0263C129.565 27.7098 131.197 32.1228 131.865 34.7463C133.624 41.8773 133.59 51.0318 128.952 56.6673C118.683 69.5748 102.333 47.7483 100.278 31.0893C98.1285 12.8733 114.414 5.22634 127.728 25.3158C129.501 28.0368 130.239 29.7003 130.371 29.6388C129.887 27.9978 129.187 26.4282 128.29 24.9708C118.612 8.26233 104.635 9.79533 100.39 18.9843C92.784 35.3238 109.284 60.4248 119.788 62.0478C131.295 64.0503 138.351 46.3218 131.133 31.0263Z" fill="black"/>
<path d="M118.964 34.5443C119.931 33.6499 120.629 32.5034 120.98 31.2338C121.332 29.9641 121.322 28.6217 120.952 27.3573C120.582 26.093 119.867 24.9569 118.887 24.0767C117.907 23.1965 116.701 22.6071 115.404 22.3748C115.169 20.0033 113.613 18.6068 113.202 18.8948C112.803 19.1558 113.202 20.4203 113.594 21.8843C113.756 22.4603 113.919 22.0343 111.344 22.2743C110.55 18.2363 108.615 18.5123 109.673 22.5173C108.997 22.7724 108.34 23.0731 107.706 23.4173C108.447 26.3543 111.006 32.4863 112.251 37.5173C113.496 42.5483 114.665 49.1843 115.767 52.0673C118.004 51.2393 117.504 51.2498 117.824 52.1843C118.671 54.6788 120.899 55.9943 119.427 51.6383C119.321 51.3218 119.294 51.3833 119.483 51.3623C122.183 51.0623 121.724 50.5178 121.931 51.1943C123.302 55.5833 124.44 53.5448 123.551 50.6993C123.347 50.0273 123.282 50.2193 123.603 50.0123C129.572 46.2773 124.601 36.6233 118.964 34.5443ZM111.552 25.3943C113.621 24.7643 115.551 24.2498 117.368 25.2023C118.251 25.6524 118.946 26.4019 119.328 27.3168C119.709 28.2318 119.754 29.2527 119.453 30.1973C118.445 33.0833 114.983 33.3668 112.983 33.8633C112.418 30.9083 111.969 27.8078 111.552 25.3913V25.3943ZM117.803 48.1493C116.219 44.7174 114.879 41.1782 113.793 37.5578C115.407 36.9733 117.15 36.8395 118.835 37.1708C124.868 39.0428 128.805 49.1723 117.803 48.1493Z" fill="black"/>
<path d="M39.9147 43.0075C34.7742 44.731 23.6997 52.4065 21.8997 54.664C10.1997 69.2725 30.7347 113.851 57.4137 113.286C62.9742 113.169 74.4507 105.559 79.8372 100.063C96.0807 83.4835 66.8997 33.9565 39.9147 43.0075Z" fill="#FAE475"/>
<path d="M46.3948 82.5014C50.2498 88.0964 60.2428 98.5814 66.9928 99.0524C71.0428 99.3344 73.9108 96.7754 75.5293 93.1139C81.5773 79.4339 66.9793 58.7189 71.2753 64.7249C77.9863 74.0924 82.1638 91.4849 73.2718 98.7494C70.2253 101.236 65.4718 101.682 60.3523 98.4614C38.7088 84.8504 28.0333 52.3154 44.5093 47.3804C57.4603 43.5014 70.7548 62.9564 70.1728 63.3524C69.7693 63.6284 64.8658 54.9659 54.6913 49.8434C48.8923 46.9229 43.0723 48.4934 40.4893 51.7649C34.6753 59.1269 40.5118 73.9664 46.3948 82.5014Z" fill="black"/>
<path d="M38.0069 42.7929C32.793 45.464 27.8239 48.588 23.1569 52.1289C8.35942 64.1829 25.2794 108.149 52.6439 113.929C55.2272 114.393 57.8791 114.308 60.4274 113.68C64.6514 112.364 71.7944 108.479 79.5419 101.635C80.8344 100.453 81.9337 99.0757 82.7999 97.5534C94.0904 77.9259 64.7999 31.1349 38.0069 42.7929ZM27.7499 52.3644C29.9339 50.8149 32.0774 49.2999 34.2374 47.9589C31.3636 51.9308 30.0673 56.8284 30.5999 61.7019C26.1284 64.8744 27.2339 65.1819 20.8169 67.2984C20.4209 57.1914 24.0914 54.9759 27.7499 52.3644ZM20.9744 69.6429C22.3334 68.8044 24.2129 67.3659 25.8839 66.4584C27.4094 65.6304 29.4059 64.9014 30.8339 64.2579C31.5611 69.0025 32.9644 73.6184 35.0009 77.9649C30.8804 80.6379 32.0519 81.1914 24.6029 83.5809C22.688 79.1477 21.4643 74.4471 20.9744 69.6429ZM25.4999 85.5459C26.8274 84.7074 28.5119 83.4939 30.0284 82.7079C31.9784 81.6999 34.6604 80.8539 36.0614 80.1579C38.3568 84.77 41.1667 89.1076 44.4374 93.0879C43.0964 93.8919 41.1134 95.4324 39.3509 96.3609C37.6604 97.2504 35.3909 97.9884 33.9509 98.6229C30.5844 94.6447 27.7441 90.2495 25.4999 85.5459ZM35.4869 100.34C42.3284 95.1969 41.7209 96.8784 46.0454 94.9674C48.752 98.091 51.8948 100.808 55.3769 103.034C50.1134 107.842 51.1169 106.31 46.5149 108.859C42.3397 106.729 38.5974 103.84 35.4794 100.34H35.4869ZM56.4869 111.259C53.8734 111.24 51.2836 110.761 48.8369 109.841C53.7869 105.265 55.1489 106.136 57.6749 104.263C61.5047 106.022 65.7993 106.501 69.9224 105.628C66.6584 107.756 60.3404 111.412 56.4719 111.259H56.4869ZM80.5124 96.2364C79.7571 97.4918 78.8228 98.6303 77.7389 99.6159C74.5889 102.335 73.6364 103.448 69.7889 104.176C60.8894 105.904 54.4289 101.314 48.2579 94.7679C35.5364 80.7414 23.7869 53.7669 40.2569 44.8344C63.2864 35.8329 91.7414 77.3214 80.5124 96.2364Z" fill="black"/>
<path d="M61.9707 75.692C56.0037 79.8095 56.4597 79.778 55.6977 79.382C50.2857 76.571 50.3532 76.7735 50.2017 76.3385C50.0502 75.9035 49.3017 76.6565 61.2852 68.3375C61.7352 68.027 61.7037 68.177 67.1877 70.9685C68.4222 71.597 67.7187 71.723 61.9707 75.692Z" fill="black"/>
<path d="M47.9699 73.1037C47.6294 72.8157 47.7944 73.1037 47.0699 66.8622C46.9709 66.0102 46.3079 66.7122 58.2479 58.5477C59.0564 57.9957 59.0909 59.8167 59.1839 60.6552C59.6474 64.8552 59.8469 65.2857 59.3744 65.6052C47.3699 73.8012 48.2999 73.3827 47.9699 73.1037Z" fill="black"/>
<path d="M69.8909 74.6745C70.2149 74.9745 70.0964 74.763 70.7909 81.0345C70.8674 81.7215 71.5739 81.0165 59.5544 89.25C59.1749 89.5095 58.8869 89.1 58.8359 88.6365C58.1924 82.7385 58.0034 82.4865 58.4654 82.176C70.5554 73.854 69.6074 74.4165 69.8909 74.6745Z" fill="black"/>
<path d="M278.214 198.366L272.624 195.897C268.593 204.684 238.424 274.674 237.683 275.697C237.342 275.046 227.159 235.235 227.144 234.935C227.144 234.897 227.025 235.644 227.019 235.59C226.983 235.613 227.042 234.858 226.965 234.932C219.087 245.031 218.403 246.206 213.978 252.276C213.497 250.514 207.84 230.3 207.794 230.063C205.394 231.347 187.728 246.33 187.152 245.75C186.519 245.114 195.852 234.5 210.009 223.1C210.395 224.355 212.331 230.559 212.331 230.559C216.363 242.432 215.75 241.323 216.294 240.275L229.605 222.165L239.066 258.393C239.066 258.393 264.842 199.047 267.351 193.575L261.822 191.135C261.526 191.004 261.273 190.792 261.093 190.523C260.912 190.254 260.812 189.939 260.803 189.615C260.794 189.292 260.877 188.972 261.043 188.694C261.208 188.415 261.45 188.19 261.738 188.043L274.682 181.461C274.911 181.345 275.164 181.281 275.421 181.276C275.678 181.27 275.934 181.323 276.168 181.43C276.402 181.537 276.609 181.695 276.773 181.893C276.938 182.091 277.056 182.323 277.118 182.573L280.568 196.391C280.645 196.701 280.633 197.027 280.533 197.331C280.434 197.636 280.252 197.906 280.007 198.112C279.762 198.317 279.464 198.45 279.147 198.495C278.83 198.54 278.507 198.495 278.214 198.366Z" fill="#FAE475"/>
<path d="M275.456 181.27C277.256 181.27 276.882 181.635 280.566 196.386C280.644 196.697 280.633 197.023 280.534 197.328C280.435 197.632 280.253 197.903 280.008 198.11C279.763 198.316 279.465 198.449 279.148 198.495C278.831 198.54 278.507 198.495 278.214 198.366L272.624 195.897C268.595 204.684 238.424 274.674 237.683 275.697C237.293 274.947 227.202 234.931 226.965 234.931C216.857 248.064 221.093 242.517 213.978 252.276C213.497 250.513 207.84 230.301 207.794 230.062C205.587 231.243 187.694 246.292 187.152 245.749C186 244.596 201.18 230.56 203.922 228.13C204.2 227.884 208.502 224.314 210.009 223.101C210.395 224.356 212.331 230.56 212.331 230.56C216.366 242.448 215.75 241.323 216.294 240.276L229.605 222.166L239.066 258.394C239.066 258.394 264.842 199.048 267.351 193.576L261.822 191.136C261.526 191.005 261.273 190.793 261.092 190.524C260.912 190.255 260.811 189.941 260.803 189.617C260.794 189.293 260.877 188.973 261.043 188.695C261.208 188.417 261.449 188.191 261.738 188.044C275.811 180.883 274.875 181.27 275.456 181.27ZM275.456 178.752C274.023 178.752 274.361 178.795 260.597 185.794C259.883 186.157 259.288 186.715 258.879 187.402C258.469 188.09 258.264 188.88 258.286 189.679C258.308 190.479 258.556 191.256 259.002 191.921C259.448 192.585 260.073 193.109 260.805 193.432L264 194.844C261.888 199.476 242.478 244.174 239.67 250.668L230.7 216.421L216.654 235.455C213.338 225.498 214.554 229.317 211.325 218.805C203.83 224.63 196.759 230.98 190.164 237.807C185.075 243.244 183.351 245.494 185.364 247.521C188.178 250.353 191.333 245.752 206.253 234.261C206.553 235.311 212.928 257.985 212.928 257.985L225.902 240.379C236.538 281.755 234.245 274.557 237.327 280.447C240.581 275.991 240.935 275.872 243.093 270.133C244.817 265.545 273.627 199.759 273.878 199.206C277.298 200.716 277.743 201.034 278.907 201.034C279.549 201.033 280.182 200.886 280.758 200.604C281.335 200.322 281.84 199.913 282.235 199.407C282.63 198.901 282.904 198.312 283.038 197.685C283.172 197.057 283.161 196.407 283.007 195.784L279.557 181.968C279.331 181.051 278.804 180.235 278.061 179.652C277.318 179.069 276.4 178.752 275.456 178.752Z" fill="black"/>
</svg>
