<svg width="80" height="80" viewBox="0 0 80 80" fill="none" xmlns="http://www.w3.org/2000/svg">
<path fill-rule="evenodd" clip-rule="evenodd" d="M55.1765 10.0401C42.6507 7.9852 43.9278 28.555 27.2612 25.7396C10.2141 22.8599 5.11899 43.1742 10.2141 54.3951C15.717 66.5143 50.9537 73.0294 63.5598 64.0954C77.748 54.0403 78.6785 13.8957 55.1765 10.0401Z" fill="#24C4F9"/>
<path fill-rule="evenodd" clip-rule="evenodd" d="M27.3582 32.124C27.3582 32.124 28.7964 35.26 30.0456 36.7138C31.8183 38.7768 34.3496 40.4906 35.3002 42.0995C37.5588 45.9227 36.557 47.7928 36.557 47.7928C36.557 47.7928 35.3638 43.6714 33.6535 41.6585C32.3481 40.1222 29.7842 38.4183 28.9272 37.1566C27.3834 34.8838 26.5859 32.7064 26.5859 32.7064L27.3582 32.124Z" fill="white"/>
<path d="M45.115 65.5019C39.2178 65.7773 33.3249 66.1427 27.4388 66.5978C26.684 66.6723 26.1255 66.6835 26.1553 66.7636C25.6247 66.7299 24.6654 66.4412 24.1078 66.6723C24.5278 66.7697 25.3219 67.141 25.3691 67.5697C19.8145 67.89 14.229 67.6739 8.71582 66.9252C14.1139 67.2931 19.5285 67.4194 24.9379 67.3035C24.2408 66.8356 23.3443 66.6764 22.5287 66.8756C23.58 66.3673 24.7983 66.2123 25.9433 66.4412C25.0696 65.4638 24.4906 64.2264 24.3001 62.9294C25.1728 63.5262 25.8708 64.3755 26.2874 65.3473C26.2475 63.5206 27.5402 61.7457 29.291 61.2231C28.1729 62.6471 27.5819 64.4756 27.655 66.2846C33.2448 65.8071 38.8468 65.4731 44.4537 65.2831C44.1769 65.0636 43.9887 64.7355 43.9389 64.3858C44.213 64.1519 44.618 64.083 44.954 64.2133C45.2007 62.2603 46.5593 60.4868 48.3807 59.7402C47.3662 60.886 46.6614 62.3034 46.3602 63.8039C46.6731 63.6143 47.0693 63.5684 47.4173 63.6813C47.3181 64.1044 47.0699 64.491 46.7264 64.7573C53.6688 63.1705 60.9565 65.8739 68.0086 64.8823C64.4487 66.0336 60.6021 65.141 56.8808 64.7538C51.4332 64.2133 46.2013 65.2831 45.115 65.5019Z" fill="white"/>
<path d="M59.8046 23.2746C59.8656 22.6935 60.3659 22.258 60.8789 21.9785C61.8068 21.4729 62.8994 21.2756 63.9455 21.4247C64.4192 21.4922 64.7804 21.0409 65.1188 20.7027C65.9973 19.8248 67.3398 19.5043 68.565 19.7071C69.7902 19.9099 70.9003 20.5867 71.7945 21.4485C72.6887 22.3103 73.3866 23.3531 74.0326 24.4138C74.1681 24.6363 74.4824 24.6422 74.7425 24.6294C75.304 24.6019 75.8948 24.6174 76.3853 24.892C76.8757 25.1666 77.2204 25.7762 77.022 26.3021C76.929 26.5484 76.7316 26.7447 76.5062 26.8807C76.0565 27.1518 75.5112 27.1984 74.9876 27.2384C71.4958 27.505 68.0041 27.7717 64.5124 28.0383C63.557 28.1112 62.5866 28.1833 61.6484 27.989C60.7101 27.7946 59.7916 27.2946 59.3112 26.4655C58.8309 25.6364 58.9113 24.4554 59.6481 23.8429C59.8038 23.7135 59.7834 23.4759 59.8046 23.2746" fill="white"/>
<path d="M48.1176 28.6241C48.8797 29.4996 52.8135 29.193 52.941 30.7946C52.4904 30.9183 52.0397 31.0419 51.589 31.1655C50.8563 31.3665 50.1153 31.5708 49.4524 31.9421C49.1414 32.1164 48.7715 32.3318 48.4552 32.1674C47.2319 31.5317 45.8093 31.3341 44.4369 31.4653C43.0645 31.5966 41.7371 32.0437 40.4917 32.635C39.8415 32.9437 39.1088 33.3001 38.4358 33.045C35.9788 32.1134 33.1758 32.1297 30.7297 33.0898C30.2961 33.26 29.8126 33.0711 29.3858 32.8843C28.9242 32.6823 28.4626 32.4804 28.001 32.2784C28.5963 31.5974 31.1414 30.6502 31.6603 29.9912C31.7515 29.8754 35.1499 27.5187 38.8765 28.5835C39.0435 28.5051 44.8393 27.5187 48.1176 28.6241Z" fill="white"/>
<path fill-rule="evenodd" clip-rule="evenodd" d="M32.8847 39.7532C30.7239 37.6993 28.2291 35.6203 27.6472 32.6964C28.7152 35.4394 31.0869 37.414 33.1669 39.4968C35.2469 41.5796 37.2171 44.1776 37.0886 47.1183C40.4896 46.3759 44.014 46.2018 47.4715 46.6056C47.826 45.0094 48.8577 43.6656 49.6672 42.245C51.674 38.7234 52.3525 34.6236 52.9973 30.6219C53.1603 29.6102 51.9216 29.0105 50.9286 28.7575C49.9368 28.5047 48.9449 28.252 47.9531 27.9993C46.0892 27.5243 44.158 27.046 42.2621 27.3708C40.98 27.5904 39.7139 28.1746 38.4317 27.9558C36.3908 27.6077 34.2254 28.0486 32.4831 29.1671C31.6072 29.7294 30.8288 30.4583 29.8727 30.8697C27.8604 31.7355 26.0879 33.1512 24.7988 34.9224C24.1253 31.4386 25.26 27.8732 26.5867 24.5822C28.0697 20.9032 29.9313 17.1809 33.1221 14.8245C37.8003 11.3696 43.8996 12.0421 48.7661 15.2263C53.6325 18.4105 56.6061 23.6614 57.567 29.3971C57.6788 30.0642 57.758 30.7863 57.4439 31.3853C57.1298 31.9844 57.0113 32.3311 56.4993 31.8891C56.0627 31.5124 55.5982 31.1216 55.0318 31.0132C54.4655 30.9047 53.7784 31.199 53.6685 31.7651C52.8644 35.9109 52.0199 40.1619 49.7857 43.7456C49.2038 44.6788 48.5263 45.5698 48.1563 46.6055C47.8732 47.398 47.7819 48.2439 47.6927 49.0807C47.5068 50.8243 47.3209 52.5678 47.135 54.3114C47.0567 55.0463 46.9474 55.8466 46.4121 56.3562C45.9008 56.8427 45.14 56.9302 44.437 56.9927C42.154 57.1954 39.8709 57.3982 37.5879 57.601C37.1796 57.6372 36.7166 57.6558 36.4184 57.3745C36.1887 57.1578 36.125 56.8223 36.0798 56.5097C35.7591 54.2915 35.7592 52.0272 36.0801 49.809C36.5405 46.6265 35.1163 43.3704 32.8729 41.0665C31.7038 39.8658 30.3252 38.8843 29.1581 37.6818C27.9909 36.4793 27.014 34.9679 26.944 33.2936C27.7382 35.4941 29.2017 37.4481 31.0901 38.8291C33.9122 40.8929 35.9228 44.0372 36.6123 47.4647C37.1543 44.5332 35.0456 41.807 32.8847 39.7532Z" fill="white"/>
<path fill-rule="evenodd" clip-rule="evenodd" d="M27.0458 46.4525C26.7034 46.2647 26.5772 45.8437 26.4872 45.4637C26.0455 43.5992 25.7225 41.7066 25.521 39.8012C25.5082 39.68 25.5023 39.5401 25.5905 39.4561C25.7793 39.6787 25.8126 39.9898 25.8416 40.2803C26.05 42.3691 26.4537 44.4385 27.0458 46.4525Z" fill="#00160A"/>
<path fill-rule="evenodd" clip-rule="evenodd" d="M54.2012 40.1009C54.5116 39.0631 54.7404 38.0009 54.8848 36.9273C54.9044 36.782 54.9591 36.5991 55.1053 36.5879C55.1907 36.6625 55.1825 36.7953 55.1663 36.9076C55.0288 37.8648 54.8325 38.8136 54.5788 39.7468C54.5274 39.9362 54.3833 40.174 54.2012 40.1009H54.2012Z" fill="#00160A"/>
<path fill-rule="evenodd" clip-rule="evenodd" d="M46.292 65.0494C46.4613 64.5896 46.7715 64.1828 47.1699 63.8977C46.7465 63.9236 46.3346 64.108 46.0333 64.4066C46.1993 63.105 46.6157 61.8357 47.2528 60.6886C46.0741 61.6561 45.3134 63.1164 45.1959 64.6368C44.9151 64.4731 44.5649 64.4336 44.2547 64.5305C44.5414 64.8543 44.8282 65.1781 45.115 65.5019C39.2178 65.7773 33.3249 66.1427 27.4388 66.5978C27.1328 64.9712 27.5307 63.2244 28.5111 61.8908C27.2174 62.8032 26.4188 64.378 26.4472 65.9608C25.8704 65.1914 25.583 64.0923 24.7168 63.6526C24.8701 64.4066 25.0471 64.5762 26.0646 66.5239C26.1062 66.6035 26.1255 66.6835 26.1553 66.7636C25.6247 66.7299 24.6654 66.4412 24.1078 66.6723C24.5278 66.7697 25.3219 67.141 25.3691 67.5697C19.8145 67.89 14.229 67.6739 8.71582 66.9252C14.1139 67.2931 19.5285 67.4194 24.9379 67.3035C24.2408 66.8356 23.3443 66.6764 22.5287 66.8756C23.58 66.3673 24.7983 66.2123 25.9433 66.4412C25.0696 65.4638 24.4906 64.2264 24.3001 62.9294C25.1728 63.5262 25.8708 64.3755 26.2874 65.3473C26.2475 63.5206 27.5402 61.7457 29.291 61.2231C28.1729 62.6471 27.5819 64.4756 27.655 66.2846C33.2448 65.8071 38.8468 65.4731 44.4537 65.2831C44.1769 65.0636 43.9887 64.7355 43.9389 64.3858C44.213 64.1519 44.618 64.083 44.954 64.2133C45.2007 62.2603 46.5593 60.4868 48.3807 59.7402C47.3662 60.886 46.6614 62.3034 46.3602 63.8039C46.6731 63.6143 47.0693 63.5684 47.4173 63.6813C47.3181 64.1044 47.0699 64.491 46.7264 64.7573C53.6688 63.1705 60.9565 65.8739 68.0086 64.8823C64.4487 66.0336 60.6021 65.141 56.8808 64.7538C53.3586 64.3873 49.7882 64.487 46.292 65.0494Z" fill="#00160A"/>
<path fill-rule="evenodd" clip-rule="evenodd" d="M49.4179 39.665C49.503 39.7902 49.4763 39.9576 49.442 40.105C49.2358 40.9902 48.8725 41.8385 48.374 42.5985C48.2353 42.4256 48.3628 42.1752 48.4795 41.9868C48.7902 41.4855 49.0184 40.9332 49.1523 40.3588C49.2092 40.1151 49.255 39.855 49.4179 39.665H49.4179Z" fill="#00160A"/>
<path fill-rule="evenodd" clip-rule="evenodd" d="M48.0896 41.2724C47.9614 41.1617 48.0188 40.9558 48.0802 40.7979C48.2776 40.2909 48.4103 39.7587 48.4741 39.2183C48.4952 39.0392 48.5288 38.8283 48.6904 38.748C48.7665 38.8168 48.755 38.9372 48.7374 39.0382C48.6035 39.8058 48.4642 40.5892 48.0896 41.2724Z" fill="#00160A"/>
<path fill-rule="evenodd" clip-rule="evenodd" d="M37.4162 44.1338C37.4538 44.1002 37.5123 44.1347 37.5471 44.1712C37.7033 44.3348 37.7964 44.5571 37.8033 44.7832C37.5944 44.6712 37.4412 44.4604 37.3992 44.2271C37.3934 44.1945 37.3915 44.1559 37.4162 44.1338L37.4162 44.1338Z" fill="#00160A"/>
<path fill-rule="evenodd" clip-rule="evenodd" d="M53.861 37.2783C53.8053 38.2639 53.5802 39.2398 53.1986 40.1502C53.1888 40.1737 53.1782 40.1981 53.1588 40.2148C53.1022 40.2636 53.0066 40.211 52.9863 40.139C52.966 40.067 52.9949 39.9913 53.0224 39.9218C53.2916 39.2404 53.4702 38.5233 53.552 37.7953C53.5763 37.5788 53.6446 37.3036 53.861 37.2783L53.861 37.2783Z" fill="#00160A"/>
<path fill-rule="evenodd" clip-rule="evenodd" d="M37.0519 42.4337C36.6852 41.9379 36.3903 41.3891 36.1792 40.8097C36.152 40.7352 36.1686 40.6095 36.2451 40.6302C36.274 40.638 36.2911 40.6667 36.3052 40.693C36.6236 41.2868 36.942 41.8805 37.2605 42.4742C37.2443 42.5635 37.1059 42.5067 37.0519 42.4337H37.0519Z" fill="#00160A"/>
<path fill-rule="evenodd" clip-rule="evenodd" d="M26.6103 32.1305C26.4419 32.0432 26.4351 31.8083 26.4553 31.6196C26.8322 28.1027 28.5444 24.7453 31.1698 22.375C31.2302 22.8212 30.8858 23.2076 30.5804 23.5385C28.4051 25.8949 26.9949 28.9467 26.6103 32.1305Z" fill="#00160A"/>
<path fill-rule="evenodd" clip-rule="evenodd" d="M48.6808 32.1269C48.7288 30.9722 48.5357 29.7013 48.1176 28.6238C48.8797 29.4993 48.9113 30.7731 48.9032 31.9338C50.119 31.2107 51.5266 30.8135 52.941 30.7944C52.4904 30.918 52.0397 31.0416 51.589 31.1652C50.8563 31.3662 50.1153 31.5705 49.4524 31.9418C49.1414 32.1161 48.7715 32.3315 48.4552 32.1671C47.2319 31.5314 45.8093 31.3338 44.4369 31.465C43.0645 31.5963 41.7371 32.1501 40.4917 32.7414C39.8415 33.05 39.1088 33.4065 38.4358 33.1513C35.9788 32.2197 33.1758 32.1294 30.7297 33.0895C30.2961 33.2597 29.8126 33.0708 29.3858 32.884C28.9242 32.682 28.4626 32.4801 28.001 32.2781C28.5376 32.3907 29.8701 32.87 29.8701 32.87C29.8701 32.87 30.254 32.9164 30.3748 32.769C30.4956 32.6216 30.5338 32.4256 30.5773 32.2401C30.7689 31.4235 31.1414 30.6499 31.6603 29.9909C31.7515 29.8751 31.9467 29.767 32.0193 29.8952C31.3012 30.7275 30.8224 31.7639 30.6542 32.8503C33.2714 31.8631 36.258 31.8943 38.8541 32.9358C39.1021 31.4995 39.1097 30.022 38.8765 28.5832C39.0435 28.5048 39.1661 28.7536 39.1825 28.9374C39.3022 30.2755 39.2807 31.6262 39.1185 32.9598C40.6199 32.2345 42.177 31.5792 43.8233 31.3147C45.4696 31.0502 47.2269 31.3105 48.6808 32.1269Z" fill="#00160A"/>
<path fill-rule="evenodd" clip-rule="evenodd" d="M29.5972 29.2599C30.3821 27.0137 31.6056 24.9217 33.1785 23.1363C33.2938 23.0054 33.4309 22.8664 33.6053 22.8605C33.7796 22.8545 33.9433 23.0824 33.8203 23.2061C32.0107 25.0255 30.5992 27.2388 29.7129 29.6469C29.5534 29.6511 29.5446 29.4106 29.5972 29.2599H29.5972Z" fill="#00160A"/>
<path fill-rule="evenodd" clip-rule="evenodd" d="M27.118 39.3748C27.1409 39.4027 27.1435 39.4416 27.1454 39.4777C27.2207 40.9737 27.6009 42.4355 27.9791 43.8848C27.9952 43.9467 27.9049 43.9914 27.8482 43.9619C27.7915 43.9323 27.7667 43.8658 27.7469 43.805C27.3058 42.4471 27.0242 41.0375 26.9099 39.6144C26.9042 39.5434 26.9002 39.4669 26.938 39.4066C26.9758 39.3463 27.0729 39.3197 27.118 39.3748H27.118Z" fill="#00160A"/>
<path fill-rule="evenodd" clip-rule="evenodd" d="M38.9352 27.2274C38.7777 27.2339 38.7263 27.0198 38.7286 26.8622C38.7525 25.2146 38.7763 23.567 38.8002 21.9194C38.8028 21.7374 38.8521 21.5005 39.0329 21.4805C39.1937 21.6688 39.1902 21.9426 39.1783 22.1899C39.0973 23.8691 39.0162 25.5482 38.9352 27.2274Z" fill="#00160A"/>
<path fill-rule="evenodd" clip-rule="evenodd" d="M54.1062 29.7487C54.4553 29.1819 54.4318 28.4686 54.373 27.8055C54.2699 26.644 54.0931 25.4891 53.844 24.3499C53.8202 24.2407 53.8059 24.1031 53.8978 24.0396C53.9738 23.9871 54.0849 24.0234 54.1444 24.094C54.2039 24.1646 54.2248 24.2591 54.243 24.3497C54.5288 25.7659 54.6589 27.2134 54.6303 28.6578C54.6197 29.1949 54.5317 29.825 54.0602 30.0825C53.9696 29.9999 54.0419 29.8532 54.1062 29.7487H54.1062Z" fill="#00160A"/>
<path fill-rule="evenodd" clip-rule="evenodd" d="M48.5761 25.9315C48.6947 26.4581 48.6444 27.0214 48.4344 27.5188C48.2903 27.3639 48.3308 27.121 48.3558 26.9109C48.4527 26.0947 48.1669 25.2819 47.8155 24.5389C47.464 23.796 47.0394 23.0786 46.8281 22.2843C46.7964 22.1648 46.8012 21.9917 46.9231 21.9706C47.026 21.9527 47.0961 22.0692 47.1345 22.1663C47.5294 23.1668 47.9244 24.1673 48.3193 25.1679C48.418 25.4179 48.5171 25.6692 48.5761 25.9315Z" fill="#00160A"/>
<path fill-rule="evenodd" clip-rule="evenodd" d="M59.2714 22.9543C59.3324 22.3732 59.8327 21.9377 60.3457 21.6582C61.2736 21.1526 62.3662 20.9553 63.4123 21.1044C63.886 21.1719 64.2472 20.7206 64.5856 20.3823C65.4641 19.5045 66.8066 19.184 68.0318 19.3868C69.257 19.5896 70.3671 20.2664 71.2613 21.1282C72.1555 21.99 72.8534 23.0328 73.4994 24.0935C73.6349 24.3159 73.9492 24.3219 74.2093 24.3091C74.7708 24.2816 75.3616 24.2971 75.8521 24.5717C76.3425 24.8463 76.6872 25.4559 76.4888 25.9818C76.3958 26.2281 76.1984 26.4244 75.973 26.5603C75.5233 26.8315 74.978 26.8781 74.4544 26.9181C70.9626 27.1847 67.4709 27.4513 63.9792 27.718C63.0238 27.7909 62.0534 27.863 61.1152 27.6686C60.1769 27.4743 59.2584 26.9743 58.778 26.1452C58.2977 25.3161 58.3781 24.1351 59.1149 23.5226C59.2706 23.3932 59.2502 23.1556 59.2714 22.9543M60.5941 21.8384C60.1761 22.0376 59.7589 22.3309 59.6212 22.773C59.5722 22.9305 59.5621 23.0978 59.5165 23.2563C59.3984 23.6674 59.0583 23.9761 58.8788 24.3644C58.5046 25.1739 58.931 26.1806 59.6444 26.7157C60.3577 27.2509 61.2816 27.41 62.1712 27.4726C65.3729 27.6981 68.5564 26.8857 71.765 26.8049C73.0253 26.7732 74.3258 26.8483 75.5047 26.4018C75.951 26.2328 76.4414 25.8052 76.2498 25.3682C76.2014 25.2578 76.1142 25.1692 76.0228 25.0906C75.4584 24.6052 74.6501 24.4195 73.9304 24.6099C73.5633 24.707 73.2568 24.3347 73.0559 24.0126C72.1814 22.6112 71.1914 21.2143 69.7787 20.3581C68.3661 19.5019 66.4291 19.3147 65.115 20.3156C64.5245 20.7654 63.9753 21.4643 63.2371 21.386C62.337 21.2905 61.4113 21.449 60.5941 21.8384Z" fill="#00160A"/>
<path fill-rule="evenodd" clip-rule="evenodd" d="M11.6963 17.7321C11.5785 18.0999 11.727 18.4957 11.888 18.8467C12.0752 19.2547 12.3827 19.7148 12.8307 19.6865C14.2139 19.5992 15.5971 19.5118 16.9803 19.4245C17.1807 19.4118 17.4564 19.4641 17.4576 19.6649C15.723 19.8037 13.9885 19.9425 12.254 20.0814C11.0872 20.1748 9.86722 20.2854 8.88205 20.9175C7.89689 21.5495 7.25472 22.8821 7.78613 23.925C7.98749 24.3202 8.38266 24.6505 8.82596 24.6373C10.0207 24.6018 11.2154 24.5662 12.4101 24.5306C12.6885 24.5223 13.0694 24.6102 13.0569 24.8884C11.1583 24.7749 9.24846 24.85 7.36459 25.1122C6.68825 25.2063 5.99252 25.3332 5.42534 25.7135C4.85816 26.0938 4.45061 26.792 4.60943 27.4561C4.71904 27.9145 5.07811 28.2827 5.49334 28.5056C5.90857 28.7286 6.3786 28.8252 6.84341 28.9033C11.7725 29.7309 16.8293 28.7629 21.8143 29.1244C22.3721 29.1649 22.9759 29.2432 23.3732 29.6368C19.0724 28.8113 14.6371 29.7325 10.2627 29.5256C9.28906 29.4795 8.31901 29.3774 7.3496 29.2754C6.55614 29.1919 5.72481 29.0948 5.07024 28.6387C4.7553 28.4192 4.49129 28.116 4.35954 27.7554C4.03316 26.8622 4.60912 25.8417 5.42072 25.346C6.23232 24.8503 7.21716 24.7521 8.16425 24.666C7.3902 24.1363 7.16006 23.0207 7.49495 22.1446C7.82984 21.2685 8.6264 20.6297 9.49942 20.2868C10.3724 19.944 11.3236 19.8612 12.2605 19.8171C11.9842 19.4552 11.7038 19.0858 11.5494 18.6575C11.3949 18.2292 11.3836 17.7247 11.63 17.3419C11.8013 17.0756 12.0762 16.8954 12.3504 16.7372C14.9739 15.2234 18.1452 15.0476 21.1731 15.1227C21.9959 15.1431 22.8455 15.1858 23.5855 15.5461C24.7334 16.1051 25.4311 17.3977 25.4381 18.6744C25.445 19.9512 24.8272 21.1832 23.9192 22.0808C23.7734 21.8787 23.9557 21.6101 24.1154 21.4189C24.8551 20.5334 25.2754 19.3528 25.1181 18.2098C24.9607 17.0668 24.1765 15.9977 23.0832 15.6288C22.6264 15.4747 22.1387 15.4421 21.6572 15.4176C18.5261 15.258 15.2447 15.4219 12.5026 16.9415C12.165 17.1285 11.8141 17.3646 11.6963 17.7321Z" fill="#00160A"/>
<path fill-rule="evenodd" clip-rule="evenodd" d="M32.8847 39.7531C30.7239 37.6993 28.2291 35.6203 27.6472 32.6964C28.7152 35.4394 31.0869 37.414 33.1669 39.4968C35.2469 41.5796 37.2171 44.1775 37.0886 47.1183C40.4896 46.3758 44.014 46.2018 47.4715 46.6056C47.826 45.0094 48.8577 43.6656 49.6672 42.245C51.674 38.7234 52.3525 34.6236 52.9973 30.6219C53.1603 29.6102 51.9216 29.0105 50.9286 28.7574C49.9368 28.5047 48.9449 28.252 47.9531 27.9993C46.0892 27.5243 44.158 27.046 42.2621 27.3708C40.98 27.5904 39.7139 28.1746 38.4317 27.9558C36.3908 27.6077 34.2254 28.0486 32.4831 29.1671C31.6072 29.7294 30.8369 30.4935 29.8727 30.8696C27.785 31.6841 26.5861 32.6705 24.7988 34.9224C24.1253 31.4385 25.26 27.8732 26.5867 24.5822C28.0697 20.9032 29.9313 17.1809 33.1221 14.8245C37.8003 11.3696 44.6463 11.722 49.5127 14.9063C54.3792 18.0905 57.3527 23.6614 58.3137 29.3971C58.4254 30.0642 58.5047 30.7862 58.1906 31.3853C57.8765 31.9844 57.0113 32.3311 56.4993 31.8891C56.0627 31.5124 55.5982 31.1216 55.0318 31.0131C54.4655 30.9047 53.7784 31.199 53.6685 31.7651C52.8644 35.9109 52.0199 40.1619 49.7857 43.7455C49.2038 44.6788 48.5263 45.5698 48.1563 46.6055C47.8732 47.3979 47.7819 48.2439 47.6927 49.0807C47.5068 50.8242 47.3209 52.5678 47.135 54.3113C47.0567 55.0463 46.9474 55.8466 46.4121 56.3561C45.9008 56.8427 45.14 56.9302 44.437 56.9926C42.154 57.1954 39.8709 57.3982 37.5879 57.6009C37.1796 57.6372 36.7166 57.6558 36.4184 57.3745C36.1887 57.1578 36.125 56.8223 36.0798 56.5097C35.7591 54.2915 35.7592 52.0272 36.0801 49.809C36.5405 46.6264 35.1163 43.3704 32.8729 41.0664C31.7038 39.8658 30.3252 38.8843 29.1581 37.6818C27.9909 36.4792 27.014 34.9679 26.944 33.2935C27.7382 35.4941 29.2017 37.4481 31.0901 38.8291C33.9122 40.8929 35.9228 44.0372 36.6123 47.4647C37.1543 44.5332 35.0456 41.807 32.8847 39.7531ZM37.7315 27.5513C38.6496 27.641 39.6112 27.8693 40.4681 27.5275C42.7757 26.6071 45.4524 26.6558 47.725 27.6595C48.6949 28.0878 49.7867 28.1114 50.8311 28.2942C51.8755 28.477 52.9781 28.8937 53.5099 29.811C54.1071 30.8411 55.8619 30.5564 56.5419 31.5337C56.824 31.9391 57.5177 31.7846 57.7847 31.3692C58.0517 30.9539 58.0157 30.4192 57.956 29.9291C57.4702 25.9394 56.009 22.0276 53.4875 18.8978C50.9661 15.768 47.3488 13.4664 43.3804 12.8301C39.4119 12.1938 35.1299 13.3186 32.1927 16.0621C30.4149 17.7226 29.1819 19.8768 28.0984 22.0548C26.2114 25.8482 24.6667 29.9897 24.9715 34.2155C26.238 32.683 27.6138 31.075 29.5134 30.4882C29.967 30.3481 30.464 30.2581 30.8082 29.9312C32.6331 28.1983 35.2268 27.3067 37.7315 27.5513ZM39.7612 53.6981C39.7542 54.7169 39.9068 55.7367 40.2118 56.7088C40.2378 56.7918 40.27 56.8811 40.3438 56.9271C40.4155 56.9719 40.507 56.9634 40.5909 56.9533C41.6118 56.8312 42.6327 56.7091 43.6536 56.587C43.6911 56.5826 43.7329 56.5757 43.7553 56.5453C43.7785 56.5138 43.7714 56.4702 43.7633 56.4319C43.5795 55.5683 43.3957 54.7047 43.212 53.8411C43.2016 53.7924 43.1899 53.7411 43.1556 53.7052C43.1135 53.6611 43.048 53.6507 42.9875 53.643C41.9846 53.5161 40.9717 53.4688 39.9613 53.5018C39.9022 53.5038 39.836 53.5092 39.7972 53.5538C39.7639 53.5921 39.7615 53.6474 39.7612 53.6981ZM43.0012 50.0983C42.9676 50.0524 42.9039 50.0432 42.8473 50.0382C41.818 49.9472 40.7793 49.9621 39.7531 50.0827C39.6936 50.0896 39.6307 50.0985 39.5846 50.1367C39.5092 50.1995 39.5087 50.3129 39.5145 50.4109C39.5487 50.9922 39.583 51.5736 39.6172 52.1549C39.6256 52.2969 39.6808 52.4842 39.8229 52.4771C40.8294 52.4266 41.8403 52.4635 42.8404 52.5872C42.978 52.6043 43.0311 52.4143 43.0308 52.2757C43.0297 51.5906 43.0285 50.9055 43.0273 50.2204C43.0273 50.178 43.0262 50.1325 43.0012 50.0983ZM36.6205 54.0481C36.5428 54.0833 36.4633 54.1229 36.4107 54.19C36.3269 54.2968 36.3304 54.4458 36.338 54.5814C36.3643 55.0572 36.3907 55.533 36.417 56.0088C36.4304 56.2496 36.4445 56.4944 36.5261 56.7213C36.6077 56.9482 36.768 57.1589 36.9941 57.2428C37.1803 57.312 37.3865 57.2887 37.5838 57.2645C37.957 57.2187 38.3302 57.1728 38.7034 57.127C38.8566 57.1082 39.0154 57.0875 39.1465 57.006C38.7967 55.9436 38.5642 54.8426 38.4547 53.7295C38.447 53.6515 38.3423 53.6332 38.2641 53.6381C37.6974 53.6738 37.1375 53.8135 36.6205 54.0481ZM46.6625 52.774C46.7731 52.091 46.8836 51.408 46.9941 50.725C47.0038 50.6652 47.012 50.5983 46.9768 50.5489C46.9411 50.4988 46.8738 50.4851 46.8131 50.4753C46.004 50.3454 45.1928 50.2281 44.3801 50.1235C44.3191 50.1157 44.245 50.1133 44.2099 50.1637C44.1889 50.1938 44.1896 50.2335 44.1911 50.2701C44.2205 50.9821 44.2499 51.6941 44.2793 52.4061C44.282 52.4712 44.288 52.5438 44.3367 52.5871C44.3711 52.6176 44.419 52.6261 44.4644 52.6334C45.1467 52.7436 45.829 52.8538 46.5113 52.9639C46.6006 52.9784 46.6481 52.8633 46.6625 52.774ZM39.5696 48.745C39.555 48.8237 39.5499 48.9244 39.62 48.963C39.6536 48.9815 39.6945 48.9784 39.7327 48.9747C40.8026 48.872 41.8725 48.7692 42.9424 48.6664C42.9976 48.6611 43.0559 48.6547 43.1004 48.6216C43.161 48.5765 43.1795 48.4954 43.1939 48.4213C43.2811 47.97 43.3683 47.5188 43.4555 47.0675C43.4679 47.0034 43.4755 46.9251 43.4245 46.8842C43.3889 46.8557 43.3384 46.8581 43.293 46.8619C42.2673 46.9478 41.2416 47.0336 40.216 47.1195C40.1322 47.1265 40.0448 47.1347 39.9739 47.1799C39.8539 47.2563 39.8177 47.412 39.7917 47.5518C39.7177 47.9495 39.6436 48.3473 39.5696 48.745ZM44.3901 47.2608C44.35 47.652 44.3099 48.0432 44.2698 48.4344C44.2632 48.4989 44.2575 48.5679 44.2889 48.6246C44.3353 48.7083 44.4421 48.7326 44.5365 48.7485C45.395 48.8931 46.2535 49.0377 47.112 49.1823C47.1476 49.1883 47.1855 49.1941 47.2187 49.1798C47.282 49.1527 47.296 49.0708 47.3006 49.0021C47.3348 48.4973 47.3425 47.9906 47.3236 47.4849C47.3203 47.3978 47.3158 47.3084 47.2803 47.2288C47.1726 46.9871 46.8525 46.9469 46.5879 46.9415C45.9682 46.9289 45.3485 46.9163 44.7287 46.9037C44.6645 46.9024 44.5971 46.9018 44.5402 46.9316C44.4287 46.9901 44.4029 47.1355 44.3901 47.2608ZM53.5296 30.6199C53.0866 31.1975 52.9651 31.9514 52.8525 32.6705C52.2833 36.3081 51.5454 40.03 49.5438 43.1203C48.8581 44.1789 48.0035 45.2242 47.9065 46.4818C48.2841 45.1726 49.3298 44.1818 50.0476 43.0236C50.5743 42.1739 50.9257 41.2288 51.2476 40.2823C52.0246 37.9976 52.6502 35.6614 53.1187 33.2942C53.2872 32.4431 53.4534 31.5479 54.0014 30.8753C53.8153 30.8734 53.6329 30.7747 53.5296 30.6199ZM38.17 52.6128C38.2295 52.5973 38.2933 52.5792 38.332 52.5313C38.3734 52.4801 38.3753 52.4084 38.3752 52.3425C38.3744 51.7147 38.3736 51.087 38.3729 50.4592C38.3728 50.414 38.3714 50.3649 38.3428 50.3299C38.3017 50.2797 38.2256 50.2816 38.1611 50.2886C37.663 50.3431 37.1697 50.4411 36.6886 50.5813C36.6321 50.5977 36.573 50.6164 36.5329 50.6594C36.4869 50.7088 36.475 50.7801 36.4658 50.847C36.3723 51.5249 36.335 52.2104 36.3543 52.8944C36.3559 52.9501 36.364 53.0162 36.4135 53.0419C36.4478 53.0596 36.4892 53.0503 36.5266 53.0406C37.0744 52.898 37.6222 52.7554 38.17 52.6128ZM46.1932 55.9946C46.556 55.5585 46.5592 54.9362 46.5443 54.3691C46.5413 54.2587 46.4115 54.204 46.3043 54.1775C45.731 54.0362 45.1486 53.9318 44.562 53.8652C44.5106 53.8593 44.4543 53.8549 44.4115 53.8839C44.3462 53.9281 44.3468 54.0229 44.3553 54.1013C44.4348 54.8335 44.5868 55.5578 44.8085 56.2601C44.8342 56.3416 44.868 56.4314 44.9453 56.468C44.9869 56.4878 45.0348 56.4885 45.0808 56.4871C45.4986 56.4751 45.9259 56.3159 46.1932 55.9946ZM37.4276 47.5504C37.2851 47.5914 37.1398 47.6395 37.0276 47.7364C36.9211 47.8284 36.8533 47.9572 36.8006 48.0877C36.6331 48.5022 36.595 48.9559 36.5588 49.4015C36.556 49.4355 36.5542 49.4731 36.575 49.5002C36.6062 49.5409 36.6679 49.5354 36.7182 49.526C37.1524 49.4446 37.5867 49.3632 38.0209 49.2818C38.1445 49.2586 38.2814 49.2271 38.3515 49.1227C38.3992 49.0517 38.4052 48.9615 38.4096 48.8761C38.4362 48.3631 38.4627 47.8501 38.4893 47.3371C38.1304 47.3791 37.7749 47.4505 37.4276 47.5504ZM39.8653 49.7471C40.8135 49.6444 41.7715 49.6318 42.7221 49.7094C42.8299 49.7182 42.9484 49.7254 43.0357 49.6615C43.1725 49.5615 43.154 49.3556 43.1213 49.1893C43.1127 49.1459 43.103 49.1 43.0726 49.0679C43.0241 49.0166 42.9434 49.0187 42.8731 49.0246C41.9241 49.1042 40.9751 49.1838 40.0261 49.2634C39.8952 49.2744 39.7555 49.2888 39.6538 49.372C39.5522 49.4552 39.5192 49.6337 39.624 49.713C39.6904 49.7633 39.7824 49.756 39.8653 49.7471ZM47.0902 49.6716C46.9761 49.555 46.8045 49.5209 46.6439 49.4923C45.9338 49.3661 45.2236 49.24 44.5134 49.1138C44.4208 49.0973 44.3069 49.0887 44.2512 49.1645C44.2269 49.1976 44.2201 49.24 44.214 49.2806C44.1838 49.4826 44.2087 49.7639 44.4112 49.7906C45.2185 49.897 46.0258 50.0034 46.8331 50.1097C46.9131 50.1203 46.9991 50.1299 47.0706 50.0923C47.215 50.0165 47.2042 49.7882 47.0902 49.6716ZM38.9088 53.6782C38.8607 53.8103 38.8848 53.9565 38.9098 54.0948C39.0628 54.941 39.2291 55.7848 39.4194 56.6233C39.445 56.7363 39.4734 56.8539 39.5485 56.9421C39.6236 57.0303 39.7605 57.0775 39.8584 57.0155C40.0055 56.9224 39.9512 56.6995 39.888 56.5373C39.5613 55.6996 39.4685 54.7904 39.4234 53.8924C39.4155 53.7347 39.3851 53.5424 39.2369 53.4879C39.105 53.4394 38.9569 53.5461 38.9088 53.6782ZM46.4744 53.8343C46.6464 53.7686 46.5275 53.4753 46.6505 53.3384C45.9365 53.1603 45.2087 53.0382 44.4758 52.9735C44.3029 52.9582 44.2227 53.2188 44.3257 53.3585C44.4286 53.4982 44.6168 53.538 44.7878 53.5675C44.9419 53.5942 45.0961 53.6208 45.2502 53.6475C45.612 53.7101 45.9739 53.7727 46.3358 53.8352C46.3819 53.8432 46.4307 53.851 46.4744 53.8343ZM40.0334 53.1925C40.9195 53.1405 41.8105 53.1738 42.6901 53.2919C42.8658 53.3154 43.1096 53.2947 43.1331 53.119C43.1575 52.9372 42.9124 52.8574 42.7292 52.8482C41.839 52.8039 40.9469 52.7977 40.0562 52.8296C39.8985 52.8353 39.6822 52.9153 39.7238 53.0676C39.7557 53.1843 39.9126 53.1996 40.0334 53.1925ZM43.4351 50.2057C43.3936 50.2924 43.3924 50.3923 43.3921 50.4885C43.3901 51.0311 43.3882 51.5738 43.3863 52.1164C43.3858 52.2368 43.3863 52.3616 43.4369 52.4708C43.4875 52.58 43.6034 52.6689 43.7219 52.648C43.9185 52.6133 43.9549 52.3499 43.944 52.1506C43.9125 51.5732 43.8809 50.9959 43.8494 50.4186C43.8417 50.2766 43.8046 50.0982 43.6654 50.0691C43.5712 50.0495 43.4767 50.1189 43.4351 50.2057ZM44.0406 53.9603C44.0012 53.8468 43.9102 53.7421 43.7911 53.7257C43.6721 53.7092 43.5407 53.8162 43.5636 53.9341C43.7031 54.6527 43.8427 55.3713 43.9822 56.0899C44.0149 56.2582 44.0599 56.4453 44.2051 56.5366C44.3503 56.6278 44.6026 56.5055 44.5483 56.3429C44.328 55.6832 44.1059 55.012 44.0825 54.3169C44.0784 54.1968 44.0799 54.0739 44.0406 53.9603ZM39.1842 52.4274C39.249 52.3116 39.2439 52.171 39.237 52.0385C39.2129 51.5763 39.1888 51.1141 39.1647 50.6518C39.1572 50.5083 39.1447 50.3521 39.0476 50.2461C38.9504 50.1401 38.7375 50.1393 38.6908 50.2752C38.6784 50.3114 38.6796 50.3505 38.6809 50.3887C38.703 51.0071 38.725 51.6256 38.7471 52.244C38.7509 52.3512 38.7625 52.4739 38.8495 52.5368C38.957 52.6145 39.1194 52.5431 39.1842 52.4274ZM38.8517 47.369C38.7289 47.5388 38.7234 47.7637 38.7226 47.9732C38.7215 48.2619 38.7205 48.5506 38.7194 48.8392C38.7188 48.994 38.7755 49.2053 38.9296 49.1903C39.05 49.1786 39.0982 49.0313 39.1182 48.912C39.2083 48.3759 39.2983 47.8399 39.3884 47.3039C39.2621 47.1368 38.9746 47.1993 38.8517 47.369ZM38.0066 53.3908C38.1334 53.3794 38.2748 53.3685 38.3604 53.2743C38.446 53.1801 38.3925 52.9793 38.2664 52.9966C37.8771 53.05 37.4878 53.1033 37.0985 53.1566C36.8966 53.1843 36.6823 53.2174 36.5285 53.3511C36.3746 53.4848 36.3238 53.7564 36.4812 53.8858C36.944 53.6092 37.4696 53.4386 38.0066 53.3908ZM36.5875 49.9048C36.4711 50.0157 36.4503 50.2385 36.5878 50.3215C37.0336 50.1727 37.4952 50.0717 37.9623 50.0207C38.0774 50.0081 38.1995 49.9961 38.2917 49.9261C38.3839 49.8561 38.4246 49.7049 38.3411 49.6247C38.2753 49.5613 38.1707 49.5706 38.0803 49.5842C37.731 49.6365 37.3817 49.6889 37.0324 49.7413C36.8735 49.7651 36.7038 49.794 36.5875 49.9048ZM43.8692 46.9218C43.8281 46.9657 43.8156 47.0283 43.8048 47.0875C43.7228 47.5387 43.6408 47.9899 43.5587 48.4411C43.5439 48.5227 43.5347 48.6212 43.5984 48.6743C43.6633 48.7286 43.7693 48.6952 43.8206 48.6279C43.8719 48.5605 43.8831 48.4718 43.8926 48.3877C43.9434 47.9354 43.9943 47.483 44.0451 47.0307C44.0497 46.9901 44.053 46.9447 44.0276 46.9126C43.9904 46.8654 43.9103 46.878 43.8692 46.9218ZM43.7158 52.8978C43.5451 52.877 43.3796 53.095 43.486 53.2301C43.5605 53.3245 43.6478 53.4209 43.7653 53.4467C43.8828 53.4724 44.0289 53.3868 44.0176 53.267C44.0015 53.0958 43.8865 52.9186 43.7158 52.8978ZM43.7833 49.434C43.8409 49.2958 43.8547 49.0746 43.7059 49.0573C43.6478 49.0505 43.5928 49.0863 43.5529 49.1291C43.3676 49.328 43.4634 49.7079 43.7208 49.7953C43.8034 49.7001 43.8324 49.5613 43.795 49.4409C43.7541 49.3093 43.7304 49.5613 43.7833 49.434ZM39.1749 49.6872C39.1402 49.5598 39.0345 49.4401 38.9025 49.4388C38.7314 49.4371 38.6195 49.6799 38.7319 49.8089C38.8443 49.9379 39.1002 49.8602 39.1219 49.6904C39.1411 49.5401 39.2147 49.8334 39.1749 49.6872ZM39.2792 53.1877C39.3198 53.1531 39.349 53.1053 39.3611 53.0534C39.2485 52.9275 39.0511 52.8868 38.8979 52.9577C38.8639 52.9734 38.8311 52.9951 38.8118 53.0272C38.7566 53.1189 38.8482 53.2422 38.9538 53.2597C39.0594 53.2772 39.1629 53.2257 39.2575 53.1757L39.2792 53.1877Z" fill="#00160A"/>
</svg>
