<svg width="101" height="100" viewBox="0 0 101 100" fill="none" xmlns="http://www.w3.org/2000/svg">
<path d="M38.0002 91.6663H63.0002C83.8335 91.6663 92.1668 83.333 92.1668 62.4997V37.4997C92.1668 16.6663 83.8335 8.33301 63.0002 8.33301H38.0002C17.1668 8.33301 8.8335 16.6663 8.8335 37.4997V62.4997C8.8335 83.333 17.1668 91.6663 38.0002 91.6663Z" stroke="#E45561" stroke-width="6" stroke-linecap="round" stroke-linejoin="round"/>
<path opacity="0.34" d="M29.6665 36.458C33.8332 32.2913 40.6248 32.2913 44.8332 36.458" stroke="#E45561" stroke-width="6" stroke-miterlimit="10" stroke-linecap="round" stroke-linejoin="round"/>
<path opacity="0.34" d="M56.1665 36.458C60.3332 32.2913 67.1248 32.2913 71.3332 36.458" stroke="#E45561" stroke-width="6" stroke-miterlimit="10" stroke-linecap="round" stroke-linejoin="round"/>
<path opacity="0.34" d="M35.5 73.75H65.5C67.5833 73.75 69.25 72.0833 69.25 70C69.25 59.625 60.875 51.25 50.5 51.25C40.125 51.25 31.75 59.625 31.75 70C31.75 72.0833 33.4167 73.75 35.5 73.75Z" stroke="#E45561" stroke-width="6" stroke-miterlimit="10" stroke-linecap="round" stroke-linejoin="round"/>
</svg>
