<svg width="16" height="16" viewBox="0 0 16 16" fill="none" xmlns="http://www.w3.org/2000/svg">
<path d="M9.7906 7.67495L4.2561 6.69995V13.9045C4.25617 13.9827 4.27165 14.0602 4.30166 14.1325C4.33167 14.2048 4.37563 14.2704 4.43102 14.3257C4.48641 14.381 4.55215 14.4249 4.62449 14.4548C4.69682 14.4847 4.77434 14.5 4.8526 14.5H14.4026C14.481 14.5001 14.5586 14.4849 14.631 14.4551C14.7035 14.4252 14.7693 14.3814 14.8248 14.3261C14.8803 14.2708 14.9244 14.2051 14.9544 14.1327C14.9845 14.0604 15 13.9828 15.0001 13.9045V11.25L9.7906 7.67495Z" fill="#185C37"/>
<path d="M9.7906 1.5H4.8526C4.77434 1.49993 4.69682 1.51529 4.62449 1.54518C4.55215 1.57507 4.48641 1.61891 4.43102 1.67421C4.37563 1.72951 4.33167 1.79517 4.30166 1.86746C4.27165 1.93974 4.25617 2.01723 4.2561 2.0955V4.75L9.7906 8L12.7211 8.975L15.0001 8V4.75L9.7906 1.5Z" fill="#21A366"/>
<path d="M4.2561 4.75H9.7906V8H4.2561V4.75Z" fill="#107C41"/>
<path opacity="0.1" d="M8.2171 4.09998H4.2561V12.225H8.2171C8.37494 12.2242 8.5261 12.1612 8.63785 12.0498C8.7496 11.9383 8.81292 11.7873 8.8141 11.6295V4.69548C8.81292 4.53764 8.7496 4.38664 8.63785 4.27517C8.5261 4.16371 8.37494 4.10076 8.2171 4.09998Z" fill="black"/>
<path opacity="0.2" d="M7.8916 4.42505H4.2561V12.55H7.8916C8.04944 12.5493 8.2006 12.4863 8.31235 12.3749C8.4241 12.2634 8.48742 12.1124 8.4886 11.9545V5.02055C8.48742 4.86272 8.4241 4.71171 8.31235 4.60024C8.2006 4.48878 8.04944 4.42583 7.8916 4.42505Z" fill="black"/>
<path opacity="0.2" d="M7.8916 4.42505H4.2561V11.9H7.8916C8.04944 11.8993 8.2006 11.8363 8.31235 11.7249C8.4241 11.6134 8.48742 11.4624 8.4886 11.3045V5.02055C8.48742 4.86272 8.4241 4.71171 8.31235 4.60024C8.2006 4.48878 8.04944 4.42583 7.8916 4.42505Z" fill="black"/>
<path opacity="0.2" d="M7.5661 4.42505H4.2561V11.9H7.5661C7.72394 11.8993 7.8751 11.8363 7.98685 11.7249C8.0986 11.6134 8.16192 11.4624 8.1631 11.3045V5.02055C8.16192 4.86272 8.0986 4.71171 7.98685 4.60024C7.8751 4.48878 7.72394 4.42583 7.5661 4.42505Z" fill="black"/>
<path d="M1.597 4.42505H7.566C7.72411 4.42492 7.87581 4.48757 7.98776 4.59923C8.0997 4.71089 8.16273 4.86243 8.163 5.02055V10.9795C8.16273 11.1377 8.0997 11.2892 7.98776 11.4009C7.87581 11.5125 7.72411 11.5752 7.566 11.575H1.597C1.51869 11.5752 1.44112 11.5599 1.36873 11.53C1.29634 11.5002 1.23054 11.4563 1.17509 11.401C1.11965 11.3457 1.07565 11.28 1.04561 11.2077C1.01556 11.1354 1.00007 11.0579 1 10.9795V5.02055C1.00007 4.94224 1.01556 4.86471 1.04561 4.79239C1.07565 4.72008 1.11965 4.65439 1.17509 4.59908C1.23054 4.54378 1.29634 4.49994 1.36873 4.47008C1.44112 4.44022 1.51869 4.42492 1.597 4.42505Z" fill="url(#paint0_linear_274_10953)"/>
<path d="M2.8501 9.93648L4.1056 7.99448L2.9556 6.06348H3.8791L4.5066 7.29998C4.5646 7.41698 4.6066 7.50398 4.6256 7.56198H4.6341C4.6751 7.46798 4.7186 7.37748 4.7641 7.28898L5.4351 6.06548H6.2851L5.1056 7.98548L6.3151 9.93798H5.4106L4.6856 8.58248C4.65193 8.5242 4.62333 8.46314 4.6001 8.39998H4.5881C4.56696 8.46152 4.53877 8.52041 4.5041 8.57548L3.7576 9.93648H2.8501Z" fill="white"/>
<path d="M14.403 1.5H9.79053V4.75H15V2.0955C15 2.01719 14.9845 1.93966 14.9544 1.86734C14.9244 1.79503 14.8804 1.72934 14.8249 1.67403C14.7695 1.61873 14.7037 1.5749 14.6313 1.54503C14.5589 1.51517 14.4813 1.49987 14.403 1.5Z" fill="#33C481"/>
<path d="M9.79053 8H15V11.25H9.79053V8Z" fill="#107C41"/>
<defs>
<linearGradient id="paint0_linear_274_10953" x1="2.247" y1="3.95705" x2="6.916" y2="12.043" gradientUnits="userSpaceOnUse">
<stop stop-color="#18884F"/>
<stop offset="0.5" stop-color="#117E43"/>
<stop offset="1" stop-color="#0B6631"/>
</linearGradient>
</defs>
</svg>
