<svg width="81" height="80" viewBox="0 0 81 80" fill="none" xmlns="http://www.w3.org/2000/svg">
<path opacity="0.4" d="M72.966 31.466H7.16602V21.3994C7.16602 13.266 13.766 6.66602 21.8994 6.66602H29.666C35.0993 6.66602 36.7994 8.43268 38.966 11.3327L43.6327 17.5327C44.666 18.8994 44.7994 19.0993 46.7327 19.0993H56.0327C63.9327 19.066 70.666 24.266 72.966 31.466Z" fill="#AAAEB6"/>
<path d="M73.7993 36.1335C73.7327 34.5001 73.466 32.9668 72.966 31.4668H7.16602V55.5001C7.16602 65.3335 15.166 73.3335 24.9993 73.3335H55.9993C65.8327 73.3335 73.8327 65.3335 73.8327 55.5001V36.9001C73.8327 36.6668 73.8327 36.3668 73.7993 36.1335ZM48.966 53.2335L41.7994 59.5001C41.4327 59.8335 40.966 60.0001 40.4993 60.0001C40.0327 60.0001 39.566 59.8335 39.1993 59.5001L32.0327 53.2335C29.766 51.2335 29.466 47.8335 31.3327 45.4668C33.266 43.0668 36.666 42.6335 39.1327 44.4668L40.466 45.4668L41.7994 44.4668C44.266 42.6335 47.666 43.0668 49.5993 45.4668C51.5327 47.8335 51.2327 51.2335 48.966 53.2335Z" fill="#AAAEB6"/>
</svg>
