<svg width="81" height="80" viewBox="0 0 81 80" fill="none" xmlns="http://www.w3.org/2000/svg">
<path d="M30.5 73.3337H50.5C67.1666 73.3337 73.8333 66.667 73.8333 50.0003V30.0003C73.8333 13.3337 67.1666 6.66699 50.5 6.66699H30.5C13.8333 6.66699 7.16663 13.3337 7.16663 30.0003V50.0003C7.16663 66.667 13.8333 73.3337 30.5 73.3337Z" stroke="#086788" stroke-width="4" stroke-linecap="round" stroke-linejoin="round"/>
<path d="M30.5 33.3333C34.1819 33.3333 37.1667 30.3486 37.1667 26.6667C37.1667 22.9848 34.1819 20 30.5 20C26.8181 20 23.8334 22.9848 23.8334 26.6667C23.8334 30.3486 26.8181 33.3333 30.5 33.3333Z" stroke="#086788" stroke-width="4" stroke-linecap="round" stroke-linejoin="round"/>
<path d="M9.40002 63.1662L25.8334 52.1329C28.4667 50.3662 32.2667 50.5662 34.6334 52.5995L35.7334 53.5662C38.3334 55.7995 42.5334 55.7995 45.1334 53.5662L59 41.6662C61.6 39.4329 65.8 39.4329 68.4 41.6662L73.8334 46.3329" stroke="#086788" stroke-width="4" stroke-linecap="round" stroke-linejoin="round"/>
</svg>
