<svg width="24" height="24" viewBox="0 0 24 24" fill="none" xmlns="http://www.w3.org/2000/svg">
<ellipse cx="12" cy="11.9986" rx="12" ry="11.9986" fill="#FECD67"/>
<path d="M9.85042 23.804C10.5536 23.9323 11.2782 23.9993 12.0185 23.9993C13.3174 23.9993 14.5681 23.7929 15.7396 23.4112C15.9456 21.7314 15.9495 20.0396 15.4816 18.3905C15.3147 17.8023 15.1167 17.1984 14.8653 16.6409C14.84 16.5849 14.8136 16.5277 14.7866 16.4695C14.5774 16.0172 14.3387 15.5013 14.4187 15.0064C14.4879 14.5785 14.7843 14.3002 15.0795 14.0231C15.1229 13.9824 15.1663 13.9416 15.209 13.9004C15.6639 13.4611 16.0975 12.9776 16.5014 12.4901C18.232 10.402 19.4366 7.7624 19.0672 4.99212C18.9941 4.44412 18.9126 3.91332 18.7609 3.38063C18.748 3.3352 18.7375 3.28512 18.7267 3.23358C18.6957 3.08493 18.6622 2.92418 18.5592 2.82812C18.5007 3.22279 18.2357 3.63047 18.0212 3.96053L18.009 3.97919C17.4179 4.88899 16.6197 5.5959 15.6876 6.13335C15.4683 6.25979 15.2405 6.36443 15.013 6.4689C14.6809 6.62148 14.3495 6.77369 14.0467 6.99287C13.2906 7.54013 12.7209 8.36678 12.317 9.20501C12.2785 9.28491 12.2377 9.37907 12.1936 9.4806C12.0038 9.91795 11.7547 10.4919 11.3802 10.6501C11.1256 10.7576 10.7853 10.5766 10.5335 10.4427C10.4943 10.4218 10.4572 10.4021 10.4229 10.3848C10.2813 10.3132 10.1409 10.2404 10.0009 10.1677C9.42041 9.86651 8.846 9.56844 8.21226 9.37925C7.40289 9.13766 6.62607 9.25407 5.84165 9.37163C5.32473 9.44909 4.80451 9.52705 4.26948 9.50339C3.42108 9.46586 2.58667 9.26995 1.8081 8.92491C1.67036 8.86387 1.54215 8.77998 1.4143 8.69632C1.26856 8.60094 1.12327 8.50588 0.964844 8.44531C1.00357 8.54732 1.04177 8.64902 1.07983 8.75036C1.35944 9.49482 1.63171 10.2197 2.05306 10.9086C3.07867 12.5853 4.64804 13.7976 6.43459 14.5492C7.57348 15.0283 8.8169 15.3624 10.0355 15.5525C10.1017 15.5629 10.1724 15.5718 10.2453 15.5811C10.6959 15.6383 11.2367 15.707 11.3961 16.1804C11.5591 16.6646 11.4724 17.3145 11.3999 17.8577C11.3869 17.9548 11.3744 18.0485 11.3639 18.1372C11.1962 19.5491 11.0004 20.9636 10.4957 22.3041C10.3397 22.7184 10.1686 23.1276 9.97277 23.5242C9.95531 23.5596 9.93789 23.602 9.91948 23.6468C9.8983 23.6983 9.87581 23.753 9.85042 23.804Z" fill="url(#paint0_linear_303_6094)"/>
<defs>
<linearGradient id="paint0_linear_303_6094" x1="4.05761" y1="-1.00769" x2="13.3786" y2="25.7844" gradientUnits="userSpaceOnUse">
<stop stop-color="#000D16"/>
<stop offset="1" stop-color="#045CB6"/>
</linearGradient>
</defs>
</svg>
