<svg width="50" height="50" viewBox="0 0 50 50" fill="none" xmlns="http://www.w3.org/2000/svg">
<path d="M32.79 49.0694C42.7827 45.775 50 36.3143 50 25.1574C50 11.2633 38.8071 0 25 0C11.1929 0 0 11.2633 0 25.1574C0 37.6934 9.11172 48.0878 21.0342 50C20.8618 49.9721 20.6899 49.9424 20.5187 49.911C20.5716 49.8041 20.6184 49.6894 20.6626 49.5814C20.7009 49.4875 20.7372 49.3985 20.7736 49.3244C21.1816 48.4928 21.5381 47.6349 21.863 46.7662C22.9144 43.9555 23.3223 40.9898 23.6717 38.0296C23.6936 37.8437 23.7197 37.6474 23.7466 37.4439C23.8977 36.3049 24.0784 34.942 23.7388 33.9268C23.4068 32.9342 22.28 32.7902 21.3415 32.6702C21.1894 32.6508 21.0423 32.632 20.9043 32.6103C18.3655 32.2116 15.7751 31.5111 13.4024 30.5065C9.68038 28.9307 6.41088 26.389 4.27419 22.8734C3.39637 21.4291 2.82914 19.9092 2.24662 18.3483C2.16733 18.1358 2.08775 17.9226 2.00707 17.7087C2.33712 17.8357 2.6398 18.035 2.94344 18.235C3.20978 18.4104 3.47689 18.5863 3.76384 18.7143C5.38587 19.4377 7.12422 19.8485 8.89173 19.9271C10.0063 19.9768 11.0901 19.8133 12.167 19.6509C13.8013 19.4044 15.4197 19.1603 17.1059 19.6669C18.4261 20.0635 19.6228 20.6885 20.8322 21.3201C21.1238 21.4724 21.4164 21.6252 21.7115 21.7751C21.7829 21.8114 21.8601 21.8528 21.9419 21.8966C22.4663 22.1773 23.1754 22.5569 23.7056 22.3314C24.4859 21.9997 25.0048 20.7964 25.4003 19.8794C25.4921 19.6665 25.5772 19.4691 25.6575 19.3015C26.499 17.544 27.6857 15.8108 29.2608 14.6634C29.8917 14.2038 30.5821 13.8847 31.2741 13.5648C31.748 13.3457 32.2226 13.1263 32.6794 12.8612C34.6214 11.7344 36.2843 10.2522 37.5158 8.34463L37.5411 8.30551C37.988 7.61348 38.5401 6.7587 38.662 5.93121C38.8765 6.13261 38.9464 6.46965 39.011 6.78132C39.0334 6.88939 39.0552 6.9944 39.0822 7.08965C39.3983 8.20653 39.568 9.31946 39.7203 10.4684C40.4899 16.2769 37.9803 21.8113 34.375 26.1894C33.5334 27.2114 32.6301 28.2251 31.6823 29.1464C31.5935 29.2327 31.5031 29.3182 31.4126 29.4036C30.7976 29.9846 30.1801 30.568 30.036 31.4652C29.8692 32.5028 30.3665 33.5846 30.8025 34.5328C30.8586 34.655 30.9137 34.7749 30.9663 34.8922C31.49 36.0612 31.9026 37.3273 32.2503 38.5606C33.2234 42.0124 33.217 45.5534 32.79 49.0694Z" fill="#AAAEB6"/>
</svg>
