<svg width="184" height="184" viewBox="0 0 184 184" fill="none" xmlns="http://www.w3.org/2000/svg">
<path fill-rule="evenodd" clip-rule="evenodd" d="M143.516 95.3968C143.837 135 126.514 163.93 93.3954 165.573C69.2568 166.77 83.6967 128.897 53.4439 103.751C34.0792 87.655 21.2979 45.834 69.0246 35.0207C116.751 24.2075 143.194 55.794 143.516 95.3968Z" fill="#24C4F9"/>
<path d="M45.7844 152.902C42.78 147.364 43.2707 140.662 43.8909 134.391C45.3176 119.968 47.5142 104.437 57.6169 94.0445C60.2889 91.2959 63.5504 88.9655 67.2934 88.1379C70.1938 87.4966 72.9881 86.3777 75.5295 84.8398C76.142 81.2524 72.7667 78.4277 70.4084 75.6558C67.7676 72.5518 66.1201 68.6153 65.7629 64.5555C65.5514 62.1524 65.0469 58.8782 62.6367 58.7758C60.6555 58.6915 59.164 56.3009 59.9593 54.4844C60.7546 52.668 63.5229 52.1424 64.9285 53.541C62.9234 46.0236 67.1594 37.3502 74.3209 34.3097C73.1532 32.6398 75.702 30.6384 77.7256 30.8776C79.7492 31.1168 81.708 32.3391 83.695 31.8875C83.014 30.6885 84.1051 29.0954 85.4494 28.7882C86.7936 28.4811 88.1732 29.0647 89.379 29.7337C97.1191 34.0279 102.234 42.6879 102.259 51.5395C102.459 49.9238 104.883 49.3705 106.069 50.486C107.255 51.6014 107.199 53.5979 106.357 54.9912C105.514 56.3845 104.079 57.2993 102.659 58.0946C102.695 63.9645 100.462 69.8195 96.5275 74.1756C93.6644 77.3453 89.6079 80.7075 90.5475 84.8743C92.0706 84.5373 93.6114 86.2943 93.0784 87.7604C99.6087 87.2164 105.703 91.1578 110.329 95.7986C117.112 102.602 121.986 111.287 124.261 120.62C124.658 122.25 126.977 122.694 128.412 121.825C129.847 120.955 130.585 119.31 131.238 117.765L144.156 87.238C143.324 83.1254 143.997 78.875 144.672 74.7336L146.911 60.9893C147.115 59.7418 147.987 58.0954 149.139 58.6156C149.537 58.7953 149.759 59.1838 149.9 59.6119C149.965 59.8103 150.013 60.0173 150.052 60.216C150.75 63.7402 150.974 67.3583 150.714 70.9417L155.185 63.2923C155.909 62.0544 157.408 60.685 158.528 61.1972C158.948 61.2797 159.234 61.6995 159.294 62.1276C159.453 62.7096 159.318 63.4094 159.136 64.0131C158.32 66.7171 156.991 69.265 155.239 71.4806C157.601 72.2861 160.336 73.5092 160.75 75.9699C160.504 80.4309 157.216 85.5524 154.792 88.2112C155.348 87.8756 155.712 88.8743 155.601 89.5145C152.942 104.899 146.462 119.608 136.906 131.954C134.086 135.598 130.811 138.417 125.673 138.926C118.671 139.619 114.08 129.291 110.278 129.567C110.278 129.567 106.72 147.936 104.144 150.389C101.568 152.843 84.64 157.995 79.5388 156.277C74.4377 154.56 69.3353 159.153 62.6367 158.692C55.6942 158.215 45.7844 152.902 45.7844 152.902Z" fill="white"/>
<path d="M152.172 91.5361C152.111 91.455 152.07 91.3595 152.052 91.2598C151.986 90.8832 152.323 90.4894 152.705 90.4972C153.087 90.5049 153.408 90.9121 153.326 91.2856C153.244 91.6591 152.782 91.8946 152.432 91.7417C152.33 91.697 152.239 91.6254 152.172 91.5361Z" fill="#00160A"/>
<path d="M89.7736 52.2554C89.5138 52.1968 89.3873 51.871 89.4591 51.6145C89.5308 51.358 89.742 51.1658 89.9597 51.0123C91.4426 49.967 93.6986 50.2375 94.8924 51.6038C94.9875 51.7126 95.0809 51.8403 95.0762 51.9848C95.0715 52.1293 94.9134 52.2693 94.7853 52.2024C94.1132 51.8519 93.4282 51.4969 92.6824 51.3616C91.9366 51.2263 91.1069 51.342 90.5393 51.8443C90.3128 52.0447 90.0687 52.322 89.7736 52.2554Z" fill="#00160A"/>
<path d="M77.0434 52.2052C76.9621 52.4557 76.6358 52.5473 76.3821 52.4765C76.1284 52.4056 75.9246 52.2226 75.7095 52.0704C75.0026 51.5703 74.1061 51.3792 73.242 51.4353C72.3778 51.4914 71.542 51.7808 70.7679 52.169C70.5905 52.258 70.3794 52.0515 70.3903 51.8533C70.4012 51.6552 70.5502 51.4943 70.7005 51.3648C71.5058 50.6714 72.6001 50.3547 73.6614 50.4094C74.7226 50.464 75.7484 50.8715 76.6224 51.4759C76.8707 51.6475 77.1367 51.9181 77.0434 52.2052Z" fill="black"/>
<path d="M152.537 94.3337C152.447 94.454 152.318 94.5386 152.187 94.6126C152.052 94.6895 151.902 94.7596 151.747 94.7476C151.54 94.7317 151.368 94.5692 151.283 94.3803C151.073 93.915 151.429 93.2791 151.939 93.2611C152.449 93.243 152.843 93.9252 152.537 94.3337Z" fill="#00160A"/>
<path d="M107.157 113.731C107.405 113.844 107.228 114.245 106.975 114.347C106.723 114.449 106.405 114.452 106.24 114.669C106.123 114.824 106.128 115.036 106.139 115.229C106.163 115.625 106.188 116.045 106 116.393C105.811 116.742 105.32 116.957 105.006 116.715C104.717 116.494 104.743 116.064 104.733 115.7C104.723 115.336 104.54 114.881 104.177 114.898C102.397 114.979 100.618 115.06 98.839 115.142C98.6135 115.152 98.3569 115.15 98.2032 114.985C97.9927 114.758 98.1355 114.359 98.4013 114.201C98.6671 114.042 98.997 114.055 99.3058 114.073C100.613 114.149 101.92 114.224 103.228 114.3C103.431 114.312 103.644 114.322 103.828 114.234C104.011 114.147 104.149 113.928 104.075 113.739C103.875 113.232 104.141 112.59 104.64 112.371C104.813 112.296 104.892 112.095 104.935 111.911C104.978 111.727 105.009 111.526 105.14 111.39C105.272 111.253 105.547 111.245 105.616 111.421C105.775 111.828 106.164 112.09 106.438 112.431C106.711 112.771 106.838 113.337 106.492 113.603C106.511 113.852 106.929 113.626 107.157 113.731Z" fill="#00160A"/>
<path d="M72.361 67.8092C72.1127 67.794 72.0097 67.3962 72.2194 67.2625C72.483 67.2437 72.599 67.6953 72.359 67.8059L72.361 67.8092Z" fill="#24C4F9"/>
<path d="M92.2065 61.5809C92.1352 61.4524 92.2097 61.2671 92.3501 61.2236C92.4905 61.1802 92.6567 61.2911 92.6704 61.4374C92.6316 61.6277 92.3539 61.7141 92.214 61.5794L92.2065 61.5809Z" fill="#24C4F9"/>
<path d="M91.374 59.1293C91.2692 59.3368 90.8898 59.2789 90.8517 59.0496C90.9284 58.9451 91.0384 58.8656 91.1617 58.8255C91.2662 58.9024 91.3467 59.0115 91.3891 59.1341L91.374 59.1293Z" fill="#24C4F9"/>
<path d="M86.2955 68.3772C86.451 68.3668 86.6082 68.4601 86.6735 68.6016C86.621 68.7616 86.4225 68.8726 86.2734 68.794C86.1244 68.7155 86.1387 68.4405 86.3041 68.4086L86.2955 68.3772Z" fill="#24C4F9"/>
<path d="M90.9553 68.6089C91.032 68.4177 91.3881 68.4907 91.3834 68.6966C91.276 68.8032 91.1365 68.8772 90.988 68.9063C90.8683 68.8653 90.8385 68.6766 90.9398 68.6008L90.9553 68.6089Z" fill="#24C4F9"/>
<path d="M82.9339 59.975C82.7769 59.9757 82.6615 60.1777 82.7406 60.3133C82.8197 60.449 83.0523 60.4479 83.1303 60.3116C83.2082 60.1752 83.091 59.9743 82.9339 59.975Z" fill="#24C4F9"/>
<path d="M73.4632 62.3683C73.3366 62.2736 73.1213 62.3657 73.1025 62.5227C73.0837 62.6798 73.2712 62.8201 73.4165 62.7579C73.5619 62.6956 73.5897 62.4631 73.4632 62.3683Z" fill="#24C4F9"/>
<path d="M94.629 62.7455C94.4778 62.7952 94.3062 62.6259 94.3516 62.4733C94.397 62.3207 94.6296 62.271 94.7352 62.3901C94.8408 62.5092 94.767 62.7319 94.6116 62.7667L94.629 62.7455Z" fill="#24C4F9"/>
<path d="M82.0318 67.4167C81.9733 67.2697 81.7414 67.2359 81.6433 67.36C81.5452 67.4842 81.6318 67.702 81.7884 67.7248C81.945 67.7477 82.0902 67.5638 82.0318 67.4167Z" fill="#24C4F9"/>
<path d="M81.7844 71.3019C81.6744 71.3341 81.5894 71.2002 81.5707 71.0871C81.6791 70.8814 82.0551 70.9388 82.0972 71.1675C82.0308 71.2678 81.9026 71.3232 81.784 71.3029L81.7844 71.3019Z" fill="#24C4F9"/>
<path d="M83.286 71.118C83.1154 71.1601 82.8754 71.0767 82.8925 70.9018C82.9943 70.7969 83.1532 70.7213 83.2856 70.7831C83.4181 70.845 83.4253 71.0886 83.2811 71.1126L83.286 71.118Z" fill="#24C4F9"/>
<path d="M90.9876 71.0378C90.9172 70.9859 90.8689 70.9049 90.8569 70.8182C90.9305 70.7124 91.0403 70.6324 91.1636 70.5946C91.2363 70.6681 91.3091 70.7416 91.3818 70.815C91.3016 70.9531 91.1468 71.0446 90.9872 71.0482L90.9876 71.0378Z" fill="#24C4F9"/>
<path d="M84.2592 60.4159C84.1345 60.5851 83.8101 60.5026 83.7814 60.2944C83.8874 60.0692 84.3093 60.1697 84.3024 60.4185L84.2592 60.4159Z" fill="#24C4F9"/>
<path d="M87.7144 68.7338C87.5734 68.8696 87.2879 68.7278 87.311 68.5335C87.3341 68.3391 87.6448 68.2681 87.75 68.4331C87.6724 68.4901 87.6408 68.6022 87.6774 68.6914L87.7144 68.7338Z" fill="#24C4F9"/>
<path d="M79.1148 60.0391C79.2661 59.9894 79.4377 60.1587 79.3923 60.3113C79.3469 60.4639 79.1143 60.5136 79.0086 60.3945C78.903 60.2754 78.9769 60.0527 79.1322 60.0179L79.1148 60.0391Z" fill="#24C4F9"/>
<path d="M82.8073 64.9821C82.9557 64.8582 83.2257 64.966 83.2479 65.158C83.1463 65.2504 83.0075 65.3264 82.876 65.2868C82.7445 65.2472 82.6821 65.0387 82.8016 64.9711L82.8073 64.9821Z" fill="#24C4F9"/>
<path d="M86.1759 66.2222C86.2776 66.0153 86.6549 66.0697 86.6939 66.297C86.5809 66.5037 86.2036 66.4482 86.1549 66.2178L86.1759 66.2222Z" fill="#24C4F9"/>
<path d="M86.384 67.4093C86.4882 67.2558 86.7849 67.3553 86.7755 67.5406C86.7078 67.6477 86.5991 67.7282 86.4769 67.7615C86.355 67.6962 86.3052 67.524 86.3736 67.4037L86.384 67.4093Z" fill="#24C4F9"/>
<path d="M91.2972 60.1972C91.2001 60.0706 90.9659 60.1014 90.9048 60.2487C90.8437 60.3961 90.9874 60.5835 91.1456 60.5628C91.3037 60.542 91.3942 60.3238 91.2972 60.1972Z" fill="#24C4F9"/>
<path d="M88.779 71.9299C88.8091 71.792 89.0518 71.8588 89.0669 71.9992C89.082 72.1396 88.9683 72.2572 88.8638 72.3522C88.7847 72.3015 88.7008 72.245 88.6673 72.1571C88.6338 72.0693 88.6838 71.9456 88.7778 71.9431L88.779 71.9299Z" fill="#24C4F9"/>
<path d="M77.0761 59.0098C77.0176 58.8628 76.7857 58.829 76.6876 58.9531C76.5896 59.0773 76.6762 59.2951 76.8328 59.3179C76.9893 59.3408 77.1346 59.1569 77.0761 59.0098Z" fill="#24C4F9"/>
<path d="M83.0997 71.9302C83.0196 71.8029 82.797 71.8114 82.7268 71.9444C82.6566 72.0775 82.7752 72.266 82.9255 72.2603C83.0759 72.2545 83.1798 72.0575 83.0997 71.9302Z" fill="#24C4F9"/>
<path d="M73.2396 67.1923C73.3241 67.0967 73.4972 67.2129 73.4934 67.3405C73.4897 67.4681 73.3868 67.5679 73.2913 67.6526C73.0858 67.6199 73.0509 67.2678 73.246 67.1953L73.2396 67.1923Z" fill="#24C4F9"/>
<path d="M84.2632 69.8897C84.1762 69.9436 84.0891 69.9975 84.0021 70.0513C83.8429 69.9929 83.8242 69.7285 83.9736 69.6482C84.123 69.5679 84.3332 69.7293 84.2941 69.8943L84.2632 69.8897Z" fill="#24C4F9"/>
<path d="M94.4099 67.3173C94.3613 67.1668 94.6554 67.1181 94.7133 67.2654C94.7712 67.4126 94.6542 67.5717 94.5237 67.6611C94.3949 67.6039 94.3113 67.4585 94.3267 67.3184L94.4099 67.3173Z" fill="#24C4F9"/>
<path d="M90.8553 67.4548C90.9508 67.3171 91.1597 67.2745 91.3014 67.364C91.3385 67.5702 91.0773 67.7597 90.8928 67.6605C90.8746 67.5928 90.8564 67.5251 90.8383 67.4574L90.8553 67.4548Z" fill="#24C4F9"/>
<path d="M76.814 66.0567C76.9653 66.007 77.1369 66.1763 77.0914 66.3289C77.046 66.4815 76.8134 66.5312 76.7078 66.4121C76.6022 66.293 76.676 66.0703 76.8314 66.0355L76.814 66.0567Z" fill="#24C4F9"/>
<path d="M93.2362 57.9855C93.2379 57.8528 93.3763 57.7396 93.5067 57.7641C93.6372 57.7886 93.725 57.9443 93.6785 58.0686C93.5411 58.1725 93.321 58.1403 93.2191 58.0014L93.2362 57.9855Z" fill="#24C4F9"/>
<path d="M89.8802 64.9757C90.0077 64.8733 90.2354 64.9892 90.2276 65.1526C90.1155 65.3269 89.8165 65.327 89.7042 65.1528C89.7631 65.094 89.8219 65.0352 89.8807 64.9763L89.8802 64.9757Z" fill="#24C4F9"/>
<path d="M75.4072 68.4686C75.5359 68.3326 75.7916 68.3558 75.8936 68.5129C75.8161 68.6199 75.7145 68.7294 75.5826 68.7357C75.4506 68.742 75.3259 68.5705 75.4173 68.475L75.4072 68.4686Z" fill="#24C4F9"/>
<path d="M94.6592 69.8428C94.6067 69.9129 94.5261 69.9613 94.4396 69.9746C94.2822 69.8847 94.2825 69.6043 94.4517 69.5392C94.6208 69.4741 94.8036 69.7367 94.6681 69.8571L94.6592 69.8428Z" fill="#24C4F9"/>
<path d="M73.3952 69.9144C73.5189 69.8284 73.5002 69.6061 73.3639 69.542C73.2276 69.4779 73.0444 69.6053 73.057 69.7554C73.0697 69.9055 73.2715 70.0004 73.3952 69.9144Z" fill="#24C4F9"/>
<path d="M94.5901 65.3433C94.4664 65.4696 94.2578 65.2072 94.3774 65.0772C94.4971 64.9471 94.7288 65.0136 94.8356 65.1544C94.7621 65.2278 94.6886 65.3012 94.6151 65.3745L94.5901 65.3433Z" fill="#24C4F9"/>
<path d="M72.0205 59.3101C71.9866 59.0956 72.334 58.9555 72.4585 59.1334C72.355 59.2693 72.2516 59.4052 72.1482 59.5411C72.0729 59.4886 72.0205 59.4043 72.0069 59.3135L72.0205 59.3101Z" fill="#24C4F9"/>
<path d="M73.3515 65.3433C73.2279 65.4696 73.0192 65.2072 73.1389 65.0772C73.2586 64.9471 73.4902 65.0136 73.5971 65.1544C73.5236 65.2278 73.4501 65.3012 73.3766 65.3745L73.3515 65.3433Z" fill="#24C4F9"/>
<path d="M92.2005 59.2098C92.0949 59.1091 92.1154 58.9092 92.2394 58.8321C92.3633 58.7551 92.5517 58.825 92.5953 58.9643C92.5338 59.1048 92.3775 59.1976 92.2247 59.1844L92.2005 59.2098Z" fill="#24C4F9"/>
<path d="M76.6131 60.2918C76.7106 60.1173 77.0031 60.1071 77.1125 60.2744C77.078 60.5192 76.6401 60.5324 76.5909 60.2902L76.6131 60.2918Z" fill="#24C4F9"/>
<path d="M85.5253 61.3023C85.528 61.4271 85.4848 61.5523 85.4057 61.6487C85.2683 61.726 85.0842 61.553 85.1318 61.4027C85.1795 61.2524 85.3921 61.1987 85.5228 61.2868L85.5253 61.3023Z" fill="#24C4F9"/>
<path d="M81.9163 69.7246C81.872 69.5827 81.6573 69.5345 81.5566 69.6437C81.4559 69.753 81.5215 69.9631 81.6665 69.9957C81.8115 70.0283 81.9606 69.8664 81.9163 69.7246Z" fill="#24C4F9"/>
<path d="M86.5427 70.894C86.6065 71.0619 86.4799 71.273 86.3016 71.2957C86.184 71.2458 86.129 71.0858 86.1911 70.9741C86.2532 70.8624 86.4181 70.8247 86.5226 70.8983L86.5427 70.894Z" fill="#24C4F9"/>
<path d="M78.9863 72.1438C78.9864 71.9827 79.0816 71.8252 79.2242 71.7502C79.3274 71.8535 79.4014 72.0128 79.3383 72.1445C79.2752 72.2762 79.0311 72.2801 79.0099 72.1356L78.9863 72.1438Z" fill="#24C4F9"/>
<path d="M92.2509 70.8039C92.3745 70.6777 92.5832 70.94 92.4635 71.0701C92.3438 71.2001 92.1122 71.1336 92.0053 70.9929C92.0788 70.9195 92.1523 70.8461 92.2258 70.7727L92.2509 70.8039Z" fill="#24C4F9"/>
<path d="M81.7201 60.1846C81.8438 60.0583 82.0524 60.3207 81.9327 60.4508C81.8131 60.5808 81.5814 60.5143 81.4745 60.3735C81.548 60.3002 81.6215 60.2268 81.695 60.1534L81.7201 60.1846Z" fill="#24C4F9"/>
<path d="M74.4417 67.587C74.3515 67.4892 74.4746 67.3169 74.6076 67.3212C74.7406 67.3255 74.8449 67.4353 74.9188 67.546C74.8138 67.6994 74.5636 67.7225 74.4321 67.5911L74.4417 67.587Z" fill="#24C4F9"/>
<path d="M77.0022 63.5073C77.1281 63.4973 77.1787 63.6948 77.0923 63.7869C77.0058 63.879 76.8622 63.8833 76.7368 63.8688C76.6223 63.7129 76.8217 63.4557 77.0012 63.5277L77.0022 63.5073Z" fill="#24C4F9"/>
<path d="M83.1988 74.5767C83.0675 74.7444 82.7428 74.6581 82.712 74.4474C82.8241 74.2485 83.1999 74.3491 83.1977 74.5774L83.1988 74.5767Z" fill="#24C4F9"/>
<path d="M76.6815 67.6541C76.6113 67.5169 76.7037 67.3214 76.8561 67.2985C77.0085 67.2757 77.1558 67.4503 77.0988 67.5935C77.0418 67.7366 76.8013 67.7534 76.7327 67.6154L76.6815 67.6541Z" fill="#24C4F9"/>
<path d="M81.6959 72.2753C81.5853 72.3108 81.5059 72.1698 81.4763 72.0575C81.5895 71.8834 81.8876 71.8816 82.0028 72.0544C81.9275 72.1593 81.8187 72.2397 81.6963 72.2809L81.6959 72.2753Z" fill="#24C4F9"/>
<path d="M82.6955 62.6743C82.738 62.4466 83.1065 62.3818 83.2241 62.5813C83.1689 62.7945 82.8351 62.8592 82.7042 62.6821L82.6955 62.6743Z" fill="#24C4F9"/>
<path d="M94.6594 66.2733C94.6151 66.1314 94.4004 66.0832 94.2997 66.1925C94.199 66.3018 94.2646 66.5119 94.4096 66.5444C94.5546 66.577 94.7037 66.4151 94.6594 66.2733Z" fill="#24C4F9"/>
<path d="M84.3946 67.6317C84.2671 67.7342 84.0394 67.6182 84.0472 67.4548C84.1594 67.2806 84.4583 67.2804 84.5706 67.4546C84.5118 67.5135 84.4529 67.5723 84.3941 67.6311L84.3946 67.6317Z" fill="#24C4F9"/>
<path d="M81.8712 74.2257C81.9818 74.1904 82.0613 74.3312 82.0907 74.4435C81.9775 74.6176 81.6795 74.6194 81.5642 74.4466C81.6396 74.3417 81.7484 74.2613 81.8707 74.2201L81.8712 74.2257Z" fill="#24C4F9"/>
<path d="M95.9867 57.8083C96.0447 57.8663 96.1027 57.9242 96.1606 57.9822C96.0579 58.1393 95.7922 58.1941 95.6887 58.0375C95.5851 57.8809 95.8763 57.6587 95.9616 57.8258L95.9867 57.8083Z" fill="#24C4F9"/>
<path d="M90.9936 61.6502C91.1076 61.7503 91.3205 61.6781 91.3502 61.5293C91.3798 61.3805 91.2109 61.2323 91.0672 61.281C90.9235 61.3297 90.8796 61.5501 90.9936 61.6502Z" fill="#24C4F9"/>
<path d="M83.9135 71.0433C83.9592 70.9371 84.1261 70.9128 84.2001 71.0016C84.2832 71.1354 84.2078 71.3512 84.0513 71.3693C83.8948 71.3873 83.7875 71.1335 83.9248 71.0562L83.9135 71.0433Z" fill="#24C4F9"/>
<path d="M76.8271 68.4735C76.9378 68.4383 77.0172 68.5792 77.0467 68.6916C76.9725 68.7971 76.8631 68.8773 76.7402 68.9162C76.6704 68.8616 76.622 68.7804 76.607 68.6931C76.6806 68.6193 76.7543 68.5456 76.8279 68.4718L76.8271 68.4735Z" fill="#24C4F9"/>
<path d="M92.6117 65.1916C92.6424 65.3978 92.3406 65.5563 92.1882 65.4138C92.1232 65.2073 92.4643 65.0159 92.5798 65.1991L92.6117 65.1916Z" fill="#24C4F9"/>
<path d="M80.6309 65.0241C80.7321 65.086 80.7881 65.2139 80.7651 65.3302C80.6392 65.379 80.5006 65.3946 80.3671 65.3749C80.3258 65.3099 80.31 65.2292 80.3239 65.1534C80.427 65.1092 80.5301 65.0649 80.6331 65.0206L80.6309 65.0241Z" fill="#24C4F9"/>
<path d="M86.4797 69.7075C86.5257 69.8019 86.5366 69.9129 86.5099 70.0144C86.3897 70.119 86.1642 70.0221 86.1572 69.863C86.1502 69.7038 86.3664 69.5876 86.4953 69.6812L86.4797 69.7075Z" fill="#24C4F9"/>
<path d="M93.7678 67.6224C93.6278 67.7497 93.3581 67.6483 93.3368 67.4602C93.3834 67.3514 93.5226 67.293 93.6329 67.336C93.7431 67.379 93.8061 67.5162 93.7668 67.6278L93.7678 67.6224Z" fill="#24C4F9"/>
<path d="M81.9149 59.1341C81.9958 59.1885 82.032 59.3011 81.9977 59.3924C81.8759 59.5076 81.6314 59.4688 81.5895 59.3065C81.5476 59.1442 81.8173 59.0065 81.8992 59.1528L81.9149 59.1341Z" fill="#24C4F9"/>
<path d="M73.4318 66.3463C73.4395 66.1974 73.2543 66.0774 73.1216 66.1452C72.9889 66.2129 72.9775 66.4333 73.1025 66.5144C73.2276 66.5954 73.4241 66.4951 73.4318 66.3463Z" fill="#24C4F9"/>
<path d="M85.2309 65.4931C85.0844 65.4465 85.0736 65.2037 85.209 65.131C85.3444 65.0583 85.5323 65.1759 85.5429 65.3292C85.4795 65.4294 85.3516 65.4843 85.2353 65.4613L85.2309 65.4931Z" fill="#24C4F9"/>
<path d="M73.1927 60.1812C73.0945 60.0494 73.4002 59.9364 73.4696 60.0855C73.539 60.2345 73.4159 60.4028 73.2821 60.4983C73.1849 60.4359 73.1331 60.3102 73.1581 60.1975L73.1927 60.1812Z" fill="#24C4F9"/>
<path d="M83.0662 69.8431C83.0135 69.9133 82.9325 69.9617 82.8456 69.975C82.7754 69.9237 82.7274 69.8429 82.7159 69.7567C82.7862 69.6509 82.8958 69.5719 83.0184 69.5386C83.1389 69.5798 83.1711 69.7683 83.0711 69.8472L83.0662 69.8431Z" fill="#24C4F9"/>
<path d="M93.509 69.932C93.4057 69.9762 93.3025 70.0205 93.1992 70.0647C93.1289 70.0088 93.0796 69.927 93.0631 69.8387C93.1545 69.7636 93.2602 69.6867 93.3781 69.6961C93.4961 69.7056 93.5978 69.8562 93.5199 69.9453L93.509 69.932Z" fill="#24C4F9"/>
<path d="M85.2547 70.7348C85.3555 70.7871 85.4564 70.8394 85.5572 70.8918C85.4474 71.0078 85.302 71.0897 85.1459 71.1235C85.0754 71.0723 85.027 70.9916 85.0149 70.9053C85.0671 70.8349 85.1483 70.7867 85.2351 70.7745L85.2547 70.7348Z" fill="#24C4F9"/>
<path d="M73.4195 70.8153C73.5004 70.8697 73.5366 70.9822 73.5023 71.0735C73.3805 71.1887 73.136 71.1499 73.0941 70.9876C73.0522 70.8253 73.3219 70.6877 73.4038 70.8339L73.4195 70.8153Z" fill="#24C4F9"/>
<path d="M81.6647 66.4784C81.7001 66.6896 82.1035 66.622 82.0681 66.4108C82.0327 66.1995 81.6292 66.2672 81.6647 66.4784Z" fill="#24C4F9"/>
<path d="M86.249 61.1367C86.4392 61.1163 86.5993 61.3589 86.5057 61.5258C86.4131 61.597 86.2628 61.5739 86.1958 61.4782C86.1288 61.3825 86.1585 61.2334 86.2571 61.1707L86.249 61.1367Z" fill="#24C4F9"/>
<path d="M72.1638 66.2895C72.2677 66.1858 72.4658 66.3425 72.4196 66.4818C72.3734 66.6212 72.181 66.6655 72.0499 66.5995C71.9619 66.4986 72.0151 66.3131 72.1432 66.2743L72.1638 66.2895Z" fill="#24C4F9"/>
<path d="M81.6935 63.78C81.8006 63.6272 82.0971 63.7295 82.0872 63.9157C82.0012 64.0337 81.8355 64.0863 81.6972 64.0396C81.6325 63.969 81.6299 63.8499 81.6915 63.7765L81.6935 63.78Z" fill="#24C4F9"/>
<path d="M92.3127 60.0661C92.3848 60.1134 92.4324 60.1962 92.4369 60.2823C92.3614 60.4723 92.0083 60.4036 92.0096 60.1991C92.07 60.0977 92.1987 60.042 92.3139 60.0676L92.3127 60.0661Z" fill="#24C4F9"/>
<path d="M75.8238 72.1213C75.894 72.2585 75.8016 72.4541 75.6492 72.4769C75.4968 72.4997 75.3495 72.3251 75.4065 72.1819C75.4635 72.0388 75.7041 72.0221 75.7726 72.1601L75.8238 72.1213Z" fill="#24C4F9"/>
<path d="M79.04 69.7151C79.1872 69.6992 79.3756 69.7062 79.4318 69.8431C79.3654 69.9486 79.2567 70.0267 79.1355 70.056C79.0657 70.0177 78.9912 69.9745 78.959 69.9017C78.9267 69.8289 78.9667 69.7215 79.0463 69.7192L79.04 69.7151Z" fill="#24C4F9"/>
<path d="M94.6152 60.419C94.7565 60.3699 94.7981 60.1523 94.685 60.0545C94.5719 59.9567 94.3626 60.0294 94.3345 60.1763C94.3063 60.3232 94.4739 60.468 94.6152 60.419Z" fill="#24C4F9"/>
<path d="M88.9049 61.3488C89.0624 61.4448 88.9629 61.7467 88.7792 61.7301C88.6744 61.6945 88.6113 61.5672 88.6463 61.4622C88.6814 61.3573 88.8085 61.2935 88.9136 61.3281L88.9049 61.3488Z" fill="#24C4F9"/>
<path d="M84.2799 71.9724C84.2391 71.7676 83.848 71.8454 83.8887 72.0502C83.9294 72.255 84.3206 72.1772 84.2799 71.9724Z" fill="#24C4F9"/>
<path d="M74.2431 60.3695C74.2838 60.5743 74.6749 60.4966 74.6342 60.2918C74.5935 60.087 74.2023 60.1647 74.2431 60.3695Z" fill="#24C4F9"/>
<path d="M93.641 71.1243C93.5451 71.2818 93.2431 71.1822 93.2597 70.9986C93.2953 70.8938 93.4227 70.8306 93.5276 70.8657C93.6325 70.9008 93.6963 71.0278 93.6618 71.1329L93.641 71.1243Z" fill="#24C4F9"/>
<path d="M73.3263 58.8543C73.479 58.7963 73.6572 58.9838 73.5915 59.1334C73.4566 59.2056 73.2857 59.206 73.1504 59.1343C73.1682 59.0262 73.2391 58.928 73.3362 58.8771L73.3263 58.8543Z" fill="#24C4F9"/>
<path d="M81.7851 61.6566C81.713 61.6093 81.6655 61.5265 81.661 61.4404C81.7364 61.2504 82.0895 61.3191 82.0882 61.5235C82.0278 61.625 81.8992 61.6806 81.7839 61.6551L81.7851 61.6566Z" fill="#24C4F9"/>
<path d="M88.6461 68.8696C88.5779 68.746 88.6938 68.5682 88.8346 68.5789C88.9753 68.5895 89.0637 68.7798 88.9827 68.8953C88.9016 69.0109 88.6949 68.9944 88.6315 68.8683L88.6461 68.8696Z" fill="#24C4F9"/>
<path d="M85.0148 62.677C85.0621 62.6049 85.1449 62.5574 85.231 62.5529C85.421 62.6284 85.3522 62.9815 85.1478 62.9801C85.0463 62.9198 84.9907 62.7911 85.0163 62.6758L85.0148 62.677Z" fill="#24C4F9"/>
<path d="M94.8104 58.9116C94.8206 58.986 94.8308 59.0604 94.841 59.1348C94.704 59.2045 94.534 59.205 94.3966 59.1361C94.3918 58.9412 94.6381 58.7908 94.8093 58.8839L94.8104 58.9116Z" fill="#24C4F9"/>
<path d="M80.7644 73.207C80.6716 73.0207 80.3159 73.1981 80.4087 73.3843C80.5016 73.5705 80.8573 73.3932 80.7644 73.207Z" fill="#24C4F9"/>
<path d="M89.0009 63.7322C88.8536 63.5859 88.5742 63.8672 88.7215 64.0135C88.8688 64.1598 89.1482 63.8785 89.0009 63.7322Z" fill="#24C4F9"/>
<path d="M85.3661 58.9594C85.2732 58.7732 84.9176 58.9505 85.0104 59.1368C85.1033 59.323 85.459 59.1457 85.3661 58.9594Z" fill="#24C4F9"/>
<path d="M93.5194 68.7767C93.4295 68.5829 93.0594 68.7547 93.1493 68.9485C93.2392 69.1423 93.6094 68.9705 93.5194 68.7767Z" fill="#24C4F9"/>
<path d="M73.0274 68.735C73.1185 68.9198 73.4714 68.7457 73.3803 68.5609C73.2892 68.3761 72.9362 68.5502 73.0274 68.735Z" fill="#24C4F9"/>
<path d="M87.6671 72.2313C87.6198 72.3034 87.5371 72.3509 87.451 72.3554C87.2609 72.2799 87.3297 71.9269 87.5341 71.9282C87.6356 71.9885 87.6912 72.1172 87.6657 72.2325L87.6671 72.2313Z" fill="#24C4F9"/>
<path d="M80.8053 66.2618C80.7142 66.077 80.3613 66.2511 80.4524 66.4359C80.5435 66.6207 80.8965 66.4466 80.8053 66.2618Z" fill="#24C4F9"/>
<path d="M92.31 62.5441C92.4219 62.6609 92.3031 62.8966 92.1426 62.8761C92.026 62.8424 91.9617 62.6904 92.0186 62.5832C92.0755 62.476 92.2375 62.4442 92.3307 62.5219L92.31 62.5441Z" fill="#24C4F9"/>
<path d="M83.9516 74.6222C83.893 74.5634 83.8343 74.5047 83.7757 74.4459C83.8848 74.271 84.1827 74.2675 84.2959 74.4399C84.2395 74.5721 84.0925 74.6594 83.9495 74.6459L83.9516 74.6222Z" fill="#24C4F9"/>
<path d="M94.8806 61.5693C94.8219 61.628 94.7631 61.6866 94.7044 61.7453C94.5294 61.6361 94.526 61.3382 94.6984 61.225C94.8305 61.2815 94.9179 61.4284 94.9044 61.5715L94.8806 61.5693Z" fill="#24C4F9"/>
<path d="M77.9353 61.3496C77.9826 61.2775 78.0654 61.23 78.1515 61.2255C78.3415 61.301 78.2727 61.6541 78.0683 61.6528C77.9668 61.5924 77.9112 61.4637 77.9368 61.3485L77.9353 61.3496Z" fill="#24C4F9"/>
<path d="M73.6291 61.6598C73.5194 61.7189 73.364 61.6622 73.3182 61.5463C73.2724 61.4304 73.347 61.2827 73.4675 61.2509C73.6287 61.2774 73.7169 61.5006 73.6174 61.6301L73.6291 61.6598Z" fill="#24C4F9"/>
<path d="M87.6806 62.7639C87.6797 62.5579 87.2862 62.5595 87.2871 62.7656C87.2879 62.9716 87.6815 62.97 87.6806 62.7639Z" fill="#24C4F9"/>
<path d="M85.4546 69.8442C85.3617 69.658 85.0061 69.8353 85.0989 70.0215C85.1918 70.2078 85.5474 70.0304 85.4546 69.8442Z" fill="#24C4F9"/>
<path d="M95.4816 60.3695C95.5223 60.5743 95.9134 60.4966 95.8727 60.2918C95.832 60.087 95.4409 60.1647 95.4816 60.3695Z" fill="#24C4F9"/>
<path d="M83.8143 66.2558C83.9441 66.1197 84.2009 66.1443 84.3025 66.3026C84.2298 66.4079 84.1207 66.4875 83.9983 66.5246C83.9057 66.4642 83.8357 66.3699 83.8046 66.2638L83.8143 66.2558Z" fill="#24C4F9"/>
<path d="M92.0312 66.2319C92.1755 66.1458 92.3917 66.2371 92.4306 66.4006C92.3469 66.5151 92.1846 66.5647 92.0511 66.5167C91.9864 66.4467 91.9836 66.328 92.045 66.255L92.0312 66.2319Z" fill="#24C4F9"/>
<path d="M83.9688 65.0592C83.9168 64.9643 84.0346 64.8471 84.1418 64.8619C84.2491 64.8767 84.3268 64.971 84.3792 65.0658C84.2984 65.2324 84.0166 65.2384 83.9287 65.0754L83.9688 65.0592Z" fill="#24C4F9"/>
<path d="M95.6778 67.4122C95.7737 67.2547 96.0756 67.3543 96.0591 67.538C96.0235 67.6427 95.8961 67.7059 95.7912 67.6708C95.6862 67.6358 95.6224 67.5087 95.657 67.4036L95.6778 67.4122Z" fill="#24C4F9"/>
<path d="M82.8458 66.1753C82.9694 66.1071 83.1472 66.2229 83.1366 66.3637C83.1259 66.5044 82.9357 66.5929 82.8202 66.5118C82.7046 66.4308 82.7211 66.2241 82.8472 66.1606L82.8458 66.1753Z" fill="#24C4F9"/>
<path d="M83.8653 68.6057C83.9398 68.5423 84.0598 68.5407 84.136 68.6021C84.1425 68.7609 84.0484 68.9195 83.9058 68.9897C83.7638 68.9235 83.7376 68.6963 83.8609 68.5996L83.8653 68.6057Z" fill="#24C4F9"/>
<path d="M94.3003 68.7867C94.4475 68.933 94.727 68.6517 94.5797 68.5054C94.4324 68.3591 94.153 68.6404 94.3003 68.7867Z" fill="#24C4F9"/>
<path d="M80.6709 61.7077C80.5028 61.5678 80.6996 61.2324 80.9037 61.3109C80.9959 61.4684 80.859 61.7031 80.6766 61.7005L80.6709 61.7077Z" fill="#24C4F9"/>
<path d="M80.7169 60.2442C80.6257 60.0594 80.2728 60.2335 80.3639 60.4183C80.4551 60.6031 80.808 60.429 80.7169 60.2442Z" fill="#24C4F9"/>
<path d="M71.9614 60.5069C71.891 60.4551 71.8428 60.3742 71.8307 60.2877C71.903 60.1831 72.011 60.1038 72.1323 60.066C72.2554 60.2143 72.1528 60.4823 71.9622 60.5106L71.9614 60.5069Z" fill="#24C4F9"/>
<path d="M92.1423 70.0885C92.0031 70.0881 91.8973 69.9133 91.9632 69.7908C92.0292 69.6682 92.2361 69.6622 92.3073 69.7818C92.3785 69.9014 92.2714 70.0818 92.1324 70.0745L92.1423 70.0885Z" fill="#24C4F9"/>
<path d="M94.5308 57.8389C94.6552 57.8797 94.7646 57.9646 94.8349 58.0751C94.7356 58.2198 94.5112 58.2581 94.3695 58.1545C94.4101 58.0493 94.4506 57.9442 94.4912 57.8391L94.5308 57.8389Z" fill="#24C4F9"/>
<path d="M82.8456 68.6051C82.8477 68.4829 82.9784 68.3803 83.0976 68.4072C83.2168 68.4342 83.2906 68.5831 83.2399 68.6943C83.102 68.7881 82.8897 68.7428 82.8021 68.6009L82.8456 68.6051Z" fill="#24C4F9"/>
<path d="M84.9914 63.9259C84.9265 63.8023 85.0288 63.627 85.1684 63.6229C85.308 63.6187 85.4206 63.7876 85.3632 63.9148C85.2599 63.9838 85.1153 63.9842 85.0117 63.9158L84.9914 63.9259Z" fill="#24C4F9"/>
<path d="M75.7885 59.0959C75.7456 59.2621 75.5055 59.3353 75.3773 59.2211C75.329 59.1187 75.3812 58.9788 75.4876 58.94C75.594 58.9012 75.7284 58.9826 75.7364 59.0955L75.7885 59.0959Z" fill="#24C4F9"/>
<path d="M74.1569 66.4449C74.1171 66.3426 74.1751 66.2132 74.2781 66.1749C74.381 66.1366 74.5095 66.1967 74.5462 66.3002C74.5129 66.4623 74.2949 66.5523 74.1569 66.4611L74.1569 66.4449Z" fill="#24C4F9"/>
<path d="M77.9786 68.8254C77.9086 68.7722 77.86 68.6914 77.8459 68.6046C77.9189 68.5325 77.9918 68.4604 78.0648 68.3884C78.2536 68.4692 78.1844 68.8197 77.979 68.8227L77.9786 68.8254Z" fill="#24C4F9"/>
<path d="M74.4364 70.0519C74.2964 70.1031 74.1775 69.8749 74.2808 69.7674C74.3841 69.6599 74.5856 69.7143 74.6575 69.8449C74.5845 69.9182 74.5115 69.9915 74.4385 70.0647L74.4364 70.0519Z" fill="#24C4F9"/>
<path d="M74.2613 59.3574C74.1581 59.2305 74.2744 59.0022 74.4377 59.0111C74.5394 59.0716 74.5957 59.2001 74.571 59.3159C74.476 59.3623 74.3654 59.3758 74.2621 59.3536L74.2613 59.3574Z" fill="#24C4F9"/>
<path d="M91.2485 65.1097C91.3735 65.1435 91.3216 65.3599 91.1952 65.3879C91.0687 65.4158 90.9479 65.3296 90.8487 65.2464C90.9371 65.1257 91.1064 65.0716 91.2484 65.1184L91.2485 65.1097Z" fill="#24C4F9"/>
<path d="M93.3577 65.2246C93.2888 65.1741 93.22 65.1236 93.1511 65.0732C93.2596 64.8915 93.5673 64.8859 93.6823 65.0635C93.6207 65.1645 93.4922 65.2198 93.3765 65.1952L93.3577 65.2246Z" fill="#24C4F9"/>
<path d="M95.4781 59.2997C95.4004 59.1912 95.503 59.0139 95.6363 59.0188C95.7697 59.0237 95.8615 59.1936 95.8004 59.3123C95.6999 59.3823 95.556 59.383 95.4549 59.3139L95.4781 59.2997Z" fill="#24C4F9"/>
<path d="M87.6688 66.4811C87.5417 66.5839 87.3138 66.4679 87.3221 66.3047C87.3643 66.2312 87.4472 66.183 87.532 66.1825C87.6509 66.225 87.7255 66.365 87.6943 66.4874L87.6688 66.4811Z" fill="#24C4F9"/>
<path d="M76.9372 70.6571C77.0065 70.7097 77.0758 70.7623 77.1451 70.8149C77.0326 70.9229 76.8907 70.9999 76.7389 71.0355C76.6349 70.9104 76.7542 70.6819 76.9163 70.6957L76.9372 70.6571Z" fill="#24C4F9"/>
<path d="M75.8088 61.3488C75.7159 61.1626 75.3602 61.3399 75.4531 61.5261C75.546 61.7124 75.9016 61.535 75.8088 61.3488Z" fill="#24C4F9"/>
<path d="M74.2177 70.9058C74.2706 70.8356 74.3516 70.7871 74.4385 70.7736C74.5085 70.8266 74.557 70.9072 74.5709 70.9939C74.4975 71.0673 74.4241 71.1407 74.3507 71.2141C74.2509 71.1499 74.1964 71.0222 74.2189 70.9058L74.2177 70.9058Z" fill="#24C4F9"/>
<path d="M82.7195 59.2187C82.843 59.3701 83.1323 59.1342 83.0088 58.9828C82.8853 58.8313 82.596 59.0672 82.7195 59.2187Z" fill="#24C4F9"/>
<path d="M93.2412 63.917C93.2306 63.7138 93.5811 63.6327 93.6609 63.8199C93.635 64.0065 93.3412 64.0769 93.2336 63.9223L93.2412 63.917Z" fill="#24C4F9"/>
<path d="M95.6783 66.4371C95.6061 66.5745 95.3426 66.4517 95.4014 66.308C95.4161 66.1966 95.5563 66.1228 95.6565 66.1737C95.7567 66.2246 95.7798 66.3813 95.6984 66.4589L95.6783 66.4371Z" fill="#24C4F9"/>
<path d="M84.1708 62.7069C84.0308 62.7581 83.9119 62.5299 84.0152 62.4224C84.1184 62.3149 84.3199 62.3694 84.3918 62.4999C84.3188 62.5732 84.2459 62.6465 84.1729 62.7197L84.1708 62.7069Z" fill="#24C4F9"/>
<path d="M75.681 70.7903C75.7757 70.736 75.8954 70.8547 75.8803 70.9629C75.8653 71.0711 75.7699 71.1491 75.6746 71.2026C75.5149 71.1249 75.5214 70.8483 75.6847 70.7784L75.681 70.7903Z" fill="#24C4F9"/>
<path d="M79.0885 59.4032C79.0435 59.2164 79.2841 59.001 79.4232 59.1334C79.4146 59.2388 79.4019 59.3533 79.3279 59.4287C79.254 59.5042 79.0971 59.4988 79.0672 59.3974L79.0885 59.4032Z" fill="#24C4F9"/>
<path d="M87.8476 73.1152C87.8582 73.3184 87.5077 73.3995 87.428 73.2123C87.4538 73.0257 87.7476 72.9553 87.8552 73.1099L87.8476 73.1152Z" fill="#24C4F9"/>
<path d="M78.1106 70.8136C77.9086 70.8411 77.9613 71.2268 78.1633 71.1992C78.3652 71.1717 78.3125 70.786 78.1106 70.8136Z" fill="#24C4F9"/>
<path d="M87.4443 70.7756C87.6194 70.8875 87.6219 71.1866 87.4486 71.3013C87.2741 71.1872 87.2735 70.8879 87.4475 70.773L87.4443 70.7756Z" fill="#24C4F9"/>
<path d="M79.3479 62.6745C79.2081 62.7691 78.9938 62.7243 78.9036 62.5817C78.9957 62.5072 79.1014 62.4302 79.2194 62.4397C79.3375 62.4492 79.4391 62.6006 79.3604 62.6891L79.3479 62.6745Z" fill="#24C4F9"/>
<path d="M83.0237 73.4281C82.9514 73.5655 82.688 73.4427 82.7467 73.299C82.7615 73.1875 82.9016 73.1138 83.0019 73.1647C83.1021 73.2156 83.1251 73.3723 83.0438 73.4499L83.0237 73.4281Z" fill="#24C4F9"/>
<path d="M72.2241 64.0343C72.0841 64.0855 71.9652 63.8573 72.0685 63.7498C72.1718 63.6422 72.3732 63.6967 72.4452 63.8273C72.3722 63.9006 72.2992 63.9738 72.2262 64.0471L72.2241 64.0343Z" fill="#24C4F9"/>
<path d="M91.3422 58.1187C91.2699 58.2561 91.0064 58.1333 91.0652 57.9896C91.0799 57.8782 91.2201 57.8044 91.3203 57.8553C91.4205 57.9062 91.4436 58.0629 91.3623 58.1406L91.3422 58.1187Z" fill="#24C4F9"/>
<path d="M86.3288 60.2027C86.3825 60.3424 86.3279 60.5157 86.2039 60.5994C86.1225 60.4991 86.036 60.3791 86.0636 60.253C86.0911 60.1268 86.3089 60.0765 86.3393 60.202L86.3288 60.2027Z" fill="#24C4F9"/>
<path d="M83.0229 67.4094C83.1257 67.5365 83.0097 67.7645 82.8464 67.7562C82.773 67.7139 82.7247 67.631 82.7242 67.5463C82.7667 67.4273 82.9068 67.3528 83.0291 67.384L83.0229 67.4094Z" fill="#24C4F9"/>
<path d="M83.9239 59.2695C83.9118 59.4623 84.28 59.4854 84.2921 59.2926C84.3042 59.0998 83.936 59.0767 83.9239 59.2695Z" fill="#24C4F9"/>
<path d="M90.0127 62.4547C90.0833 62.5064 90.1315 62.5876 90.1432 62.6743C90.0806 62.7747 89.9529 62.83 89.8368 62.807C89.7318 62.6821 89.8506 62.4522 90.0132 62.4656L90.0127 62.4547Z" fill="#24C4F9"/>
<path d="M85.2786 74.4448C85.2257 74.515 85.1448 74.5634 85.0579 74.5768C84.9877 74.5242 84.9393 74.4434 84.926 74.3567C84.9931 74.2768 85.0892 74.2046 85.1924 74.2204C85.2955 74.2362 85.3636 74.388 85.2794 74.4496L85.2786 74.4448Z" fill="#24C4F9"/>
<path d="M93.596 62.5843C93.5064 62.723 93.2981 62.767 93.1602 62.6763C93.0973 62.5819 93.1968 62.4462 93.3099 62.4377C93.423 62.4292 93.5251 62.5045 93.6023 62.5876L93.596 62.5843Z" fill="#24C4F9"/>
<path d="M76.7191 61.596C76.6332 61.4921 76.7323 61.3057 76.867 61.3113C77.0017 61.3169 77.0884 61.4972 77.0155 61.6106C76.9425 61.7239 76.753 61.727 76.6693 61.6213L76.7191 61.596Z" fill="#24C4F9"/>
<path d="M80.6719 72.1448C80.6978 72.2151 80.6827 72.2988 80.6339 72.3556C80.4981 72.4192 80.3065 72.2907 80.3403 72.1447C80.3741 71.9987 80.6435 72.0035 80.6511 72.1532L80.6719 72.1448Z" fill="#24C4F9"/>
<path d="M92.2289 68.7243C92.1301 68.7157 92.123 68.5538 92.2046 68.4975C92.2862 68.4411 92.3959 68.4598 92.4929 68.4807C92.5391 68.5422 92.5554 68.6251 92.536 68.6995C92.4403 68.7444 92.3297 68.7569 92.2264 68.7344L92.2289 68.7243Z" fill="#24C4F9"/>
<path d="M82.8455 61.3038C82.9341 61.3037 83.0227 61.3037 83.1114 61.3036C83.153 61.369 83.1687 61.4505 83.1544 61.5268C83.0547 61.5665 82.9397 61.6058 82.8441 61.557C82.7486 61.5081 82.7422 61.3283 82.8488 61.3161L82.8455 61.3038Z" fill="#24C4F9"/>
<path d="M87.8615 61.403C87.7925 61.2226 87.448 61.3544 87.517 61.5348C87.5859 61.7152 87.9305 61.5834 87.8615 61.403Z" fill="#24C4F9"/>
<path d="M93.2486 61.7035C93.2261 61.6037 93.2474 61.4845 93.3321 61.4269C93.4167 61.3693 93.5627 61.4214 93.563 61.5237C93.5471 61.6128 93.5262 61.7106 93.4538 61.7648C93.3814 61.8191 93.2458 61.7814 93.2495 61.691L93.2486 61.7035Z" fill="#24C4F9"/>
<path d="M72.2439 61.7881C72.1048 61.8351 71.9478 61.6693 72.0023 61.5328C72.0568 61.3964 72.2848 61.3845 72.3533 61.5145C72.3105 61.5914 72.2678 61.6683 72.225 61.7453L72.2439 61.7881Z" fill="#24C4F9"/>
<path d="M77.7571 73.385C77.7424 73.2221 77.9733 73.1022 78.098 73.2081C78.1518 73.2977 78.1148 73.4292 78.0221 73.4776C77.9295 73.526 77.8004 73.4813 77.7575 73.3859L77.7571 73.385Z" fill="#24C4F9"/>
<path d="M88.926 67.6515C89.0674 67.5218 88.8196 67.2518 88.6782 67.3815C88.5368 67.5112 88.7846 67.7812 88.926 67.6515Z" fill="#24C4F9"/>
<path d="M81.8714 68.993C81.7496 69.0318 81.6262 68.8747 81.6778 68.7579C81.7295 68.641 81.9035 68.6124 82.0034 68.6921C82.0332 68.8081 81.9749 68.9407 81.8694 68.9972L81.8714 68.993Z" fill="#24C4F9"/>
<path d="M89.778 58.354C89.645 58.2241 89.8433 57.9549 90.0069 58.0434C90.1346 58.1694 89.9447 58.4287 89.7861 58.345L89.778 58.354Z" fill="#24C4F9"/>
<path d="M81.9603 62.627C81.8117 62.6438 81.622 62.6336 81.5655 62.4952C81.6548 62.3794 81.8194 62.3282 81.9586 62.3728C82.023 62.4438 82.0255 62.5627 81.9643 62.6364L81.9603 62.627Z" fill="#24C4F9"/>
<path d="M88.6357 60.1836C88.786 60.1214 88.9664 60.3103 88.8974 60.4576C88.8266 60.5323 88.6928 60.5332 88.6211 60.4594C88.5494 60.3856 88.5541 60.2518 88.6308 60.1832L88.6357 60.1836Z" fill="#24C4F9"/>
<path d="M87.4033 59.0476C87.4562 58.9774 87.5372 58.9289 87.624 58.9156C87.6942 58.9682 87.7426 59.049 87.7558 59.1357C87.7032 59.2059 87.6223 59.2542 87.5356 59.2674C87.4652 59.215 87.4169 59.1337 87.4047 59.0468L87.4033 59.0476Z" fill="#24C4F9"/>
<path d="M81.9469 65.1692C81.8521 65.331 81.5707 65.3222 81.4864 65.1546C81.5668 64.9868 81.8497 64.9789 81.9393 65.1421L81.9469 65.1692Z" fill="#24C4F9"/>
<path d="M75.6748 69.7042C75.7699 69.6916 75.8417 69.812 75.8107 69.9028C75.7797 69.9935 75.6831 70.0467 75.5887 70.0636C75.5187 70.0109 75.4705 69.9302 75.4574 69.8436C75.5097 69.7731 75.5909 69.7248 75.6778 69.7126L75.6748 69.7042Z" fill="#24C4F9"/>
<path d="M85.4347 72.1838C85.4387 72.2529 85.4427 72.322 85.4466 72.3911C85.3611 72.5135 85.1262 72.4475 85.1169 72.2985C85.1077 72.1495 85.3325 72.0549 85.4326 72.1657L85.4347 72.1838Z" fill="#24C4F9"/>
<path d="M90.0131 68.4722C90.0833 68.5251 90.1318 68.6061 90.1451 68.693C90.0925 68.7632 90.0117 68.8116 89.925 68.8247C89.8548 68.7721 89.8065 68.6913 89.7933 68.6046C89.8457 68.5341 89.927 68.4859 90.0139 68.4736L90.0131 68.4722Z" fill="#24C4F9"/>
<path d="M79.0933 73.4715C79.061 73.3735 79.0882 73.2511 79.1758 73.1965C79.2634 73.142 79.4038 73.1904 79.4187 73.2926C79.3812 73.369 79.3437 73.4454 79.3062 73.5218C79.2314 73.5132 79.1566 73.5046 79.0819 73.496L79.0933 73.4715Z" fill="#24C4F9"/>
<path d="M85.4639 60.375C85.4741 60.4936 85.3475 60.6024 85.2319 60.5745C85.1162 60.5466 85.0532 60.392 85.1164 60.2912C85.2137 60.198 85.4045 60.2508 85.44 60.3807L85.4639 60.375Z" fill="#24C4F9"/>
<path d="M75.4928 67.4932C75.581 67.3649 75.8316 67.4759 75.7958 67.6275C75.7586 67.7039 75.6758 67.7557 75.5909 67.7556C75.4931 67.7182 75.445 67.5872 75.4951 67.4954L75.4928 67.4932Z" fill="#24C4F9"/>
<path d="M93.384 60.0631C93.4923 60.2315 93.2793 60.4868 93.0942 60.4105C93.0687 60.2443 93.2088 60.0719 93.3767 60.0629L93.384 60.0631Z" fill="#24C4F9"/>
<path d="M74.2137 63.8269C74.2086 63.6614 74.4364 63.5447 74.5677 63.6455C74.6359 63.8289 74.3218 63.9925 74.2106 63.8316L74.2137 63.8269Z" fill="#24C4F9"/>
<path d="M95.4987 63.6919C95.5588 63.613 95.6707 63.578 95.7651 63.6086C95.8087 63.6696 95.8244 63.7498 95.8069 63.8228C95.734 63.8654 95.6611 63.9079 95.5882 63.9505C95.4916 63.9113 95.4451 63.7812 95.4948 63.6896L95.4987 63.6919Z" fill="#24C4F9"/>
<path d="M86.4346 59.0395C86.5629 59.1278 86.4519 59.3783 86.3003 59.3425C86.2239 59.3054 86.1721 59.2225 86.1722 59.1376C86.2097 59.0399 86.3406 58.9917 86.4325 59.0419L86.4346 59.0395Z" fill="#24C4F9"/>
<path d="M75.7269 60.2785C75.8552 60.3667 75.7441 60.6173 75.5926 60.5815C75.5162 60.5444 75.4644 60.4615 75.4645 60.3766C75.5019 60.2788 75.6329 60.2307 75.7247 60.2808L75.7269 60.2785Z" fill="#24C4F9"/>
<path d="M86.6049 63.6486C86.5096 63.7861 86.3009 63.8284 86.1596 63.7389C86.157 63.5301 86.5182 63.4591 86.5949 63.6534L86.6049 63.6486Z" fill="#24C4F9"/>
<path d="M78.9964 68.782C79.0493 68.7117 79.1302 68.6633 79.2171 68.6499C79.2873 68.7025 79.3357 68.7834 79.3489 68.8701C79.2963 68.9402 79.2154 68.9886 79.1287 69.0017C79.0583 68.9493 79.01 68.8681 78.9977 68.7811L78.9964 68.782Z" fill="#24C4F9"/>
<path d="M80.7654 62.7636C80.7126 62.8338 80.6316 62.8823 80.5447 62.8956C80.4745 62.843 80.4261 62.7622 80.4129 62.6755C80.4655 62.6053 80.5464 62.557 80.6331 62.5438C80.7036 62.5962 80.7518 62.6775 80.7641 62.7644L80.7654 62.7636Z" fill="#24C4F9"/>
<path d="M93.2531 66.3981C93.3228 66.2363 93.597 66.2299 93.6741 66.3883C93.5955 66.5577 93.3108 66.5675 93.2208 66.4039L93.2531 66.3981Z" fill="#24C4F9"/>
<path d="M86.4264 74.4401C86.353 74.4848 86.2797 74.5295 86.2063 74.5743C86.1366 74.5234 86.0893 74.443 86.0785 74.3575C86.1419 74.2572 86.2695 74.2021 86.3859 74.2247C86.4282 74.2886 86.4432 74.3699 86.4265 74.4447L86.4264 74.4401Z" fill="#24C4F9"/>
<path d="M86.2526 72.0565C86.2116 71.9579 86.3727 71.9092 86.4783 71.9247C86.5242 72.0196 86.5373 72.13 86.515 72.2331C86.4514 72.2755 86.3708 72.2912 86.296 72.2759C86.2537 72.2122 86.2387 72.131 86.2555 72.0563L86.2526 72.0565Z" fill="#24C4F9"/>
<path d="M78.9964 61.6139C79.0493 61.5437 79.1302 61.4953 79.2171 61.4819C79.2873 61.5345 79.3357 61.6153 79.3489 61.7021C79.2963 61.7722 79.2154 61.8206 79.1287 61.8337C79.0583 61.7813 79.01 61.7 78.9977 61.6131L78.9964 61.6139Z" fill="#24C4F9"/>
<path d="M91.0743 63.6936C91.1719 63.6503 91.222 63.812 91.2061 63.9176C91.1113 63.9636 91.0013 63.9777 90.8979 63.9569C90.856 63.8927 90.8403 63.8119 90.8552 63.7367C90.919 63.6944 91.0002 63.6794 91.0749 63.6961L91.0743 63.6936Z" fill="#24C4F9"/>
<path d="M75.8055 62.6766C75.8278 62.7502 75.8138 62.834 75.7688 62.8964C75.6923 62.9145 75.6084 62.8988 75.5436 62.8542C75.5443 62.7654 75.545 62.6766 75.5456 62.5878C75.6203 62.4918 75.8084 62.554 75.811 62.6756L75.8055 62.6766Z" fill="#24C4F9"/>
<path d="M79.4019 66.5302C79.3136 66.6585 79.0631 66.5474 79.0989 66.3959C79.136 66.3195 79.2189 66.2677 79.3038 66.2678C79.4015 66.3052 79.4497 66.4362 79.3995 66.528L79.4019 66.5302Z" fill="#24C4F9"/>
<path d="M77.0452 62.422C77.1313 62.4409 77.1631 62.5726 77.0952 62.6288C76.9481 62.6437 76.7604 62.636 76.7042 62.4993C76.7659 62.3773 76.9391 62.3285 77.0554 62.4002L77.0452 62.422Z" fill="#24C4F9"/>
<path d="M81.8716 73.2509C81.9419 73.3038 81.9903 73.3848 82.0037 73.4717C81.9511 73.5419 81.8702 73.5902 81.7835 73.6034C81.7134 73.5508 81.665 73.4699 81.6519 73.3832C81.7043 73.3128 81.7855 73.2645 81.8725 73.2523L81.8716 73.2509Z" fill="#24C4F9"/>
<path d="M85.0125 66.2132C85.1247 66.1314 85.3074 66.1808 85.3632 66.3079C85.2737 66.4233 85.1093 66.4743 84.9703 66.4296C84.9108 66.3696 84.9383 66.2503 85.018 66.2224L85.0125 66.2132Z" fill="#24C4F9"/>
<path d="M78.163 65.3798C78.0747 65.5081 77.8242 65.397 77.86 65.2454C77.8971 65.1691 77.98 65.1173 78.0649 65.1173C78.1626 65.1548 78.2108 65.2857 78.1606 65.3776L78.163 65.3798Z" fill="#24C4F9"/>
<path d="M85.2392 68.5575C85.1429 68.4097 84.8608 68.5935 84.957 68.7412C85.0532 68.889 85.3354 68.7052 85.2392 68.5575Z" fill="#24C4F9"/>
<path d="M75.7829 66.3489C75.7636 66.534 75.4414 66.5678 75.3841 66.3907C75.4476 66.2482 75.6759 66.222 75.77 66.3463L75.7829 66.3489Z" fill="#24C4F9"/>
<path d="M84.0015 73.5024C83.8102 73.4301 83.8791 73.0743 84.0835 73.0786C84.1777 73.2152 84.1347 73.4266 83.9945 73.5154L84.0015 73.5024Z" fill="#24C4F9"/>
<path d="M74.5087 62.6583C74.4412 62.6089 74.3737 62.5595 74.3062 62.5101C74.3764 62.3401 74.6651 62.3338 74.7426 62.5005C74.6926 62.5708 74.6121 62.6187 74.5265 62.629L74.5087 62.6583Z" fill="#24C4F9"/>
<path d="M87.4906 69.6644C87.6203 69.7529 87.5953 69.9881 87.4498 70.0473C87.2741 69.9891 87.3058 69.6703 87.4896 69.6478L87.4906 69.6644Z" fill="#24C4F9"/>
<path d="M93.2834 59.3598C93.3796 59.5076 93.6617 59.3238 93.5655 59.1761C93.4693 59.0283 93.1872 59.2121 93.2834 59.3598Z" fill="#24C4F9"/>
<path d="M85.023 73.1233C85.0938 72.9611 85.3693 72.9561 85.4459 73.1157C85.3714 73.2777 85.0932 73.2761 85.0205 73.1133L85.023 73.1233Z" fill="#24C4F9"/>
<path d="M80.4733 59.1174C80.5227 59.0499 80.5721 58.9824 80.6215 58.9149C80.7915 58.985 80.7978 59.2737 80.6311 59.3513C80.5608 59.3013 80.5129 59.2208 80.5026 59.1351L80.4733 59.1174Z" fill="#24C4F9"/>
<path d="M91.0808 62.62C90.9678 62.6017 90.982 62.4068 91.0897 62.3682C91.1974 62.3295 91.3151 62.4049 91.3814 62.4982C91.3191 62.5984 91.1913 62.6531 91.0757 62.629L91.0808 62.62Z" fill="#24C4F9"/>
<path d="M89.8019 66.3085C89.8579 66.1834 90.0352 66.1324 90.1492 66.2086C90.1837 66.3053 90.1211 66.4248 90.022 66.4514C89.9228 66.4781 89.8088 66.4061 89.7901 66.3052L89.8019 66.3085Z" fill="#24C4F9"/>
<path d="M79.3003 64.9433C79.4133 64.9616 79.3991 65.1565 79.2914 65.1951C79.1837 65.2337 79.066 65.1584 78.9997 65.0651C79.062 64.9648 79.1898 64.9101 79.3054 64.9342L79.3003 64.9433Z" fill="#24C4F9"/>
<path d="M88.6817 66.5278C88.7779 66.6755 89.0601 66.4918 88.9639 66.344C88.8676 66.1963 88.5855 66.38 88.6817 66.5278Z" fill="#24C4F9"/>
<path d="M80.8572 71.0868C81.0049 70.9906 80.8211 70.7084 80.6734 70.8047C80.5257 70.9009 80.7095 71.183 80.8572 71.0868Z" fill="#24C4F9"/>
<path d="M92.2075 63.9857C92.14 63.9363 92.0725 63.8869 92.005 63.8374C92.0751 63.6675 92.3638 63.6611 92.4414 63.8279C92.3914 63.8982 92.3109 63.9461 92.2252 63.9564L92.2075 63.9857Z" fill="#24C4F9"/>
<path d="M91.2872 66.2982C91.2164 66.4604 90.9409 66.4653 90.8643 66.3058C90.9388 66.1438 91.217 66.1453 91.2897 66.3082L91.2872 66.2982Z" fill="#24C4F9"/>
<path d="M94.7384 63.8204C94.6676 63.9826 94.3921 63.9875 94.3155 63.828C94.39 63.666 94.6682 63.6675 94.7409 63.8303L94.7384 63.8204Z" fill="#24C4F9"/>
<path d="M77.7218 69.9153C77.7702 69.8141 77.8185 69.7129 77.8669 69.6117C77.9633 69.6778 78.0505 69.788 78.023 69.9016C77.9955 70.0152 77.7952 70.0476 77.772 69.933L77.7218 69.9153Z" fill="#24C4F9"/>
<path d="M95.8374 62.6664C95.7362 62.6181 95.635 62.5697 95.5338 62.5214C95.5999 62.425 95.7101 62.3377 95.8237 62.3653C95.9373 62.3928 95.9697 62.593 95.8551 62.6163L95.8374 62.6664Z" fill="#24C4F9"/>
<path d="M89.8383 70.7768C89.9161 70.7557 90.0029 70.7709 90.0688 70.8172C90.034 70.9427 89.9491 71.0537 89.837 71.1202C89.6995 71.0692 89.7017 70.8309 89.84 70.7823L89.8383 70.7768Z" fill="#24C4F9"/>
<path d="M72.0443 65.1691C71.989 64.968 72.3764 64.8666 72.4267 65.0691C72.3706 65.1902 72.1967 65.2369 72.0876 65.1602L72.0443 65.1691Z" fill="#24C4F9"/>
<path d="M72.0546 62.7085C71.9417 62.6902 71.9558 62.4953 72.0635 62.4567C72.1713 62.4181 72.289 62.4934 72.3552 62.5867C72.2929 62.6869 72.1651 62.7417 72.0495 62.7175L72.0546 62.7085Z" fill="#24C4F9"/>
<path d="M88.9146 69.666C88.9097 69.7548 88.8543 69.8392 88.7748 69.8791C88.6118 69.8042 88.6135 69.5243 88.7773 69.4514C88.8473 69.5016 88.8948 69.5819 88.9052 69.6674L88.9146 69.666Z" fill="#24C4F9"/>
<path d="M74.4404 69.0169C74.3066 69.0184 74.2862 68.8248 74.313 68.6937C74.3803 68.6267 74.502 68.626 74.5701 68.6923C74.5997 68.8083 74.5414 68.9408 74.4359 68.9973L74.4404 69.0169Z" fill="#24C4F9"/>
<path d="M90.1344 69.8464C90.0911 69.6734 89.7606 69.7561 89.8039 69.9291C89.8472 70.1022 90.1777 70.0195 90.1344 69.8464Z" fill="#24C4F9"/>
<path d="M89.963 60.5408C89.8676 60.5946 89.7641 60.4396 89.8201 60.3455C89.8761 60.2514 90.0038 60.2306 90.1129 60.2402C90.1573 60.3556 90.0828 60.5014 89.9633 60.5329L89.963 60.5408Z" fill="#24C4F9"/>
<path d="M86.3798 62.4655C86.4928 62.4838 86.4786 62.6786 86.3709 62.7173C86.2632 62.7559 86.1455 62.6806 86.0792 62.5873C86.1415 62.487 86.2693 62.4323 86.3849 62.4564L86.3798 62.4655Z" fill="#24C4F9"/>
<path d="M73.47 63.7216C73.5254 63.9227 73.1379 64.0241 73.0877 63.8216C73.1437 63.7005 73.3176 63.6538 73.4268 63.7305L73.47 63.7216Z" fill="#24C4F9"/>
<path d="M79.3911 67.4102C79.4805 67.5094 79.4355 67.694 79.3105 67.7409C79.1131 67.6959 79.2094 67.3174 79.4043 67.3722L79.3911 67.4102Z" fill="#24C4F9"/>
<path d="M82.9507 63.6022C82.9629 63.6775 82.975 63.7527 82.9872 63.828C82.875 63.9119 82.6899 63.864 82.6324 63.7362C82.6921 63.6357 82.8201 63.5812 82.9339 63.6078L82.9507 63.6022Z" fill="#24C4F9"/>
<path d="M76.7867 72.3213C76.6044 72.3647 76.5787 72.0316 76.7372 71.9318C76.8807 71.9982 76.9097 72.226 76.7873 72.3262L76.7867 72.3213Z" fill="#24C4F9"/>
<path d="M80.8047 74.4122C80.9177 74.4305 80.9035 74.6253 80.7958 74.664C80.6881 74.7026 80.5704 74.6273 80.5041 74.534C80.5664 74.4337 80.6942 74.379 80.8098 74.4031L80.8047 74.4122Z" fill="#24C4F9"/>
<path d="M89.9646 63.6502C89.9864 63.7236 89.9728 63.8067 89.9288 63.8694C89.8127 63.8961 89.6787 63.8441 89.6235 63.7385C89.6856 63.6165 89.8587 63.5675 89.9756 63.6389L89.9646 63.6502Z" fill="#24C4F9"/>
<path d="M89.6159 59.137C89.6653 59.0654 89.7476 59.0176 89.8343 59.0101C89.9697 59.0658 89.9706 59.298 89.8357 59.3549C89.7622 59.2818 89.6887 59.2088 89.6152 59.1357L89.6159 59.137Z" fill="#24C4F9"/>
<path d="M75.6329 63.8229C75.5337 63.9123 75.3491 63.8673 75.3022 63.7423C75.3472 63.5449 75.7257 63.6411 75.6709 63.836L75.6329 63.8229Z" fill="#24C4F9"/>
<path d="M85.4167 67.5268C85.472 67.7279 85.0846 67.8293 85.0343 67.6268C85.0904 67.5057 85.2643 67.459 85.3734 67.5358L85.4167 67.5268Z" fill="#24C4F9"/>
<path d="M87.3094 60.1879C87.4053 60.1422 87.5344 60.1901 87.5773 60.2872C87.5049 60.3594 87.4324 60.4315 87.36 60.5037C87.2409 60.4591 87.211 60.2727 87.31 60.1931L87.3094 60.1879Z" fill="#24C4F9"/>
<path d="M88.5472 59.3229C88.4593 59.2615 88.458 59.1105 88.5449 59.0477C88.6319 58.9848 88.7748 59.0333 88.8056 59.1361C88.7545 59.2321 88.6592 59.3035 88.5527 59.3254L88.5472 59.3229Z" fill="#24C4F9"/>
<path d="M88.8325 70.9942C88.8233 71.117 88.6354 71.1759 88.5577 71.0803C88.5177 70.964 88.5921 70.8329 88.697 70.7686C88.7421 70.8409 88.7873 70.9132 88.8324 70.9856L88.8325 70.9942Z" fill="#24C4F9"/>
<path d="M96.9147 61.5648C96.8412 61.5865 96.7582 61.5729 96.6955 61.5289C96.6688 61.4128 96.7207 61.2788 96.8263 61.2236C96.9484 61.2857 96.9974 61.4588 96.9259 61.5757L96.9147 61.5648Z" fill="#24C4F9"/>
<path d="M83.9063 61.5704C83.8232 61.4607 83.8712 61.278 83.9975 61.2233C84.0974 61.2845 84.1518 61.4116 84.1273 61.5261C84.0635 61.5681 83.9824 61.583 83.9078 61.5664L83.9063 61.5704Z" fill="#24C4F9"/>
<path d="M89.7652 61.4183C89.8151 61.35 89.865 61.2816 89.915 61.2133C90.0235 61.2691 90.0845 61.4042 90.0544 61.5224C89.9826 61.6203 89.792 61.5575 89.7926 61.436L89.7652 61.4183Z" fill="#24C4F9"/>
<path d="M91.1628 72.2782C91.0797 72.1684 91.1277 71.9858 91.254 71.931C91.3538 71.9922 91.4083 72.1194 91.3838 72.2338C91.32 72.2758 91.2389 72.2907 91.1643 72.2742L91.1628 72.2782Z" fill="#24C4F9"/>
<path d="M77.8891 63.8737C77.8325 63.7958 77.8644 63.6698 77.9512 63.6283C78.0381 63.5868 78.1562 63.641 78.1812 63.7339C78.1455 63.8547 78.0017 63.9312 77.8816 63.8933L77.8891 63.8737Z" fill="#24C4F9"/>
<path d="M76.8445 72.9498C76.9451 72.9979 77.0458 73.0459 77.1464 73.094C77.0898 73.2068 76.9535 73.2735 76.8297 73.249C76.7666 73.1753 76.7635 73.0571 76.8225 72.9802L76.8445 72.9498Z" fill="#24C4F9"/>
<path d="M86.491 73.2477C86.5023 73.3221 86.5136 73.3965 86.5249 73.4709C86.4617 73.5154 86.3778 73.5291 86.3037 73.507C86.1743 73.4057 86.3396 73.1522 86.4845 73.2298L86.491 73.2477Z" fill="#24C4F9"/>
<path d="M90.0653 72.2326C90.0594 72.3217 90.0041 72.4059 89.9248 72.4468C89.8206 72.3916 89.7642 72.2594 89.7965 72.146C89.8688 72.0489 90.0583 72.1126 90.0573 72.2337L90.0653 72.2326Z" fill="#24C4F9"/>
<path d="M87.6242 63.87C87.566 63.9248 87.5077 63.9795 87.4495 64.0342C87.328 64.0093 87.2812 63.8241 87.3763 63.7444C87.4713 63.6648 87.6455 63.7432 87.6488 63.8672L87.6242 63.87Z" fill="#24C4F9"/>
<path d="M95.8026 61.4386C95.8541 61.5736 95.7352 61.7421 95.5908 61.7388C95.4672 61.6076 95.6526 61.3511 95.8159 61.4272L95.8026 61.4386Z" fill="#24C4F9"/>
<path d="M95.7666 65.2862C95.6676 65.3277 95.6186 65.1657 95.6344 65.0596C95.746 64.9797 95.9262 65.0301 95.9802 65.1563C95.9302 65.2262 95.8501 65.2737 95.7648 65.2839L95.7666 65.2862Z" fill="#24C4F9"/>
<path d="M74.5689 61.5246C74.5909 61.656 74.4208 61.7731 74.306 61.7056C74.3016 61.6094 74.3028 61.4993 74.3749 61.4354C74.447 61.3715 74.6003 61.4353 74.565 61.525L74.5689 61.5246Z" fill="#24C4F9"/>
<path d="M88.5988 73.4268C88.5272 73.3774 88.4794 73.2951 88.4719 73.2084C88.5277 73.073 88.7599 73.0721 88.8167 73.207C88.7436 73.2805 88.6706 73.354 88.5975 73.4275L88.5988 73.4268Z" fill="#24C4F9"/>
<path d="M80.545 69.9759C80.4748 69.9229 80.4263 69.842 80.4129 69.7551C80.4658 69.6849 80.5467 69.6364 80.6335 69.6228C80.719 69.731 80.6683 69.9164 80.5397 69.966L80.545 69.9759Z" fill="#24C4F9"/>
<path d="M88.5925 65.3793C88.5233 65.2671 88.6359 65.0962 88.7663 65.1156C88.8969 65.2164 88.7337 65.4721 88.5872 65.3961L88.5925 65.3793Z" fill="#24C4F9"/>
<path d="M74.6896 65.0457C74.7737 65.1939 74.5107 65.369 74.4064 65.2342C74.3157 65.1093 74.5575 64.9514 74.6597 65.067L74.6896 65.0457Z" fill="#24C4F9"/>
<path d="M92.2268 58.0352C92.2973 58.008 92.3826 58.0244 92.4381 58.0757C92.4977 58.1858 92.3745 58.3405 92.2539 58.307C92.1333 58.2736 92.1074 58.0776 92.2151 58.014L92.2268 58.0352Z" fill="#24C4F9"/>
<path d="M91.2574 69.6175C91.3266 69.7297 91.214 69.9006 91.0836 69.8812C90.953 69.7804 91.1163 69.5247 91.2627 69.6007L91.2574 69.6175Z" fill="#24C4F9"/>
<path d="M87.4898 65.4133C87.3737 65.4673 87.3012 65.2801 87.316 65.1529C87.3785 65.0788 87.5126 65.0859 87.5669 65.1662C87.6212 65.2466 87.5777 65.3737 87.4855 65.404L87.4898 65.4133Z" fill="#24C4F9"/>
<path d="M79.3979 63.7786C79.4521 63.8593 79.416 63.9851 79.3272 64.0247C79.2384 64.0644 79.1206 64.0072 79.0968 63.9129C79.1533 63.8112 79.2825 63.7562 79.3949 63.786L79.3979 63.7786Z" fill="#24C4F9"/>
<path d="M80.6801 63.9313C80.6056 63.9432 80.5312 63.955 80.4567 63.9668C80.3825 63.857 80.4994 63.6817 80.6293 63.7079C80.7164 63.7272 80.7481 63.8609 80.6789 63.9172L80.6801 63.9313Z" fill="#24C4F9"/>
<path d="M77.9816 60.5102C77.8226 60.5501 77.8439 60.2603 77.9753 60.1624C78.1144 60.209 78.1138 60.4505 77.9746 60.4965L77.9816 60.5102Z" fill="#24C4F9"/>
<path d="M76.8329 69.706C76.9021 69.8182 76.7895 69.989 76.6591 69.9697C76.5285 69.8688 76.6918 69.6131 76.8382 69.6891L76.8329 69.706Z" fill="#24C4F9"/>
<path d="M75.4264 65.3117C75.4746 65.2508 75.5229 65.1898 75.5711 65.1289C75.682 65.1333 75.7568 65.2811 75.6948 65.3731C75.6327 65.4651 75.4676 65.4511 75.422 65.3499L75.4264 65.3117Z" fill="#24C4F9"/>
<path d="M88.6777 62.5474C88.6287 62.4537 88.6781 62.3225 88.7767 62.2844C88.8476 62.3315 88.8948 62.4124 88.9011 62.4973C88.8716 62.5818 88.7448 62.6107 88.6817 62.5473L88.6777 62.5474Z" fill="#24C4F9"/>
<path d="M76.6425 65.2906C76.5935 65.1969 76.643 65.0657 76.7416 65.0276C76.8124 65.0748 76.8596 65.1557 76.866 65.2406C76.8365 65.3251 76.7097 65.3539 76.6465 65.2905L76.6425 65.2906Z" fill="#24C4F9"/>
<path d="M96.9339 60.2403C96.9455 60.3179 96.9571 60.3955 96.9688 60.4731C96.8916 60.4883 96.8145 60.5035 96.7373 60.5188C96.6645 60.4033 96.7788 60.2253 96.9141 60.2434L96.9339 60.2403Z" fill="#24C4F9"/>
<path d="M78.0749 66.2553C78.1383 66.374 78.0221 66.5422 77.8887 66.5248C77.8477 66.4597 77.8322 66.3788 77.8463 66.3031C77.9103 66.2608 77.9917 66.2457 78.0665 66.2624L78.0749 66.2553Z" fill="#24C4F9"/>
<path d="M77.8949 62.7958C77.7558 62.7544 77.7518 62.5137 77.8894 62.4677C78.0274 62.5132 78.0242 62.7544 77.885 62.7963L77.8949 62.7958Z" fill="#24C4F9"/>
<path d="M78.114 72.2309C78.1223 72.3164 78.0633 72.4037 77.9809 72.428C77.8726 72.4147 77.8108 72.2644 77.8784 72.1787C77.946 72.0931 78.1066 72.1183 78.1447 72.2205L78.114 72.2309Z" fill="#24C4F9"/>
<path d="M79.1203 71.1312C79.0714 71.0375 79.1208 70.9063 79.2194 70.8682C79.2902 70.9154 79.3375 70.9963 79.3438 71.0811C79.3143 71.1656 79.1875 71.1945 79.1243 71.1311L79.1203 71.1312Z" fill="#24C4F9"/>
<path d="M77.928 59.0486C77.937 58.9158 78.0939 58.783 78.1957 58.8688C78.2094 58.9554 78.2097 59.0562 78.1457 59.1161C78.0817 59.1761 77.9429 59.1312 77.9606 59.0453L77.928 59.0486Z" fill="#24C4F9"/>
<path d="M89.9681 67.7112C89.884 67.7529 89.7812 67.6515 89.7997 67.5594C89.8181 67.4674 89.918 67.4099 90.0119 67.4089C90.0892 67.4982 90.068 67.6541 89.9695 67.7194L89.9681 67.7112Z" fill="#24C4F9"/>
<path d="M80.4696 68.5852C80.5185 68.5256 80.5673 68.466 80.6161 68.4064C80.7209 68.402 80.8013 68.5379 80.747 68.6277C80.6927 68.7174 80.5349 68.7091 80.4903 68.6142L80.4696 68.5852Z" fill="#24C4F9"/>
<path d="M87.6233 67.7599C87.5478 67.779 87.4649 67.7665 87.3984 67.7259C87.3993 67.607 87.5029 67.4812 87.6192 67.506C87.7356 67.5308 87.7352 67.7506 87.6164 67.7442L87.6233 67.7599Z" fill="#24C4F9"/>
<path d="M86.4689 64.946C86.569 64.9735 86.6203 65.1093 86.5634 65.1962C86.4796 65.2163 86.3871 65.1966 86.3187 65.1441C86.3654 65.0704 86.4121 64.9967 86.4588 64.9231L86.4689 64.946Z" fill="#24C4F9"/>
<path d="M77.9294 67.3496C78.0738 67.3443 78.0031 67.5818 77.8888 67.6701C77.8133 67.5816 77.8367 67.428 77.935 67.366L77.9294 67.3496Z" fill="#24C4F9"/>
<path d="M92.1797 67.3654C92.295 67.4212 92.2647 67.6314 92.1383 67.6523C91.9881 67.6229 92.0325 67.3386 92.1846 67.3565L92.1797 67.3654Z" fill="#24C4F9"/>
<path d="M83.85 63.8556C83.7778 63.8162 83.823 63.6912 83.9029 63.672C83.9829 63.6528 84.0625 63.6989 84.1319 63.7431C84.1283 63.8642 83.9361 63.9205 83.8678 63.8204L83.85 63.8556Z" fill="#24C4F9"/>
<path d="M80.7219 67.6735C80.6661 67.7888 80.4559 67.7585 80.4349 67.6321C80.4644 67.4819 80.7486 67.5264 80.7308 67.6784L80.7219 67.6735Z" fill="#24C4F9"/>
<path d="M74.4026 71.9711C74.4351 71.8671 74.6147 71.8643 74.6505 71.9672C74.6152 72.0704 74.435 72.0678 74.4026 71.9636L74.4026 71.9711Z" fill="#24C4F9"/>
<path d="M79.1812 74.3604C79.2138 74.2564 79.3933 74.2536 79.4292 74.3565C79.3938 74.4597 79.2136 74.4571 79.1813 74.3529L79.1812 74.3604Z" fill="#24C4F9"/>
<path d="M96.8576 59.13C96.8329 59.229 96.6995 59.2816 96.6139 59.2261C96.5715 59.1465 96.6044 59.0309 96.6886 58.9988C96.7729 58.9666 96.8814 59.0486 96.8613 59.1366L96.8576 59.13Z" fill="#24C4F9"/>
<path d="M94.5072 71.1573C94.4476 71.1085 94.388 71.0597 94.3285 71.0109C94.324 70.9061 94.46 70.8257 94.5497 70.88C94.6394 70.9343 94.6312 71.0921 94.5363 71.1367L94.5072 71.1573Z" fill="#24C4F9"/>
<path d="M92.1819 72.3243C92.095 72.2859 92.1272 72.1244 92.2222 72.1223C92.349 72.1263 92.282 72.3891 92.1851 72.3072L92.1819 72.3243Z" fill="#24C4F9"/>
<path d="M79.5388 155.541C73.9686 150.453 69.2535 144.43 65.6504 137.802C64.1306 135.006 62.7724 131.864 63.3413 128.733C64.4054 122.877 62.2062 116.991 60.4738 111.297C58.7414 105.602 57.5141 99.1707 60.3008 93.9107C55.9049 97.9644 54.1419 104.107 53.1995 110.012C51.0147 123.701 52.2443 137.923 56.7465 151.034C51.4602 141.357 51.2524 129.78 51.7537 118.764C52.1437 110.193 53.1023 101.066 58.4866 94.3849C50.1974 101.145 47.6752 112.557 45.8462 123.095C44.1287 132.991 42.6001 143.377 45.7844 152.902C42.78 147.364 43.2707 140.662 43.8909 134.391C45.3176 119.968 47.5143 104.437 57.6169 94.0445C60.2889 91.2959 63.5504 88.9655 67.2934 88.1379C70.1938 87.4966 72.9881 86.3777 75.5295 84.8398C76.142 81.2524 72.7667 78.4277 70.4084 75.6558C67.7676 72.5518 66.1201 68.6153 65.7629 64.5555C65.5514 62.1524 65.0469 58.8782 62.6367 58.7758C60.6555 58.6915 59.164 56.3009 59.9593 54.4844C60.7546 52.668 63.5229 52.1424 64.9285 53.541C62.9234 46.0236 67.1594 37.3502 74.3209 34.3097C73.1532 32.6398 75.702 30.6384 77.7256 30.8776C79.7492 31.1168 81.708 32.3391 83.695 31.8875C83.014 30.6885 84.105 29.0954 85.4493 28.7882C86.7936 28.4811 88.1731 29.0647 89.3789 29.7337C97.1191 34.0279 102.234 42.6879 102.259 51.5395C102.459 49.9238 104.883 49.3705 106.069 50.486C107.255 51.6014 107.199 53.5979 106.357 54.9912C105.514 56.3845 104.079 57.2993 102.659 58.0946C102.695 63.9645 100.462 69.8195 96.5275 74.1756C93.6644 77.3453 89.6079 80.7075 90.5475 84.8743C92.0706 84.5373 93.6114 86.2943 93.0784 87.7604C99.6087 87.2164 105.703 91.1578 110.329 95.7986C117.112 102.602 121.986 111.287 124.261 120.62C124.658 122.25 126.977 122.694 128.412 121.825C129.847 120.955 130.585 119.31 131.238 117.765C135.544 107.589 139.85 97.4135 144.156 87.238C142.715 78.3815 143.997 78.875 144.672 74.7336C146.518 69.9201 146.165 65.5708 146.911 60.9893C147.115 59.7418 147.987 58.0954 149.139 58.6156C149.722 58.8786 149.928 59.5889 150.052 60.216C150.75 63.7402 150.974 67.3583 150.714 70.9417C152.204 68.3919 153.695 65.8421 155.185 63.2923C156.001 61.8968 157.803 60.3341 158.934 61.4886C159.556 62.1227 159.392 63.1631 159.136 64.0131C158.32 66.7171 156.991 69.265 155.239 71.4806C157.601 72.2861 160.336 73.5092 160.75 75.9699C160.921 76.9905 160.632 78.0294 160.289 79.0061C159.098 82.4012 157.216 85.5524 154.792 88.2112C155.348 87.8756 155.712 88.8743 155.601 89.5145C152.942 104.899 146.462 119.608 136.906 131.954C134.086 135.598 130.26 139.356 125.673 138.926C122.801 138.657 120.375 136.773 118.128 134.964C115.709 133.017 113.29 131.07 110.871 129.123C116.502 130.381 119.638 137.406 125.366 138.099C130.023 138.663 133.933 134.762 136.748 131.009C145.932 118.763 152.205 104.348 154.906 89.2812C151.234 89.8977 147.41 89.5969 143.879 88.4136C140.376 99.2766 135.963 109.846 130.703 119.976C129.794 121.727 128.176 123.762 126.309 123.126C125.473 122.841 124.909 122.074 124.438 121.327C119.731 113.861 118.637 103.906 111.772 98.3604C114.539 115.52 110.176 132.969 105.239 149.634C109.019 136.649 111.321 123.233 112.088 109.73C112.264 106.63 112.352 103.462 111.474 100.483C110.597 97.5047 108.594 94.702 105.687 93.6114C103.794 105.927 92.7027 115.088 89.8962 127.227C87.6268 137.044 84.1392 146.578 79.5388 155.541ZM90.9393 121.829C95.1588 113.807 100.691 106.464 104.125 98.0761C104.906 96.1692 105.55 93.9024 104.489 92.1363C104.105 91.4986 103.534 90.9997 102.972 90.5119C102.084 89.7405 101.11 88.9316 99.9376 88.8362C98.3818 88.7096 97.0326 89.8734 96.0316 91.0712C93.6043 93.9758 92.0368 97.4865 90.5462 100.966C86.9809 109.289 83.6664 117.76 81.582 126.571C79.4975 135.382 78.6664 144.579 80.0999 153.519C81.9151 145.32 88.0187 138.374 88.8553 130.018C88.993 128.642 88.9839 127.245 89.2833 125.895C89.601 124.462 90.256 123.128 90.9393 121.829ZM99.2924 46.122C98.7211 45.0204 98.008 43.9667 97.0331 43.199C94.8615 41.4888 91.8036 41.4843 89.0866 41.9925C87.3498 42.3174 85.646 42.8183 84.0098 43.4852C83.5826 43.6592 83.1289 43.8485 82.6751 43.766C82.2213 43.6835 81.813 43.1942 81.999 42.7721C82.0347 42.6909 82.0902 42.6155 82.0997 42.5273C82.1263 42.2802 81.8121 42.1565 81.5661 42.121C77.8268 41.5819 73.845 42.2124 70.7015 44.308C67.558 46.4036 65.3817 50.0577 65.4982 53.8339C65.5243 54.6812 66.1615 55.3745 66.801 55.9311C67.7791 56.7823 68.857 57.5188 70.0055 58.1207C70.5211 58.3909 71.2283 58.6052 71.6224 58.1768C72.404 57.3272 73.7024 57.2611 74.8567 57.2858C78.8685 57.3717 82.902 57.8346 86.879 57.3C89.3018 56.9744 91.6615 56.283 94.0749 55.8939C94.8142 55.7748 95.5774 55.6849 96.306 55.8575C97.0346 56.0301 97.7306 56.5147 97.9624 57.2267C98.9022 56.1649 99.7473 55.0193 100.484 53.808C100.706 53.4446 100.92 53.0666 101.002 52.6492C101.075 52.2786 101.039 51.8959 100.99 51.5215C100.743 49.6414 100.165 47.8053 99.2924 46.122ZM93.2754 72.5002C94.6913 71.8793 95.4868 70.3737 96.0225 68.9233C97.299 65.4668 97.7093 61.6941 97.2058 58.0439C97.1551 57.677 97.0874 57.2925 96.8534 57.0054C96.4826 56.5506 95.82 56.4801 95.2338 56.504C93.8549 56.5601 92.5133 56.9401 91.1711 57.2605C88.345 57.9351 85.4498 58.3544 82.5444 58.3642C79.673 58.3738 76.8064 57.9843 73.9372 58.0958C73.3661 58.118 72.7623 58.1715 72.2988 58.5059C71.5639 59.036 71.4347 60.0631 71.4053 60.9688C71.2936 64.4119 71.7 67.8714 72.6065 71.1949C72.6609 71.3946 72.7223 71.6028 72.8676 71.7503C73.0242 71.9093 73.2514 71.971 73.4656 72.0337C76.932 73.0488 79.9306 75.9562 83.5339 75.7054C86.2068 75.5194 88.4543 73.6022 91.0707 73.0246C91.81 72.8614 92.582 72.8043 93.2754 72.5002ZM63.6418 129.378C63.4267 132.502 65.1944 135.379 66.8943 138.008C68.6152 140.671 70.336 143.333 72.0568 145.995C69.5189 137.548 68.3216 128.757 67.5073 119.975C66.6571 110.806 66.2349 101.399 68.7424 92.5377C69.1403 91.1316 69.617 89.7318 70.3867 88.4896C68.0787 88.4296 65.6231 88.6064 63.7403 89.9427C62.5163 90.8115 61.6475 92.1006 61.0039 93.4567C59.0153 97.6469 59.0104 102.537 59.8896 107.091C60.7688 111.645 62.4743 115.991 63.8107 120.433C64.1991 121.723 64.5598 123.049 64.5125 124.395C64.4534 126.083 63.7577 127.693 63.6418 129.378ZM74.8525 73.3926C73.6629 72.9357 72.22 72.5628 71.7469 71.3796C71.5248 70.824 71.5788 70.2024 71.5148 69.6075C71.4508 69.0126 71.2013 68.3601 70.6448 68.1402C69.3039 67.6103 68.0177 66.9423 66.8131 66.1501C67.4107 69.6646 69.0021 73.0045 71.3551 75.6826C72.5336 77.0238 73.8997 78.205 74.944 79.6532C75.9882 81.1014 76.6984 82.9235 76.3138 84.667C76.1913 85.2226 76.9894 85.4645 77.5583 85.451C81.3366 85.3617 85.1145 85.2561 88.8919 85.1343C89.532 85.1137 89.9095 84.366 89.8946 83.7258C89.8796 83.0856 89.6218 82.4668 89.6302 81.8264C89.6425 80.8853 90.2196 80.0543 90.8068 79.3188C92.5464 77.1399 94.5781 75.2118 96.3864 73.0897C98.1948 70.9675 99.8061 68.59 100.494 65.888C99.2969 67.9065 96.7721 68.9471 95.836 71.0989C95.3046 72.3203 94.0196 73.0389 92.7469 73.4315C91.4742 73.8241 90.1253 73.9836 88.9106 74.53C88.2879 74.81 87.7134 75.1864 87.1036 75.4935C84.961 76.5726 82.3791 76.7438 80.1128 75.9571C78.2679 75.3167 76.6756 74.0928 74.8525 73.3926ZM150.513 78.7306C151.826 78.6526 153.411 79.1633 154.281 78.1768C154.48 77.951 154.611 77.6401 154.539 77.3478C154.441 76.9499 154.022 76.7311 153.641 76.5805C151.206 75.619 148.481 75.4075 145.928 75.9818C145.038 76.1818 144.519 77.0029 144.324 77.8934C144.129 78.784 144.176 79.748 144.324 80.6476C144.699 82.9325 145.073 85.2173 145.448 87.5022C145.465 87.6051 145.483 87.7116 145.541 87.7984C145.628 87.9287 145.786 87.9892 145.934 88.0397C147.779 88.6682 149.742 88.9485 151.689 88.8615C152.463 88.8269 153.301 88.7044 153.844 88.1519C156.504 85.4475 158.448 82.0458 159.428 78.3815C158.895 78.8592 158.209 79.2309 157.495 79.1757C156.781 79.1205 156.087 78.5128 156.134 77.7981C154.764 78.8532 153.152 79.9696 151.459 79.6193C150.165 79.3514 148.736 79.9248 147.986 81.0132C147.529 80.893 147.705 80.1856 148.038 79.8498C148.689 79.1921 149.589 78.7855 150.513 78.7306ZM71.8999 99.0688C71.0037 99.2082 70.1116 99.3753 69.2268 99.575C68.6045 99.7155 67.8637 100.001 67.7832 100.634C67.6226 101.896 67.5355 103.167 67.5224 104.439C74.2892 102.842 81.4744 103.057 88.134 105.054C88.8416 103.396 89.5493 101.738 90.2569 100.081C84.2982 98.4669 77.9998 98.1197 71.8999 99.0688ZM96.9006 89.1242C95.8298 88.5576 94.5828 88.33 93.3809 88.4818C93.1437 88.5118 92.8772 88.5775 92.7629 88.7875C92.3067 89.626 91.309 89.9885 90.3861 90.2329C85.7425 91.4628 80.8394 91.4352 76.0797 90.7864C75.1948 90.6658 74.2979 90.5195 73.4939 90.1306C72.69 89.7418 71.9793 89.073 71.7407 88.2124C71.1071 88.2029 70.7265 88.895 70.5014 89.4873C69.8205 91.2786 69.2321 93.105 68.7393 94.9569C76.456 93.2088 84.6116 93.4349 92.2197 95.6078C92.9458 94.7212 93.4847 93.6821 93.7911 92.5779C93.9341 92.0625 94.3297 91.662 94.7104 91.2862C95.4405 90.5656 96.1705 89.8449 96.9006 89.1242ZM84.2965 115.235C85.0423 113.586 85.6756 111.886 86.1906 110.151C80.2494 109.166 74.1648 109.051 68.1905 109.809C67.9371 109.842 67.656 109.891 67.5029 110.095C67.3683 110.275 67.3752 110.521 67.388 110.745C67.4517 111.857 67.5154 112.97 67.5791 114.083C67.5962 114.382 67.7388 114.786 68.0321 114.725C73.3935 113.62 79.0148 113.796 84.2965 115.235ZM158.407 64.1704C158.577 63.7482 158.74 63.3043 158.703 62.8506C158.666 62.3969 158.371 61.9321 157.923 61.8479C157.645 61.7955 157.357 61.8965 157.115 62.0455C156.523 62.4108 156.152 63.0379 155.805 63.6404C154.23 66.3683 152.656 69.0962 151.081 71.8241C150.877 72.1778 150.287 72.0682 150.063 71.7267C149.839 71.3852 149.869 70.9434 149.901 70.5363C150.165 67.1244 149.967 63.6769 149.312 60.318C149.272 60.1094 149.226 59.8938 149.101 59.7223C148.737 59.2252 147.888 59.3979 147.522 59.8932C147.156 60.3885 147.135 61.0499 147.13 61.6658C147.094 66.3573 147.138 71.2154 145.243 75.5073C147.168 74.7601 149.335 74.6522 151.324 75.2046C151.609 75.2836 151.903 75.3765 152.193 75.3216C152.483 75.2668 152.759 75.0026 152.708 74.7118C152.519 73.6225 153.301 72.632 153.988 71.7659C155.815 69.4637 157.309 66.8968 158.407 64.1704ZM92.3957 86.6339C92.2646 86.0962 91.7825 85.6024 91.2313 85.6517C85.6064 86.1554 79.9493 86.2985 74.3062 86.0801C73.9722 86.0672 73.6204 86.0567 73.3241 86.2114C73.1148 86.3206 72.9513 86.5056 72.8404 86.7139C72.3901 87.5593 72.8473 88.6617 73.615 89.2344C74.3827 89.8072 75.3715 89.9744 76.3218 90.0944C80.4702 90.618 84.6981 90.5629 88.8164 89.8394C89.7055 89.6832 90.6178 89.484 91.3538 88.9612C92.0898 88.4384 92.6095 87.5111 92.3957 86.6339ZM82.368 121.078C82.4006 120.965 82.4317 120.838 82.3725 120.737C82.3094 120.629 82.171 120.597 82.0478 120.576C77.5763 119.818 72.9995 120.19 68.4796 120.565C68.3518 120.576 68.2064 120.596 68.1345 120.702C68.0785 120.785 68.0865 120.894 68.0966 120.993C68.2276 122.277 68.3586 123.56 68.4896 124.843C68.5147 125.089 68.6191 125.409 68.8664 125.396C72.7967 125.196 76.7461 125.37 80.6435 125.916C80.8911 125.95 81.0401 125.655 81.1097 125.415C81.5292 123.969 81.9486 122.523 82.368 121.078ZM79.805 132.624C79.8243 132.439 79.8354 132.229 79.7076 132.094C79.6098 131.991 79.4582 131.965 79.3175 131.945C76.2579 131.519 73.149 131.821 70.0748 132.124C69.9211 132.139 69.7433 132.17 69.6692 132.305C69.6183 132.398 69.6345 132.512 69.652 132.616C69.8582 133.846 70.0645 135.075 70.2707 136.305C70.3004 136.482 70.3939 136.709 70.5714 136.682C73.5038 136.245 76.6245 136.117 79.3065 137.38C79.4726 135.795 79.6388 134.209 79.805 132.624ZM67.5049 65.6745C68.6126 66.4353 69.8287 67.0381 71.105 67.459C70.5493 64.8963 70.4405 62.2373 70.7848 59.6377C70.8283 59.309 70.4581 59.0967 70.1526 58.9679C68.3657 58.2146 66.7439 57.0724 65.4328 55.6435C65.5682 58.3555 65.8614 61.0596 66.3103 63.7377C66.3776 64.1393 66.4528 64.552 66.6703 64.8964C66.8748 65.2203 67.1891 65.4576 67.5049 65.6745ZM97.0337 68.4279C98.2237 67.461 99.2659 66.3205 100.188 65.0957C100.686 64.4348 101.155 63.7386 101.431 62.9587C101.708 62.1745 101.78 61.3338 101.813 60.5028C101.899 58.3275 101.733 56.1424 101.319 54.0052C100.363 55.3032 99.408 56.6013 98.4525 57.8993C98.3059 58.0985 98.1558 58.305 98.0993 58.5458C98.0541 58.7389 98.0724 58.9404 98.0885 59.138C98.3437 62.2639 97.9832 65.4388 97.0337 68.4279ZM78.5746 147.811C78.7838 147.853 78.8796 147.561 78.8847 147.347C78.915 146.072 78.9453 144.796 78.9756 143.521C78.9784 143.406 78.9801 143.286 78.9304 143.182C78.8387 142.991 78.6086 142.918 78.4031 142.865C77.242 142.563 76.064 142.259 74.8643 142.273C73.8679 142.285 72.8812 142.518 71.885 142.493C71.7721 142.49 71.6249 142.509 71.6011 142.619C71.5929 142.658 71.6037 142.697 71.6146 142.735C72.0542 144.261 72.6329 145.747 73.3412 147.168C73.434 147.354 73.5449 147.554 73.7388 147.63C73.8757 147.683 74.0285 147.663 74.1742 147.645C75.6371 147.462 77.1296 147.518 78.5746 147.811ZM102.475 52.0282C102.247 52.3805 102.045 52.7655 102.008 53.1833C101.985 53.4396 102.025 53.6969 102.065 53.9512C102.218 54.9308 102.372 55.9105 102.526 56.8902C102.535 56.9471 102.545 57.0074 102.583 57.0507C102.672 57.1526 102.837 57.0985 102.958 57.0372C103.444 56.7902 103.937 56.5394 104.347 56.1803C104.677 55.8922 104.945 55.5417 105.198 55.1845C105.726 54.438 106.211 53.6054 106.245 52.6915C106.28 51.7776 105.719 50.7842 104.82 50.6191C103.867 50.4444 103.001 51.2151 102.475 52.0282ZM61.085 53.9682C60.7199 54.288 60.5877 54.796 60.5271 55.2776C60.4715 55.7185 60.462 56.1778 60.6149 56.5951C60.8258 57.1707 61.3273 57.6022 61.8821 57.8631C62.437 58.1239 63.0481 58.2357 63.6514 58.3451C63.9492 58.3991 64.247 58.4531 64.5447 58.5071C64.6185 58.5205 64.7058 58.5299 64.7579 58.4761C64.8012 58.4314 64.8012 58.3615 64.7984 58.2993C64.7492 57.1965 64.7 56.0938 64.6508 54.991C64.6299 54.5225 64.2949 54.1098 63.8821 53.8874C63.4693 53.6649 62.9886 53.605 62.5198 53.5931C62.0136 53.5802 61.4658 53.6345 61.085 53.9682ZM156.797 72.839C156.578 72.5997 156.254 72.4901 155.944 72.397C155.614 72.2983 155.259 72.2082 154.932 72.3157C154.561 72.4377 154.316 72.7845 154.12 73.1222C153.824 73.633 153.579 74.173 153.389 74.7319C153.321 74.9298 153.26 75.1379 153.288 75.345C153.316 75.5521 153.458 75.7579 153.663 75.7965C154.502 75.9537 155.234 76.5858 155.513 77.3924C155.903 76.576 156.292 75.7597 156.682 74.9433C156.843 74.6057 157.006 74.2617 157.062 73.8917C157.117 73.5217 157.05 73.1149 156.797 72.839ZM159.716 74.5486C159.317 74.1735 158.653 74.1998 158.192 74.495C157.731 74.7903 157.444 75.295 157.258 75.8102C157.047 76.397 156.944 77.0227 156.956 77.6463C156.959 77.7952 156.97 77.9491 157.039 78.0812C157.204 78.4001 157.642 78.4714 157.99 78.3835C158.751 78.1913 159.258 77.484 159.635 76.795C159.828 76.44 160.009 76.0674 160.059 75.6661C160.11 75.2648 160.011 74.8256 159.716 74.5486ZM79.4362 154.171C79.2489 153.088 79.0617 152.006 78.8745 150.923C78.8527 150.797 78.8235 150.659 78.7209 150.583C78.6535 150.533 78.5666 150.519 78.4834 150.508C77.5185 150.383 76.5381 150.377 75.5717 150.49C76.7124 151.86 78.012 153.098 79.4362 154.171Z" fill="#00160A"/>
<path d="M24.026 48.6298C23.0628 50.4764 22.5631 52.5251 22.5752 54.5976C21.7753 53.022 20.8174 51.3925 18.9705 50.9149C17.4236 50.5013 15.6322 51.3511 15.4227 53.0222C15.1722 55.0297 16.9801 56.7825 18.3361 58.0197C19.9248 59.4814 21.7609 60.6552 23.643 61.7134C24.6067 62.2528 25.5807 62.7513 26.5586 63.2608C26.3423 63.9453 26.1356 64.7253 26.5486 65.3415C26.8726 65.817 27.5266 66.024 28.0025 65.6035C28.4784 65.183 28.4662 64.4581 28.1533 63.9785C27.8793 63.5714 27.4514 63.2944 26.9981 63.0514C27.0227 62.9806 27.0401 62.9248 27.0647 62.8541C27.2422 62.2702 27.4347 61.6933 27.6423 61.1232C28.0425 59.9761 28.4839 58.8388 28.8801 57.6808C29.5854 55.6438 30.1771 53.5369 30.2712 51.3762C30.3394 49.7318 30.2628 47.2747 28.6736 46.2954C26.7509 45.0912 24.8497 47.0566 24.026 48.6298ZM27.9177 64.2992C28.0663 64.6036 28.0863 65.0043 27.8309 65.2703C27.4002 65.7115 26.8604 65.2651 26.7348 64.8163C26.6092 64.3675 26.7327 63.8774 26.8793 63.4161C27.2984 63.6344 27.7183 63.8896 27.9177 64.2992ZM29.9064 50.2356C29.9561 51.3054 29.8789 52.372 29.6819 53.4204C29.3036 55.5609 28.55 57.6031 27.7963 59.6454C27.4056 60.7148 27.0078 61.7992 26.6735 62.8852C26.4131 62.7574 26.1607 62.6515 25.9266 62.5265C25.0018 62.0595 24.0953 61.5735 23.1919 61.0616C21.3471 60.0022 19.5626 58.7973 18.0366 57.3004C17.1553 56.4343 16.1779 55.4425 15.8043 54.2433C15.4108 52.9894 15.9006 51.6738 17.2193 51.2185C19.7122 50.3606 21.526 52.8901 22.5682 54.7856C22.5754 54.9437 22.5826 55.1018 22.5898 55.2599C22.6058 55.4766 22.9256 55.4221 22.9176 55.2272C22.853 53.1489 23.2146 51.101 24.1207 49.2011C24.5702 48.2587 25.1522 47.2309 26.0994 46.6883C27.1498 46.0835 28.4069 46.2194 29.1121 47.2237C29.7133 48.0805 29.8614 49.2134 29.9064 50.2356Z" fill="#24C4F9"/>
<path d="M152.117 23.0691C150.193 23.8645 148.493 25.1127 147.17 26.7082C147.57 24.987 147.884 23.123 146.776 21.57C145.857 20.2588 143.938 19.7583 142.703 20.9038C141.221 22.2806 141.479 24.7854 141.723 26.6048C142 28.7457 142.652 30.8251 143.414 32.8455C143.805 33.8782 144.231 34.8862 144.653 35.905C144.047 36.2904 143.387 36.755 143.308 37.4925C143.25 38.065 143.618 38.644 144.253 38.6278C144.888 38.6116 145.344 38.0484 145.413 37.4799C145.465 36.9918 145.315 36.5046 145.124 36.0271C145.188 35.9887 145.238 35.9572 145.302 35.9188C145.813 35.5856 146.332 35.2674 146.857 34.9641C147.901 34.3426 148.97 33.7551 150.018 33.1227C151.868 32.0156 153.675 30.782 155.136 29.1873C156.245 27.9715 157.766 26.04 157.178 24.2682C156.479 22.11 153.76 22.3935 152.117 23.0691ZM145.027 37.5741C144.945 37.9028 144.702 38.2226 144.336 38.2623C143.722 38.3233 143.596 37.6344 143.788 37.2098C143.98 36.7853 144.39 36.4893 144.799 36.2301C144.979 36.6668 145.137 37.1322 145.027 37.5741ZM155.59 28.079C154.94 28.9306 154.195 29.698 153.371 30.3744C151.705 31.771 149.815 32.851 147.925 33.931C146.938 34.4991 145.936 35.0741 144.982 35.6911C144.865 35.4259 144.74 35.1825 144.641 34.9363C144.232 33.9841 143.85 33.0291 143.487 32.0563C142.755 30.0589 142.163 27.9888 141.956 25.8613C141.837 24.6313 141.726 23.2433 142.211 22.0845C142.715 20.8711 143.936 20.178 145.239 20.6769C147.7 21.6222 147.464 24.7258 147.044 26.8477C146.948 26.9734 146.852 27.0992 146.755 27.2249C146.628 27.4012 146.908 27.565 147.028 27.4105C148.314 25.777 149.907 24.4407 151.823 23.5677C152.773 23.1346 153.879 22.7214 154.954 22.9146C156.147 23.1264 157.023 24.0386 156.917 25.2613C156.827 26.304 156.212 27.2671 155.59 28.079Z" fill="#24C4F9"/>
</svg>
