<svg width="16" height="16" viewBox="0 0 16 16" fill="none" xmlns="http://www.w3.org/2000/svg">
<path d="M8.0013 12.3327C10.3945 12.3327 12.3346 10.3926 12.3346 7.99935C12.3346 5.60612 10.3945 3.66602 8.0013 3.66602C5.60807 3.66602 3.66797 5.60612 3.66797 7.99935C3.66797 10.3926 5.60807 12.3327 8.0013 12.3327Z" stroke="white" stroke-linecap="round" stroke-linejoin="round"/>
<path opacity="0.4" d="M12.7587 12.7606L12.672 12.674M12.672 3.32732L12.7587 3.24065L12.672 3.32732ZM3.2387 12.7606L3.32536 12.674L3.2387 12.7606ZM7.9987 1.38732V1.33398V1.38732ZM7.9987 14.6673V14.614V14.6673ZM1.38536 8.00065H1.33203H1.38536ZM14.6654 8.00065H14.612H14.6654ZM3.32536 3.32732L3.2387 3.24065L3.32536 3.32732Z" stroke="white" stroke-linecap="round" stroke-linejoin="round"/>
</svg>
