<svg width="1400" height="1024" viewBox="0 0 1400 1024" fill="none" xmlns="http://www.w3.org/2000/svg">
<path d="M678.141 3.91968C678.141 17.2244 694.624 36.3751 714.027 46.0513C733.639 55.5258 753.043 60.1623 788.094 63.3877C838.168 68.0242 869.047 76.2892 897.004 92.4161C928.718 110.962 946.452 129.307 961.891 160.149C972.323 180.913 981.295 211.352 983.798 235.341L985.259 248.041L996.734 229.293C1028.24 177.687 1063.92 145.837 1106.27 131.524C1137.36 120.84 1183.26 123.662 1245.43 139.386C1300.3 153.497 1315.74 151.481 1397.74 119.227C1400.24 118.421 1400.45 121.445 1399.41 139.184C1393.36 234.535 1328.68 301.058 1217.06 326.257C1175.75 335.53 1120.04 339.158 1087.49 334.723L1076.64 333.312V350.447C1076.64 415.963 1066.63 506.878 1052.44 568.362C1002.37 786.681 876.349 963.271 680.228 1089.26C590.721 1146.92 502.467 1187.84 392.305 1222.51C282.352 1257.18 170.104 1277.75 34.4879 1288.43C-9.7437 1291.86 -151.41 1291.86 -195.016 1288.43C-432.448 1269.68 -631.907 1214.04 -779.207 1125.55C-860.368 1076.76 -931.096 1012.26 -977.206 945.329C-1035.21 861.066 -1064 770.957 -1064 674.598C-1064 538.931 -1008.92 410.923 -906.477 308.517C-791.934 193.814 -636.497 127.492 -451.643 114.591C-406.368 111.365 -327.502 113.381 -286.609 118.622C-207.743 128.903 -147.655 146.24 -80.2639 178.292C23.43 227.479 96.2453 289.366 232.904 443.379C333.051 556.67 375.822 597.592 429.443 632.064C468.041 657.06 508.309 673.591 550.454 682.259C593.016 690.725 665.623 689.314 711.524 678.832C813.548 655.851 876.558 595.576 900.343 498.815C908.271 466.763 910.357 441.363 909.314 394.191C908.271 355.285 903.264 309.928 899.508 305.896C898.673 305.09 890.745 303.477 881.565 302.268C843.593 297.228 800.404 283.722 758.468 263.362C727.589 248.646 710.272 237.155 692.537 219.819C674.386 201.878 662.076 183.13 653.73 160.149C648.306 144.829 647.889 142.007 647.889 109.753C647.889 70.4433 651.227 54.1147 666.249 19.4418C674.594 0.29104 678.141 -4.34538 678.141 3.91968Z" fill="#FECD67"/>
</svg>
