<svg width="2530" height="1240" viewBox="0 0 2530 1240" fill="none" xmlns="http://www.w3.org/2000/svg">
<path d="M1788.81 3.76487C1788.81 16.544 1805.73 34.9382 1825.65 44.2321C1845.79 53.3324 1865.71 57.7857 1901.7 60.8836C1953.12 65.337 1984.82 73.2755 2013.53 88.7653C2046.09 106.579 2064.3 124.198 2080.16 153.823C2090.87 173.766 2100.08 203.003 2102.65 226.044L2104.15 238.242L2115.93 220.235C2148.28 170.668 2184.91 140.076 2228.4 126.328C2260.32 116.066 2307.45 118.777 2371.29 133.88C2427.63 147.433 2443.49 145.497 2527.68 114.517C2530.25 113.743 2530.46 116.647 2529.39 133.686C2523.18 225.27 2456.77 289.165 2342.16 313.368C2299.74 322.275 2242.54 325.76 2209.12 321.5L2197.98 320.145V336.603C2197.98 399.53 2187.7 486.854 2173.13 545.91C2121.72 755.603 1992.32 925.217 1790.95 1046.23C1699.04 1101.61 1608.43 1140.91 1495.31 1174.22C1382.41 1207.52 1267.16 1227.27 1127.91 1237.53C1082.5 1240.82 937.034 1240.82 892.261 1237.53C648.469 1219.52 443.667 1166.08 292.422 1081.08C209.087 1034.23 136.463 972.268 89.119 907.985C29.5635 827.05 -4.19617e-05 740.501 -4.19617e-05 647.949C-4.19617e-05 517.641 56.5562 394.69 161.742 296.329C279.354 186.158 438.954 122.456 628.76 110.064C675.247 106.966 756.226 108.902 798.214 113.936C879.193 123.811 940.89 140.463 1010.09 171.249C1116.56 218.493 1191.32 277.935 1331.64 425.863C1434.47 534.679 1478.39 573.985 1533.45 607.094C1573.08 631.104 1614.42 646.981 1657.7 655.307C1701.4 663.439 1775.95 662.083 1823.08 652.015C1927.84 629.942 1992.54 572.049 2016.96 479.11C2025.1 448.324 2027.24 423.927 2026.17 378.619C2025.1 341.25 2019.96 297.685 2016.1 293.812C2015.25 293.038 2007.1 291.489 1997.68 290.327C1958.69 285.486 1914.34 272.514 1871.28 252.958C1839.58 238.823 1821.8 227.787 1803.59 211.135C1784.95 193.903 1772.31 175.896 1763.74 153.823C1758.17 139.107 1757.74 136.397 1757.74 105.417C1757.74 67.6605 1761.17 51.977 1776.59 18.6738C1785.16 0.279581 1788.81 -4.17368 1788.81 3.76487Z" fill="#FECD67"/>
</svg>
