<svg width="24" height="24" viewBox="0 0 24 24" fill="none" xmlns="http://www.w3.org/2000/svg">
<path d="M10.5035 7.25775L10.5035 7.25733L10.5 3.13488C10.5 3.13482 10.5 3.13476 10.5 3.1347C10.5 2.97376 10.5557 2.83822 10.7036 2.70386C10.8529 2.56821 11.0256 2.5 11.2491 2.5L13.7474 2.5C13.9709 2.5 14.1436 2.56821 14.2929 2.70386C14.4409 2.83827 14.4965 2.97386 14.4965 3.13488L14.4965 10.7424V10.7428L14.5 14.8651C14.5 14.8652 14.5 14.8653 14.5 14.8654C14.4999 15.0263 14.4442 15.1618 14.2964 15.2961C14.1471 15.4318 13.9744 15.5 13.7509 15.5H11.2526C11.0291 15.5 10.8564 15.4318 10.7071 15.2961C10.5591 15.1617 10.5035 15.0261 10.5035 14.8651L10.5035 7.25775ZM10.5035 18.8778L10.5035 18.8766L10.5005 17.6019C10.5072 17.5996 10.5143 17.5972 10.5217 17.5948C10.7034 17.5359 10.9424 17.5 11.2491 17.5H13.7474C14.0542 17.5 14.2932 17.5359 14.4748 17.5948C14.4824 17.5973 14.4897 17.5997 14.4965 17.6021L14.4965 20.1223L14.4965 20.1234L14.4995 21.3981C14.4928 21.4004 14.4857 21.4028 14.4783 21.4052C14.2966 21.4641 14.0576 21.5 13.7509 21.5H11.2526C10.9458 21.5 10.7068 21.4641 10.5252 21.4052C10.5176 21.4027 10.5103 21.4003 10.5035 21.3979L10.5035 18.8778Z" stroke="#ffffff"/>
</svg>
