<svg width="200" height="200" viewBox="0 0 200 200" fill="none" xmlns="http://www.w3.org/2000/svg"><path fill-rule="evenodd" clip-rule="evenodd" d="M176.594 109.509c4.625-36.388-69.778-88.76-123.324-82.297-53.547 6.463-2.47 48.54-24.142 94.663-15.034 31.997-2.832 59.73 69.68 58.053 52.316-1.21 74.109-35.486 77.786-70.419Z" fill="#24C4F9"/><path fill-rule="evenodd" clip-rule="evenodd" d="M58.912 33.893c-.385.134-.255 11.409-.223 13.392.072 4.469-.167 86.181-.159 90.661.003 1.315.09 1.605.382 1.501.984-.349 77.592-.252 79.503-.605.093-.017.523-12.36.525-12.706.018-3.794.278-84.818.278-88.614.001-1.609-.221-2.517-.568-2.756a2.763 2.763 0 0 0-1.237-.463c-1.409-.187-76.868-.976-78.501-.41Z" fill="#fff"/><path fill-rule="evenodd" clip-rule="evenodd" d="M49.333 25.82c.897-.032 1.793-.073 2.69-.106 1.972-.073 22.61-.141 24.582-.216.754-.029 1.507-.079 2.261-.104 1.272-.043 2.544-.07 3.816-.11.932-.03 1.864-.073 2.797-.106 1.11-.038 2.222-.069 3.333-.109.86-.03 1.721-.078 2.582-.104 1.38-.042 2.759-.07 4.138-.11 1.075-.031 2.15-.072 3.226-.106 1.2-.038 2.4-.072 3.601-.108l3.601-.107c1.272-.036 2.544-.07 3.816-.107 1.224-.035 2.448-.073 3.673-.107 1.379-.038 2.758-.072 4.137-.108l4.084-.107c1.433-.036 2.865-.07 4.298-.107 1.397-.035 2.794-.059 4.191-.111 1.066-.04 2.13-.121 3.195-.173.158-.008.319.068.478.066 2.201-.03 4.403-.065 6.604-.105 1.647-.03 3.294-.072 4.941-.105 1.808-.038 3.616-.085 5.424-.103.938-.01 1.555.414 1.776 1.299.11.441.053.926.056 1.391.008 1.196.022 2.392.007 3.588-.01.745-.069 1.489-.104 2.233a8.625 8.625 0 0 0-.008.426c-.001 1.56.011 3.122-.003 4.682-.027 2.738-.067 5.475-.106 8.212-.032 2.273-.071 4.545-.106 6.818l-.107 6.925c-.036 2.273-.067 4.546-.11 6.818-.025 1.344-.078 2.687-.102 4.03-.016.936.007 1.871-.005 2.806-.03 2.309-.064 4.617-.107 6.926-.025 1.325-.079 2.65-.102 3.976-.017.953.01 1.907-.007 2.86-.022 1.308-.078 2.615-.1 3.923-.017 1.007.01 2.014-.007 3.02-.021 1.201-.079 2.401-.1 3.602-.017.97.006 1.942-.006 2.913a1674.48 1674.48 0 0 1-.106 7.086c-.032 2.023-.067 4.045-.107 6.067-.03 1.469-.081 2.937-.103 4.406-.017 1.132.011 2.264-.007 3.396-.019 1.165-.081 2.329-.1 3.494-.018 1.114.01 2.228-.008 3.342-.017 1.058-.082 2.115-.099 3.172-.018 1.132.007 2.264-.006 3.396-.028 2.344-.068 4.689-.106 7.033-.033 2.058-.032 4.118-.117 6.174a9.891 9.891 0 0 0 1.357 5.499c1.001 1.72 2.075 3.398 3.139 5.081 1.052 1.663 1.976 3.394 2.465 5.302.349 1.363.4 2.778.008 4.157-.134.472-.95 3.726-.255 4.571.892 1.085 2.02 1.572 3.409 1.604 1.354.031 2.639-.298 3.937-.599 1.578-.365 3.162-.629 4.751-.052.79.286 1.503.692 1.97 1.423.071.112.244.299-.133.301-.915.005-1.829.061-2.744.097-1.829.072-3.657.145-5.486.214-1.058.04-2.115.074-3.173.107-1.182.038-2.365.075-3.547.107-1.379.039-2.758.076-4.138.107-1.718.04-3.437.076-5.156.108-2.111.039-4.223.076-6.335.107-2.809.04-5.617.068-8.426.109-1.915.029-3.831.071-5.746.105-.328.006-.655-.001-.983.002l-11.858.106c-.345.003-.691-.002-1.037.001l-12.125.106c-.364.003-.727-.002-1.09.001l-12.02.106c-.345.004-.69-.002-1.036.001l-12.126.107c-.327.003-32.122-.002-32.45 0-.518.006-2.732-3.979.288-12.896 1.006-2.97 7.072-10.866 7.072-10.866s-.826-126.648 0-126.677Z" fill="#fff"/><path fill-rule="evenodd" clip-rule="evenodd" d="M57.158 138.381c0 .502-.009 1.04-.294 1.452-.286.413-.96.59-1.289.211l-.12-85.72c-.007-4.888-.014-9.78.325-14.656 1.194 2.317 1.225 5.037 1.229 7.644l.149 91.069Zm73.226-38.766c.186.416-.453.688-.909.698a533.02 533.02 0 0 1-18.627.089c-.052-10.767.22-21.535.813-32.285l25.135-.19c.211.223-.206.496-.512.52-7.919.629-15.877.772-23.814.43a553.164 553.164 0 0 0-.879 30.612 327.36 327.36 0 0 1 18.793.126ZM79.218 46.947c.077.096.084.23.087.352l.524 19.002c9.959-.407 19.92-.73 29.884-.97l-.401-16.988c-.001-.07-.003-.14.02-.205.088-.25.482-.241.656-.042.174.2.188.489.194.753l.361 17.394-31.411.994-.638-19.51c-.007-.236-.01-.49.122-.686.131-.196.454-.277.602-.093ZM67.886 70.364c-1.307.056-2.82.01-3.632-1.015a93.479 93.479 0 0 0 13.4-.728c.158-.02.22.196.223.355l.387 30.616c.003.222-.015.485-.204.603-.1.062-.227.065-.345.066-3.962.027-7.925-.04-11.884-.201-.453-.019-1.087-.363-.824-.732a431.65 431.65 0 0 1 12.361-.038 719.437 719.437 0 0 0-.412-29.526c-3.019.27-6.043.47-9.07.6Zm-3.27 31.053c4.604-.168 9.216-.098 13.813.211-.294 8.646-.051 17.301.192 25.949l.22 7.85c-.136.207-.48.153-.636-.04-.155-.192-.174-.457-.187-.704a414.894 414.894 0 0 1-.387-32.26l-12.257-.268c-.229-.005-.473-.014-.66-.147-.187-.133-.268-.437-.098-.591Zm15.13-1.282a974.333 974.333 0 0 0-.596-31.221c-.003-.09-.003-.19.06-.256.06-.064.156-.072.243-.076a512.64 512.64 0 0 1 30.774-.482 281.14 281.14 0 0 1-.7 32.296c-9.923-.4-19.864-.8-29.78-.261Zm.837-.998c9.381-.522 18.787-.11 28.174.304a239.543 239.543 0 0 0 .673-30.404 532.146 532.146 0 0 0-29.43.522c.263 9.858.457 19.718.582 29.578ZM62.945 67.006l14.114-.645-.962-18.547c-.008-.15-.01-.314.087-.427.151-.177.463-.103.603.084.14.186.157.434.168.667l.936 19.118-9.757.645c-1.791.119-3.757.188-5.19-.895Zm45.723 67.898c-.306.123-.49-.341-.493-.671a829.535 829.535 0 0 1 .365-32.018l-28.095.177.486 32.9c.002.143-.004.304-.108.401-.287.267-.62-.283-.63-.674a1562.201 1562.201 0 0 1-.503-33.22l29.527-.222-.33 32.808c-.002.2-.033.445-.219.519Zm26.23-69.12-23.244.454c.228-6.166.183-12.341-.134-18.503-.008-.162-.009-.345.107-.458.312-.306.701.297.723.734.296 5.764.36 11.54.194 17.308 7.974-.36 15.961-.455 23.942-.285-.166.608-.957.738-1.588.75Zm-4.469 35.446c.496-.008 1.207.286.99.732-6.64-.047-13.282.063-19.917.331a305.21 305.21 0 0 0-.514 30.728c.024.699.042 1.434-.278 2.057-.191.235-.485-.182-.495-.484a314.978 314.978 0 0 1 .598-32.865c6.537-.224 13.076-.39 19.616-.499Z" fill="#00160A"/><path fill-rule="evenodd" clip-rule="evenodd" d="M127.164 53.492c.149.238.101.559-.045.8-.146.24-.373.417-.596.589l-6.015 4.644c-.179.139-.384.284-.608.256-.224-.029-.391-.347-.214-.487l6.374-4.998c.358-.282.718-.563 1.104-.804Zm-3.767 59.573c.065.184-.082.37-.217.512l-4.199 4.384c-.171.178-.368.368-.615.374-.246.005-.477-.313-.307-.491l4.449-4.642c.126-.131.259-.267.432-.319.174-.053.397.011.457.182Zm-2.574-3.283-3.569 3.131c.287-.077.451.403.238.61-.214.207-.562.172-.843.074a.59.59 0 0 1-.226-.125c-.237-.237-.005-.632.228-.874a34.568 34.568 0 0 1 3.754-3.37c.19-.147.48-.288.645-.113.18.192-.029.493-.227.667Zm-54.096 8.65c-.157-.246.123-.534.365-.697a17.487 17.487 0 0 0 3.66-3.32c.145-.173.3-.36.517-.422.217-.062.504.077.497.303-.003.121-.086.224-.165.316a23.84 23.84 0 0 1-4.078 3.748c-.243.177-.635.325-.796.072Zm-1.199 10.643c-.212.021-.354-.251-.293-.455.061-.205.244-.345.415-.472a36.584 36.584 0 0 0 6.734-6.51c.154-.193.503-.004.53.242.025.247-.141.469-.3.659a38.478 38.478 0 0 1-6.856 6.425.494.494 0 0 1-.23.111Zm49.571-74.205c-.219-.28.076-.663.349-.89l2.099-1.745c.248-.205.692-.374.823-.08.091.204-.097.417-.266.563l-2.083 1.782c-.263.225-.59.466-.922.37Zm-47.427 58.507c.543-.65 1.122-1.27 1.733-1.856.154-.147.359-.304.56-.232.08.028.145.093.175.172.077.203-.082.412-.23.57l-1.472 1.584c-.135.145-.283.299-.477.343-.195.044-.439-.081-.439-.28 0-.115.077-.213.15-.301Zm51.496 11.795c-.081.044-.176.086-.263.056-.216-.073-.105-.4.04-.575 1.447-1.739 2.898-3.482 4.552-5.025.779-.727 1.601-1.407 2.422-2.086l2.673-2.211c.122-.102.272-.21.426-.17.348.091.14.623-.127.863-2.369 2.125-5.1 3.885-7.081 6.376-.801 1.007-1.51 2.16-2.642 2.772Z" fill="#E7EAEE"/><path fill-rule="evenodd" clip-rule="evenodd" d="M67.715 40.689c-3.915 2.043-9.342.307-11.345-3.63 3.051.858 5.645 3.925 8.735 3.222 2.364-.538 3.76-3.12 6.049-3.922 2.464-.862 5.064.554 7.473 1.561 2.408 1.007 5.696 1.39 7.177-.76 1.293-1.878 4.188-1.102 6.267-.163 2.078.938 5.042 1.595 6.207-.365 1.049-1.765 3.659-1.704 5.568-.95 1.909.755 3.758 1.995 5.806 1.851 3.474-.243 6.5-4.391 9.672-2.954.977.443 1.677 1.358 2.649 1.81 3.285 1.53 7.763-2.758 10.414-.289 1.442 1.345 3.757.56 5.551-.256 1.795-.817 4.18-1.496 5.513-.042-1.125 2.618-1.24 5.543-1.339 8.391l-3.237 93.414c-.727-.116-.887-1.079-.871-1.816l1.291-57.381c.305-13.553.61-27.106.942-40.659-1.376-1.002-3.005 1.025-4.69 1.272-1.548.226-2.853-1.102-4.344-1.574-3.339-1.056-7.32 2.232-10.235.29-.784-.522-1.342-1.367-2.2-1.756-1.399-.633-3.027.169-4.211 1.147-1.184.977-2.281 2.195-3.772 2.562-3.326.818-6.35-2.983-9.748-2.544-1.909.246-3.36 1.762-5.016 2.745-1.655.983-4.218 1.212-5.134-.48-1.022-1.888-4.228-1.924-5.293-.06-1.137 1.993-4.124 1.752-6.193.759-2.068-.994-4.123-2.51-6.398-2.209-1.991.264-3.507 1.857-5.288 2.786Z" fill="#00160A"/><path fill-rule="evenodd" clip-rule="evenodd" d="M117.356 56.374a.433.433 0 0 1 .106-.131l4.358-4.145c.078-.074.168-.153.275-.15.152.005.249.182.228.332-.022.15-.124.274-.223.389a31.333 31.333 0 0 1-3.937 3.826c-.147.12-.31.243-.499.245-.189 0-.384-.193-.308-.366ZM94.588 74.735c-1.894 1.945-3.803 3.888-5.434 6.058-1.447 1.925-2.69 4.044-4.507 5.623-.082.072-.186.147-.29.116-.202-.06-.12-.363.003-.534 2.985-4.18 6.236-8.17 9.726-11.94.26-.28.576-.582.957-.55.223.412-.128.89-.455 1.227ZM82.35 77.258c-.175-.16-.03-.446.119-.63l3.413-4.224c.12-.148.249-.303.43-.363.18-.06.421.023.457.21.027.138-.065.27-.151.382a89.388 89.388 0 0 1-3.638 4.41c-.165.186-.447.383-.63.215Zm13.534 2.376c.151.239-.104.52-.328.693-2.984 2.302-4.794 5.842-7.684 8.262-.124.104-.283.213-.435.156-.3-.112-.095-.565.139-.785 2.704-2.546 4.63-5.86 7.497-8.221.24-.198.645-.367.811-.105Z" fill="#E7EAEE"/><path fill-rule="evenodd" clip-rule="evenodd" d="M48.112 27.554c4.4 37.584-.545 75.713 2.646 113.42a1657.015 1657.015 0 0 1 95.159-.511c1.273.03 1.706-1.671 1.727-2.944l1.841-112.44c-27.462.7-54.924 1.402-82.385 2.104-5.688.145-11.42.287-17.024-.701 32.855-1.4 65.728-2.404 98.607-3.012.703-.014 1.48 0 2.003.47.595.535.626 1.441.613 2.241l-1.938 121.597c-.062 3.888 1.069 4.403 4.641 10.5 3.572 6.096 1.701 14.742 1.701 14.742s1.871.491 2.931.662c2.08.337 4.144-.515 6.226-.845 2.081-.33 4.644.14 5.485 2.072-17.442.84-34.909.982-52.37 1.125l-88.375.721a33.486 33.486 0 0 1 11.773-2.111c-2.175-4.823-1.397-10.842 1.932-14.953 2.067-2.553 5.194-4.836 5.126-8.119a3407.71 3407.71 0 0 1-.32-124.018Zm69.533 136.322c-9.991-.227-19.93 2.242-29.906 1.661-4.09-.238-8.138-.988-12.23-1.163-3.432-.147-6.866.111-10.292.369L43 166.415c-.352.026-.754.08-.95.373-.153.227-.13.523-.1.794l.624 5.84c.046.426.12.904.468 1.155.263.189.611.193.935.19l8.349-.078 100.917-.953c.342-.003.719-.02.969-.252.25-.231.295-.603.325-.942l.634-7.117c-8.296.495-16.631.339-24.903-.467-4.204-.409-8.399-.986-12.622-1.082Zm-36.837-.958c11.525 1.899 23.272-.787 34.952-.831 12.599-.047 25.224 2.984 37.709 1.288.376-.051.805-.141.987-.474.206-.375-.016-.832-.235-1.2l-3.699-6.213c-.731-1.227-1.741-2.615-3.168-2.551-31.79 1.433-63.696-.411-95.427 2-.357.046-.701-.327-.625-.679a101.482 101.482 0 0 1-9.04 9.831c12.83 1.242 25.827-3.267 38.546-1.171Zm32.145-21.193c-3.299.064-6.589.363-9.881.589-11.165.766-22.369.698-33.557.49-6.438-.12-12.875-.286-19.312-.452-.382 2.072-.762 4.226-.22 6.262.542 2.037 2.29 3.916 4.396 3.883l92.939-1.48.248-6.263c.018-.449.011-.962-.323-1.263-.26-.234-.639-.264-.988-.282l-23.418-1.208c-3.292-.17-6.588-.34-9.884-.276Z" fill="#00160A"/></svg>